Michroma.ufo
<glyph name="exclam" format="1">
  <advance width="568"/>
  <unicode hex="0021"/>
  <outline>
    <contour>
      <point x="188" y="1536" type="line"/>
      <point x="380" y="1536" type="line"/>
      <point x="332" y="448" type="line"/>
      <point x="236" y="448" type="line"/>
    </contour>
    <contour>
      <point x="380" y="0" type="line"/>
      <point x="188" y="0" type="line"/>
      <point x="188" y="192" type="line"/>
      <point x="380" y="192" type="line"/>
    </contour>
  </outline>
</glyph>
<glyph name="quotedbl" format="1">
  <advance width="768"/>
  <unicode hex="0022"/>
  <outline>
    <contour>
      <point x="128" y="1536" type="line"/>
      <point x="320" y="1536" type="line"/>
      <point x="288" y="1152" type="line"/>
      <point x="160" y="1152" type="line"/>
    </contour>
    <contour>
      <point x="448" y="1536" type="line"/>
      <point x="640" y="1536" type="line"/>
      <point x="608" y="1152" type="line"/>
      <point x="480" y="1152" type="line"/>
    </contour>
  </outline>
</glyph>
<glyph name="numbersign" format="1">
  <advance width="1536"/>
  <unicode hex="0023"/>
  <outline>
    <contour>
      <point x="209" y="1012" type="line"/>
      <point x="209" y="1152" type="line"/>
      <point x="1525" y="1152" type="line"/>
      <point x="1525" y="1012" type="line"/>
    </contour>
    <contour>
      <point x="1421" y="588" type="line"/>
      <point x="1421" y="448" type="line"/>
      <point x="105" y="448" type="line"/>
      <point x="105" y="588" type="line"/>
    </contour>
    <contour>
      <point x="378" y="-104" type="line"/>
      <point x="212" y="-104" type="line"/>
      <point x="597" y="1536" type="line"/>
      <point x="767" y="1536" type="line"/>
    </contour>
    <contour>
      <point x="998" y="-104" type="line"/>
      <point x="832" y="-104" type="line"/>
      <point x="1217" y="1536" type="line"/>
      <point x="1387" y="1536" type="line"/>
    </contour>
  </outline>
</glyph>
<glyph name="dollar" format="1">
  <advance width="2142"/>
  <unicode hex="0024"/>
  <outline>
    <contour>
      <point x="1036" y="1754" type="line"/>
      <point x="1168" y="1754" type="line"/>
      <point x="1168" y="-228" type="line"/>
      <point x="1036" y="-228" type="line"/>
    </contour>
    <component base="S"/>
  </outline>
</glyph>
<glyph name="percent" format="1">
  <advance width="3869"/>
  <unicode hex="0025"/>
  <outline>
    <contour>
      <point x="321" y="1568"/>
      <point x="146" y="1505"/>
      <point x="146" y="1012" type="curve" smooth="yes"/>
      <point x="146" y="514"/>
      <point x="321" y="454"/>
      <point x="798" y="454" type="curve" smooth="yes"/>
      <point x="1274" y="454"/>
      <point x="1449" y="514"/>
      <point x="1449" y="1012" type="curve" smooth="yes"/>
      <point x="1449" y="1505"/>
      <point x="1274" y="1568"/>
      <point x="798" y="1568" type="curve" smooth="yes"/>
    </contour>
    <contour>
      <point x="358" y="602"/>
      <point x="324" y="646"/>
      <point x="324" y="1012" type="curve" smooth="yes"/>
      <point x="324" y="1373"/>
      <point x="358" y="1421"/>
      <point x="798" y="1421" type="curve" smooth="yes"/>
      <point x="1237" y="1421"/>
      <point x="1272" y="1373"/>
      <point x="1272" y="1012" type="curve" smooth="yes"/>
      <point x="1272" y="646"/>
      <point x="1237" y="602"/>
      <point x="798" y="602" type="curve" smooth="yes"/>
    </contour>
    <contour>
      <point x="2595" y="1082"/>
      <point x="2420" y="1018"/>
      <point x="2420" y="526" type="curve" smooth="yes"/>
      <point x="2420" y="28"/>
      <point x="2595" y="-32"/>
      <point x="3071" y="-32" type="curve" smooth="yes"/>
      <point x="3548" y="-32"/>
      <point x="3723" y="28"/>
      <point x="3723" y="526" type="curve" smooth="yes"/>
      <point x="3723" y="1018"/>
      <point x="3548" y="1082"/>
      <point x="3071" y="1082" type="curve" smooth="yes"/>
    </contour>
    <contour>
      <point x="2632" y="115"/>
      <point x="2597" y="160"/>
      <point x="2597" y="526" type="curve" smooth="yes"/>
      <point x="2597" y="886"/>
      <point x="2632" y="934"/>
      <point x="3071" y="934" type="curve" smooth="yes"/>
      <point x="3511" y="934"/>
      <point x="3545" y="886"/>
      <point x="3545" y="526" type="curve" smooth="yes"/>
      <point x="3545" y="160"/>
      <point x="3511" y="115"/>
      <point x="3071" y="115" type="curve" smooth="yes"/>
    </contour>
    <component base="fraction" xOffset="1457"/>
  </outline>
</glyph>
<glyph name="ampersand" format="1">
  <advance width="2432"/>
  <unicode hex="0026"/>
  <outline>
    <contour>
      <point x="340" y="1507"/>
      <point x="522" y="1569"/>
      <point x="814" y="1569" type="curve" smooth="yes"/>
      <point x="1066" y="1569" type="line"/>
      <point x="1096" y="1402" type="line"/>
      <point x="782" y="1402" type="line" smooth="yes"/>
      <point x="617" y="1402"/>
      <point x="525" y="1378"/>
      <point x="512" y="1239" type="curve" smooth="yes"/>
      <point x="501" y="1124"/>
      <point x="542" y="1076"/>
      <point x="684" y="1004" type="curve" smooth="yes"/>
      <point x="2302" y="186" type="line"/>
      <point x="2227" y="42" type="line"/>
      <point x="640" y="833" type="line"/>
      <point x="433" y="833"/>
      <point x="320" y="726"/>
      <point x="320" y="515" type="curve" smooth="yes"/>
      <point x="320" y="136"/>
      <point x="526" y="134"/>
      <point x="1028" y="134" type="curve"/>
      <point x="1028" y="-32" type="line"/>
      <point x="548" y="-32"/>
      <point x="128" y="-68"/>
      <point x="128" y="512" type="curve" smooth="yes"/>
      <point x="128" y="789"/>
      <point x="307" y="922"/>
      <point x="484" y="942" type="curve"/>
      <point x="376" y="997"/>
      <point x="308" y="1090"/>
      <point x="320" y="1244" type="curve" smooth="yes"/>
    </contour>
    <contour>
      <point x="974" y="-32" type="line"/>
      <point x="974" y="134" type="line"/>
      <point x="1274" y="134" type="line"/>
      <point x="1751" y="134"/>
      <point x="1825" y="182"/>
      <point x="1825" y="748" type="curve"/>
      <point x="1825" y="788" type="line"/>
      <point x="2017" y="748" type="line"/>
      <point x="2017" y="89"/>
      <point x="1874" y="-32"/>
      <point x="1274" y="-32" type="curve"/>
    </contour>
    <contour>
      <point x="1712" y="1402"/>
      <point x="1652" y="1402"/>
      <point x="1204" y="1402" type="curve"/>
      <point x="974" y="1402" type="line"/>
      <point x="974" y="1568" type="line"/>
      <point x="1204" y="1568" type="line"/>
      <point x="1752" y="1568"/>
      <point x="1904" y="1517"/>
      <point x="1904" y="1047" type="curve"/>
      <point x="1712" y="1047" type="line"/>
    </contour>
  </outline>
</glyph>
<glyph name="quotesingle" format="1">
  <advance width="448"/>
  <unicode hex="0027"/>
  <outline>
    <contour>
      <point x="128" y="1536" type="line"/>
      <point x="320" y="1536" type="line"/>
      <point x="288" y="1152" type="line"/>
      <point x="160" y="1152" type="line"/>
    </contour>
  </outline>
</glyph>
<glyph name="parenleft" format="1">
  <advance width="768"/>
  <unicode hex="0028"/>
  <outline>
    <contour>
      <point x="640" y="-64" type="line"/>
      <point x="411" y="-64"/>
      <point x="261" y="27"/>
      <point x="192" y="208" type="curve" smooth="yes"/>
      <point x="155" y="306"/>
      <point x="134" y="427"/>
      <point x="130" y="573" type="curve" smooth="yes"/>
      <point x="128" y="639"/>
      <point x="128" y="704"/>
      <point x="128" y="768" type="curve" smooth="yes"/>
      <point x="128" y="942"/>
      <point x="133" y="1065"/>
      <point x="144" y="1138" type="curve" smooth="yes"/>
      <point x="166" y="1280"/>
      <point x="202" y="1387"/>
      <point x="280" y="1470" type="curve" smooth="yes"/>
      <point x="362" y="1557"/>
      <point x="482" y="1600"/>
      <point x="640" y="1600" type="curve"/>
      <point x="640" y="1440" type="line"/>
      <point x="536" y="1440"/>
      <point x="461" y="1416"/>
      <point x="414" y="1366" type="curve" smooth="yes"/>
      <point x="356" y="1305"/>
      <point x="325" y="1174"/>
      <point x="322" y="974" type="curve" smooth="yes"/>
      <point x="321" y="912"/>
      <point x="320" y="843"/>
      <point x="320" y="768" type="curve" smooth="yes"/>
      <point x="320" y="586"/>
      <point x="323" y="466"/>
      <point x="330" y="408" type="curve" smooth="yes"/>
      <point x="353" y="207"/>
      <point x="416" y="96"/>
      <point x="640" y="96" type="curve"/>
    </contour>
  </outline>
</glyph>
<glyph name="parenright" format="1">
  <advance width="768"/>
  <unicode hex="0029"/>
  <outline>
    <contour>
      <point x="128" y="96" type="line"/>
      <point x="232" y="96"/>
      <point x="307" y="120"/>
      <point x="354" y="170" type="curve" smooth="yes"/>
      <point x="412" y="231"/>
      <point x="443" y="362"/>
      <point x="446" y="562" type="curve" smooth="yes"/>
      <point x="447" y="624"/>
      <point x="448" y="693"/>
      <point x="448" y="768" type="curve" smooth="yes"/>
      <point x="448" y="950"/>
      <point x="445" y="1070"/>
      <point x="438" y="1128" type="curve" smooth="yes"/>
      <point x="415" y="1329"/>
      <point x="352" y="1440"/>
      <point x="128" y="1440" type="curve"/>
      <point x="128" y="1600" type="line"/>
      <point x="357" y="1600"/>
      <point x="507" y="1509"/>
      <point x="576" y="1328" type="curve" smooth="yes"/>
      <point x="613" y="1230"/>
      <point x="634" y="1109"/>
      <point x="638" y="963" type="curve" smooth="yes"/>
      <point x="640" y="897"/>
      <point x="640" y="832"/>
      <point x="640" y="768" type="curve" smooth="yes"/>
      <point x="640" y="594"/>
      <point x="635" y="471"/>
      <point x="624" y="398" type="curve" smooth="yes"/>
      <point x="602" y="256"/>
      <point x="566" y="149"/>
      <point x="488" y="66" type="curve" smooth="yes"/>
      <point x="406" y="-21"/>
      <point x="286" y="-64"/>
      <point x="128" y="-64" type="curve"/>
    </contour>
  </outline>
</glyph>
<glyph name="asterisk" format="1">
  <advance width="1415"/>
  <unicode hex="002A"/>
  <outline>
    <contour>
      <point x="420" y="384" type="line"/>
      <point x="264" y="495" type="line"/>
      <point x="628" y="896" type="line"/>
      <point x="128" y="1072" type="line"/>
      <point x="228" y="1250" type="line"/>
      <point x="660" y="992" type="line"/>
      <point x="612" y="1536" type="line"/>
      <point x="804" y="1536" type="line"/>
      <point x="756" y="992" type="line"/>
      <point x="1187" y="1250" type="line"/>
      <point x="1287" y="1072" type="line"/>
      <point x="788" y="896" type="line"/>
      <point x="1152" y="495" type="line"/>
      <point x="996" y="384" type="line"/>
      <point x="708" y="834" type="line"/>
    </contour>
  </outline>
</glyph>
<glyph name="plus" format="1">
  <advance width="1344"/>
  <unicode hex="002B"/>
  <outline>
    <contour>
      <point x="128" y="960" type="line"/>
      <point x="576" y="960" type="line"/>
      <point x="576" y="1408" type="line"/>
      <point x="768" y="1408" type="line"/>
      <point x="768" y="960" type="line"/>
      <point x="1216" y="960" type="line"/>
      <point x="1216" y="800" type="line"/>
      <point x="768" y="800" type="line"/>
      <point x="768" y="320" type="line"/>
      <point x="576" y="320" type="line"/>
      <point x="576" y="800" type="line"/>
      <point x="128" y="800" type="line"/>
    </contour>
  </outline>
</glyph>
<glyph name="hyphen" format="1">
  <advance width="1024"/>
  <unicode hex="002D"/>
  <outline>
    <contour>
      <point x="128" y="672" type="line"/>
      <point x="896" y="672" type="line"/>
      <point x="896" y="512" type="line"/>
      <point x="128" y="512" type="line"/>
    </contour>
  </outline>
</glyph>
<glyph name="period" format="1">
  <advance width="448"/>
  <unicode hex="002E"/>
  <outline>
    <contour>
      <point x="320" y="0" type="line"/>
      <point x="128" y="0" type="line"/>
      <point x="128" y="192" type="line"/>
      <point x="320" y="192" type="line"/>
    </contour>
  </outline>
</glyph>
<glyph name="slash" format="1">
  <advance width="1023"/>
  <unicode hex="002F"/>
  <outline>
    <contour>
      <point x="768" y="1536" type="line"/>
      <point x="960" y="1536" type="line"/>
      <point x="256" y="0" type="line"/>
      <point x="64" y="0" type="line"/>
    </contour>
  </outline>
</glyph>
<glyph name="zero" format="1">
  <advance width="1948"/>
  <unicode hex="0030"/>
  <outline>
    <contour>
      <point x="974" y="1568" type="line"/>
      <point x="974" y="1402" type="line"/>
      <point x="871" y="1402" type="line"/>
      <point x="394" y="1402"/>
      <point x="320" y="1374"/>
      <point x="320" y="788" type="curve"/>
      <point x="128" y="748" type="line"/>
      <point x="128" y="788" type="line"/>
      <point x="128" y="1467"/>
      <point x="271" y="1568"/>
      <point x="871" y="1568" type="curve"/>
    </contour>
    <contour>
      <point x="271" y="-32"/>
      <point x="128" y="89"/>
      <point x="128" y="748" type="curve"/>
      <point x="320" y="788" type="line"/>
      <point x="320" y="748" type="line"/>
      <point x="320" y="182"/>
      <point x="394" y="134"/>
      <point x="871" y="134" type="curve"/>
      <point x="974" y="134" type="line"/>
      <point x="974" y="-32" type="line"/>
      <point x="871" y="-32" type="line"/>
    </contour>
    <contour>
      <point x="1677" y="1568"/>
      <point x="1820" y="1467"/>
      <point x="1820" y="788" type="curve"/>
      <point x="1820" y="748" type="line"/>
      <point x="1628" y="788" type="line"/>
      <point x="1628" y="1374"/>
      <point x="1554" y="1402"/>
      <point x="1077" y="1402" type="curve"/>
      <point x="974" y="1402" type="line"/>
      <point x="974" y="1568" type="line"/>
      <point x="1077" y="1568" type="line"/>
    </contour>
    <contour>
      <point x="974" y="-32" type="line"/>
      <point x="974" y="134" type="line"/>
      <point x="1077" y="134" type="line"/>
      <point x="1554" y="134"/>
      <point x="1628" y="182"/>
      <point x="1628" y="748" type="curve"/>
      <point x="1628" y="788" type="line"/>
      <point x="1820" y="748" type="line"/>
      <point x="1820" y="89"/>
      <point x="1677" y="-32"/>
      <point x="1077" y="-32" type="curve"/>
    </contour>
  </outline>
</glyph>
<glyph name="one" format="1">
  <advance width="1948"/>
  <unicode hex="0031"/>
  <outline>
    <contour>
      <point x="1108" y="160" type="line"/>
      <point x="1194" y="74" type="line"/>
      <point x="1194" y="1536" type="line"/>
      <point x="988" y="1536" type="line"/>
      <point x="368" y="1331" type="line"/>
      <point x="429" y="1183" type="line"/>
      <point x="1073" y="1398" type="line"/>
      <point x="1002" y="1435" type="line"/>
      <point x="1002" y="74" type="line"/>
      <point x="1088" y="160" type="line"/>
      <point x="388" y="160" type="line"/>
      <point x="388" y="0" type="line"/>
      <point x="1730" y="0" type="line"/>
      <point x="1730" y="160" type="line"/>
    </contour>
  </outline>
</glyph>
<glyph name="two" format="1">
  <advance width="1948"/>
  <unicode hex="0032"/>
  <outline>
    <contour>
      <point x="1719" y="686"/>
      <point x="1829" y="795"/>
      <point x="1829" y="1132" type="curve"/>
      <point x="1637" y="1132" type="line"/>
      <point x="1637" y="886"/>
      <point x="1623" y="847"/>
      <point x="1207" y="847" type="curve" smooth="yes"/>
      <point x="849" y="847" type="line"/>
      <point x="849" y="686" type="line"/>
      <point x="1314" y="686" type="line" smooth="yes"/>
    </contour>
    <contour>
      <point x="1706" y="1568"/>
      <point x="1829" y="1481"/>
      <point x="1829" y="1132" type="curve"/>
      <point x="1637" y="1132" type="line"/>
      <point x="1637" y="1388"/>
      <point x="1573" y="1402"/>
      <point x="1117" y="1402" type="curve"/>
      <point x="1004" y="1402" type="line"/>
      <point x="1004" y="1568" type="line"/>
      <point x="1127" y="1568" type="line"/>
    </contour>
    <contour>
      <point x="1012" y="1568" type="line"/>
      <point x="1012" y="1402" type="line"/>
      <point x="899" y="1402" type="line"/>
      <point x="422" y="1402"/>
      <point x="358" y="1388"/>
      <point x="358" y="1132" type="curve"/>
      <point x="166" y="1132" type="line"/>
      <point x="166" y="1481"/>
      <point x="289" y="1568"/>
      <point x="889" y="1568" type="curve"/>
    </contour>
    <contour>
      <point x="264" y="847"/>
      <point x="166" y="730"/>
      <point x="166" y="371" type="curve" smooth="yes"/>
      <point x="166" y="101" type="line"/>
      <point x="358" y="101" type="line"/>
      <point x="358" y="371" type="line" smooth="yes"/>
      <point x="358" y="637"/>
      <point x="397" y="686"/>
      <point x="874" y="686" type="curve" smooth="yes"/>
      <point x="1009" y="686" type="line"/>
      <point x="1009" y="847" type="line"/>
      <point x="864" y="847" type="line"/>
    </contour>
    <contour>
      <point x="166" y="160" type="line"/>
      <point x="166" y="0" type="line"/>
      <point x="1768" y="0" type="line"/>
      <point x="1768" y="160" type="line"/>
    </contour>
  </outline>
</glyph>
<glyph name="four" format="1">
  <advance width="2048"/>
  <unicode hex="0034"/>
  <outline>
    <contour>
      <point x="1664" y="320" type="line"/>
      <point x="1664" y="0" type="line"/>
      <point x="1472" y="0" type="line"/>
      <point x="1472" y="320" type="line"/>
      <point x="128" y="320" type="line"/>
      <point x="128" y="512" type="line"/>
      <point x="1408" y="1536" type="line"/>
      <point x="1664" y="1536" type="line"/>
      <point x="1664" y="480" type="line"/>
      <point x="1920" y="480" type="line"/>
      <point x="1920" y="320" type="line"/>
    </contour>
    <contour>
      <point x="1472" y="480" type="line"/>
      <point x="1472" y="1408" type="line"/>
      <point x="320" y="480" type="line"/>
    </contour>
  </outline>
</glyph>
<glyph name="five" format="1">
  <advance width="1948"/>
  <unicode hex="0035"/>
  <outline>
    <contour>
      <point x="1628" y="544" type="line"/>
      <point x="1628" y="781"/>
      <point x="1594" y="816"/>
      <point x="1117" y="816" type="curve"/>
      <point x="1004" y="816" type="line"/>
      <point x="1004" y="976" type="line"/>
      <point x="1187" y="977" type="line"/>
      <point x="1744" y="977"/>
      <point x="1820" y="858"/>
      <point x="1820" y="544" type="curve"/>
    </contour>
    <contour>
      <point x="330" y="735" type="line"/>
      <point x="370" y="908"/>
      <point x="483" y="977"/>
      <point x="725" y="977" type="curve"/>
      <point x="1018" y="976" type="line"/>
      <point x="1018" y="816" type="line"/>
      <point x="905" y="816" type="line"/>
      <point x="608" y="816"/>
      <point x="483" y="802"/>
      <point x="430" y="735" type="curve"/>
    </contour>
    <contour>
      <point x="979" y="-32" type="line"/>
      <point x="979" y="134" type="line"/>
      <point x="1112" y="134" type="line"/>
      <point x="1589" y="134"/>
      <point x="1628" y="176"/>
      <point x="1628" y="444" type="curve" smooth="yes"/>
      <point x="1628" y="544" type="line"/>
      <point x="1820" y="544" type="line"/>
      <point x="1820" y="444" type="line" smooth="yes"/>
      <point x="1820" y="83"/>
      <point x="1722" y="-32"/>
      <point x="1122" y="-32" type="curve"/>
    </contour>
    <contour>
      <point x="275" y="-32"/>
      <point x="177" y="85"/>
      <point x="177" y="444" type="curve"/>
      <point x="369" y="444" type="line"/>
      <point x="369" y="178"/>
      <point x="408" y="134"/>
      <point x="885" y="134" type="curve"/>
      <point x="979" y="134" type="line"/>
      <point x="979" y="-32" type="line"/>
      <point x="875" y="-32" type="line"/>
    </contour>
    <contour>
      <point x="395" y="735" type="line"/>
      <point x="203" y="735" type="line"/>
      <point x="203" y="1536" type="line"/>
      <point x="1752" y="1536" type="line"/>
      <point x="1752" y="1376" type="line"/>
      <point x="395" y="1376" type="line"/>
    </contour>
  </outline>
</glyph>
<glyph name="six" format="1">
  <advance width="1948"/>
  <unicode hex="0036"/>
  <outline>
    <contour>
      <point x="1839" y="758"/>
      <point x="1763" y="877"/>
      <point x="1206" y="877" type="curve"/>
      <point x="952" y="876" type="line"/>
      <point x="952" y="716" type="line"/>
      <point x="1136" y="716" type="line"/>
      <point x="1613" y="716"/>
      <point x="1647" y="681"/>
      <point x="1647" y="444" type="curve"/>
      <point x="1839" y="444" type="line"/>
    </contour>
    <contour>
      <point x="998" y="-32" type="line"/>
      <point x="998" y="134" type="line"/>
      <point x="1131" y="134" type="line"/>
      <point x="1608" y="134"/>
      <point x="1647" y="178"/>
      <point x="1647" y="444" type="curve"/>
      <point x="1839" y="444" type="line"/>
      <point x="1839" y="85"/>
      <point x="1741" y="-32"/>
      <point x="1141" y="-32" type="curve"/>
    </contour>
    <contour>
      <point x="1001" y="1568" type="line"/>
      <point x="1001" y="1402" type="line"/>
      <point x="888" y="1402" type="line"/>
      <point x="411" y="1402"/>
      <point x="347" y="1378"/>
      <point x="347" y="1122" type="curve"/>
      <point x="155" y="1122" type="line"/>
      <point x="155" y="1471"/>
      <point x="278" y="1568"/>
      <point x="878" y="1568" type="curve"/>
    </contour>
    <contour>
      <point x="253" y="-32"/>
      <point x="155" y="85"/>
      <point x="155" y="444" type="curve"/>
      <point x="347" y="444" type="line"/>
      <point x="347" y="178"/>
      <point x="386" y="134"/>
      <point x="863" y="134" type="curve"/>
      <point x="998" y="134" type="line"/>
      <point x="998" y="-32" type="line"/>
      <point x="853" y="-32" type="line"/>
    </contour>
    <contour>
      <point x="155" y="444" type="line"/>
      <point x="347" y="444" type="line"/>
      <point x="347" y="1122" type="line"/>
      <point x="155" y="1122" type="line"/>
    </contour>
    <contour>
      <point x="1706" y="1568"/>
      <point x="1805" y="1481"/>
      <point x="1805" y="1132" type="curve"/>
      <point x="1613" y="1132" type="line"/>
      <point x="1613" y="1388"/>
      <point x="1573" y="1402"/>
      <point x="1106" y="1402" type="curve"/>
      <point x="993" y="1402" type="line"/>
      <point x="993" y="1568" type="line"/>
      <point x="1116" y="1568" type="line"/>
    </contour>
    <contour>
      <point x="347" y="444" type="line"/>
      <point x="347" y="681"/>
      <point x="381" y="716"/>
      <point x="858" y="716" type="curve"/>
      <point x="1042" y="716" type="line"/>
      <point x="1042" y="876" type="line"/>
      <point x="678" y="877" type="line"/>
      <point x="361" y="877"/>
      <point x="265" y="758"/>
      <point x="265" y="444" type="curve"/>
    </contour>
  </outline>
</glyph>
<glyph name="seven" format="1">
  <advance width="1984"/>
  <unicode hex="0037"/>
  <outline>
    <contour>
      <point x="704" y="0" type="line"/>
      <point x="448" y="0" type="line"/>
      <point x="1632" y="1376" type="line"/>
      <point x="128" y="1376" type="line"/>
      <point x="128" y="1536" type="line"/>
      <point x="1856" y="1536" type="line"/>
      <point x="1856" y="1344" type="line"/>
    </contour>
  </outline>
</glyph>
<glyph name="eight" format="1">
  <advance width="1948"/>
  <unicode hex="0038"/>
  <outline>
    <contour>
      <point x="1730" y="819"/>
      <point x="1816" y="925"/>
      <point x="1816" y="1132" type="curve"/>
      <point x="1624" y="1132" type="line"/>
      <point x="1624" y="916"/>
      <point x="1590" y="877"/>
      <point x="1153" y="877" type="curve" smooth="yes"/>
      <point x="815" y="877" type="line"/>
      <point x="815" y="716" type="line"/>
      <point x="1113" y="716" type="line" smooth="yes"/>
      <point x="1590" y="716"/>
      <point x="1624" y="681"/>
      <point x="1624" y="444" type="curve"/>
      <point x="1816" y="444" type="line"/>
      <point x="1816" y="659"/>
      <point x="1731" y="770"/>
      <point x="1607" y="796" type="curve"/>
    </contour>
    <contour>
      <point x="975" y="-32" type="line"/>
      <point x="975" y="134" type="line"/>
      <point x="1108" y="134" type="line"/>
      <point x="1585" y="134"/>
      <point x="1624" y="178"/>
      <point x="1624" y="444" type="curve"/>
      <point x="1816" y="444" type="line"/>
      <point x="1816" y="85"/>
      <point x="1718" y="-32"/>
      <point x="1118" y="-32" type="curve"/>
    </contour>
    <contour>
      <point x="1693" y="1568"/>
      <point x="1816" y="1481"/>
      <point x="1816" y="1132" type="curve"/>
      <point x="1624" y="1132" type="line"/>
      <point x="1624" y="1388"/>
      <point x="1560" y="1402"/>
      <point x="1083" y="1402" type="curve"/>
      <point x="970" y="1402" type="line"/>
      <point x="970" y="1568" type="line"/>
      <point x="1093" y="1568" type="line"/>
    </contour>
    <contour>
      <point x="978" y="1568" type="line"/>
      <point x="978" y="1402" type="line"/>
      <point x="865" y="1402" type="line"/>
      <point x="388" y="1402"/>
      <point x="324" y="1388"/>
      <point x="324" y="1132" type="curve"/>
      <point x="132" y="1132" type="line"/>
      <point x="132" y="1481"/>
      <point x="255" y="1568"/>
      <point x="855" y="1568" type="curve"/>
    </contour>
    <contour>
      <point x="230" y="-32"/>
      <point x="132" y="85"/>
      <point x="132" y="444" type="curve"/>
      <point x="324" y="444" type="line"/>
      <point x="324" y="178"/>
      <point x="363" y="134"/>
      <point x="840" y="134" type="curve"/>
      <point x="975" y="134" type="line"/>
      <point x="975" y="-32" type="line"/>
      <point x="830" y="-32" type="line"/>
    </contour>
    <contour>
      <point x="217" y="770"/>
      <point x="132" y="659"/>
      <point x="132" y="444" type="curve"/>
      <point x="324" y="444" type="line"/>
      <point x="324" y="681"/>
      <point x="358" y="716"/>
      <point x="835" y="716" type="curve" smooth="yes"/>
      <point x="1133" y="716" type="line"/>
      <point x="1133" y="877" type="line"/>
      <point x="795" y="877" type="line" smooth="yes"/>
      <point x="358" y="877"/>
      <point x="324" y="916"/>
      <point x="324" y="1132" type="curve"/>
      <point x="132" y="1132" type="line"/>
      <point x="132" y="925"/>
      <point x="218" y="819"/>
      <point x="341" y="796" type="curve"/>
    </contour>
  </outline>
</glyph>
<glyph name="nine" format="1">
  <advance width="1984"/>
  <unicode hex="0039"/>
  <outline>
    <contour>
      <point x="132" y="778"/>
      <point x="208" y="659"/>
      <point x="765" y="659" type="curve"/>
      <point x="1019" y="660" type="line"/>
      <point x="1019" y="820" type="line"/>
      <point x="835" y="820" type="line"/>
      <point x="358" y="820"/>
      <point x="324" y="855"/>
      <point x="324" y="1092" type="curve"/>
      <point x="132" y="1092" type="line"/>
    </contour>
    <contour>
      <point x="973" y="1568" type="line"/>
      <point x="973" y="1402" type="line"/>
      <point x="840" y="1402" type="line"/>
      <point x="363" y="1402"/>
      <point x="324" y="1358"/>
      <point x="324" y="1092" type="curve"/>
      <point x="132" y="1092" type="line"/>
      <point x="132" y="1451"/>
      <point x="230" y="1568"/>
      <point x="830" y="1568" type="curve"/>
    </contour>
    <contour>
      <point x="970" y="-32" type="line"/>
      <point x="970" y="134" type="line"/>
      <point x="1083" y="134" type="line"/>
      <point x="1560" y="134"/>
      <point x="1624" y="168"/>
      <point x="1624" y="424" type="curve"/>
      <point x="1816" y="424" type="line"/>
      <point x="1816" y="75"/>
      <point x="1693" y="-32"/>
      <point x="1093" y="-32" type="curve"/>
    </contour>
    <contour>
      <point x="1718" y="1568"/>
      <point x="1816" y="1451"/>
      <point x="1816" y="1092" type="curve"/>
      <point x="1624" y="1092" type="line"/>
      <point x="1624" y="1358"/>
      <point x="1585" y="1402"/>
      <point x="1108" y="1402" type="curve"/>
      <point x="973" y="1402" type="line"/>
      <point x="973" y="1568" type="line"/>
      <point x="1118" y="1568" type="line"/>
    </contour>
    <contour>
      <point x="1816" y="1092" type="line"/>
      <point x="1624" y="1092" type="line"/>
      <point x="1624" y="424" type="line"/>
      <point x="1816" y="424" type="line"/>
    </contour>
    <contour>
      <point x="256" y="-32"/>
      <point x="157" y="55"/>
      <point x="157" y="404" type="curve"/>
      <point x="349" y="404" type="line"/>
      <point x="349" y="148"/>
      <point x="389" y="134"/>
      <point x="865" y="134" type="curve"/>
      <point x="978" y="134" type="line"/>
      <point x="978" y="-32" type="line"/>
      <point x="855" y="-32" type="line"/>
    </contour>
    <contour>
      <point x="1624" y="1092" type="line"/>
      <point x="1624" y="855"/>
      <point x="1590" y="820"/>
      <point x="1113" y="820" type="curve"/>
      <point x="929" y="820" type="line"/>
      <point x="929" y="660" type="line"/>
      <point x="1293" y="659" type="line"/>
      <point x="1610" y="659"/>
      <point x="1706" y="778"/>
      <point x="1706" y="1092" type="curve"/>
    </contour>
  </outline>
</glyph>
<glyph name="colon" format="1">
  <advance width="448"/>
  <unicode hex="003A"/>
  <outline>
    <contour>
      <point x="320" y="768" type="line"/>
      <point x="128" y="768" type="line"/>
      <point x="128" y="960" type="line"/>
      <point x="320" y="960" type="line"/>
    </contour>
    <contour>
      <point x="320" y="192" type="line"/>
      <point x="128" y="192" type="line"/>
      <point x="128" y="384" type="line"/>
      <point x="320" y="384" type="line"/>
    </contour>
  </outline>
</glyph>
<glyph name="semicolon" format="1">
  <advance width="448"/>
  <unicode hex="003B"/>
  <outline>
    <contour>
      <point x="128" y="512" type="line"/>
      <point x="320" y="512" type="line"/>
      <point x="192" y="128" type="line"/>
      <point x="64" y="128" type="line"/>
    </contour>
    <contour>
      <point x="320" y="768" type="line"/>
      <point x="128" y="768" type="line"/>
      <point x="128" y="960" type="line"/>
      <point x="320" y="960" type="line"/>
    </contour>
  </outline>
</glyph>
<glyph name="less" format="1">
  <advance width="1152"/>
  <unicode hex="003C"/>
  <outline>
    <contour>
      <point x="1024" y="1472" type="line"/>
      <point x="1024" y="1216" type="line"/>
      <point x="272" y="832" type="line"/>
      <point x="1024" y="448" type="line"/>
      <point x="1024" y="192" type="line"/>
      <point x="128" y="736" type="line"/>
      <point x="128" y="928" type="line"/>
    </contour>
  </outline>
</glyph>
<glyph name="equal" format="1">
  <advance width="1162"/>
  <unicode hex="003D"/>
  <outline>
    <contour>
      <point x="128" y="913" type="line"/>
      <point x="1034" y="913" type="line"/>
      <point x="1034" y="753" type="line"/>
      <point x="128" y="753" type="line"/>
    </contour>
    <contour>
      <point x="128" y="480" type="line"/>
      <point x="1034" y="480" type="line"/>
      <point x="1034" y="320" type="line"/>
      <point x="128" y="320" type="line"/>
    </contour>
  </outline>
</glyph>
<glyph name="question" format="1">
  <advance width="1856"/>
  <unicode hex="003F"/>
  <outline>
    <contour>
      <point x="1400" y="1568"/>
      <point x="1657" y="1543"/>
      <point x="1657" y="1153" type="curve" smooth="yes"/>
      <point x="1657" y="890"/>
      <point x="1609" y="736"/>
      <point x="1214" y="736" type="curve" smooth="yes"/>
      <point x="1063" y="736" type="line" smooth="yes"/>
      <point x="882" y="736"/>
      <point x="877" y="719"/>
      <point x="876" y="474" type="curve" smooth="yes"/>
      <point x="876" y="321" type="line"/>
      <point x="684" y="321" type="line"/>
      <point x="684" y="474" type="line" smooth="yes"/>
      <point x="684" y="836"/>
      <point x="727" y="895"/>
      <point x="1063" y="895" type="curve" smooth="yes"/>
      <point x="1214" y="895" type="line" smooth="yes"/>
      <point x="1423" y="895"/>
      <point x="1465" y="943"/>
      <point x="1465" y="1153" type="curve" smooth="yes"/>
      <point x="1465" y="1393"/>
      <point x="1360" y="1408"/>
      <point x="988" y="1408" type="curve" smooth="yes"/>
      <point x="457" y="1408"/>
      <point x="410" y="1381"/>
      <point x="410" y="1122" type="curve"/>
      <point x="218" y="1122" type="line"/>
      <point x="218" y="1560"/>
      <point x="447" y="1568"/>
      <point x="988" y="1568" type="curve" smooth="yes"/>
    </contour>
    <contour>
      <point x="876" y="0" type="line"/>
      <point x="684" y="0" type="line"/>
      <point x="684" y="192" type="line"/>
      <point x="876" y="192" type="line"/>
    </contour>
  </outline>
</glyph>
<glyph name="at" format="1">
  <advance width="2240"/>
  <unicode hex="0040"/>
  <outline>
    <contour>
      <point x="840" y="306" type="curve" smooth="yes"/>
      <point x="911" y="290"/>
      <point x="989" y="288"/>
      <point x="1082" y="288" type="curve" smooth="yes"/>
      <point x="1123" y="288" type="line" smooth="yes"/>
      <point x="1242" y="288"/>
      <point x="1349" y="289"/>
      <point x="1418" y="332" type="curve" smooth="yes"/>
      <point x="1476" y="368"/>
      <point x="1504" y="448"/>
      <point x="1504" y="573" type="curve" smooth="yes"/>
      <point x="1504" y="762"/>
      <point x="1451" y="840"/>
      <point x="1298" y="856" type="curve" smooth="yes"/>
      <point x="1249" y="861"/>
      <point x="1190" y="864"/>
      <point x="1123" y="864" type="curve" smooth="yes"/>
      <point x="1080" y="864" type="line" smooth="yes"/>
      <point x="987" y="864"/>
      <point x="911" y="862"/>
      <point x="840" y="846" type="curve" smooth="yes"/>
      <point x="717" y="818"/>
      <point x="704" y="747"/>
      <point x="704" y="576" type="curve" smooth="yes"/>
      <point x="704" y="484"/>
      <point x="710" y="424"/>
      <point x="722" y="397" type="curve" smooth="yes"/>
      <point x="746" y="343"/>
      <point x="777" y="320"/>
    </contour>
    <contour>
      <point x="1796" y="288" type="curve" smooth="yes"/>
      <point x="1915" y="288"/>
      <point x="1920" y="338"/>
      <point x="1920" y="480" type="curve" smooth="yes"/>
      <point x="1920" y="768" type="line" smooth="yes"/>
      <point x="1920" y="1037"/>
      <point x="1857" y="1138"/>
      <point x="1635" y="1185" type="curve" smooth="yes"/>
      <point x="1537" y="1206"/>
      <point x="1403" y="1216"/>
      <point x="1232" y="1216" type="curve" smooth="yes"/>
      <point x="1061" y="1216"/>
      <point x="933" y="1214"/>
      <point x="846" y="1211" type="curve" smooth="yes"/>
      <point x="621" y="1202"/>
      <point x="453" y="1167"/>
      <point x="380" y="1012" type="curve" smooth="yes"/>
      <point x="341" y="929"/>
      <point x="321" y="784"/>
      <point x="321" y="576" type="curve" smooth="yes"/>
      <point x="321" y="379"/>
      <point x="340" y="238"/>
      <point x="380" y="154" type="curve" smooth="yes"/>
      <point x="451" y="4"/>
      <point x="623" y="-43"/>
      <point x="846" y="-56" type="curve" smooth="yes"/>
      <point x="933" y="-61"/>
      <point x="1248" y="-64"/>
      <point x="1791" y="-64" type="curve"/>
      <point x="1791" y="-224" type="line"/>
      <point x="1152" y="-224" type="line" smooth="yes"/>
      <point x="860" y="-224"/>
      <point x="638" y="-196"/>
      <point x="488" y="-138" type="curve" smooth="yes"/>
      <point x="345" y="-83"/>
      <point x="247" y="6"/>
      <point x="194" y="127" type="curve" smooth="yes"/>
      <point x="150" y="227"/>
      <point x="128" y="377"/>
      <point x="128" y="576" type="curve" smooth="yes"/>
      <point x="128" y="804"/>
      <point x="150" y="968"/>
      <point x="194" y="1068" type="curve" smooth="yes"/>
      <point x="245" y="1184"/>
      <point x="343" y="1265"/>
      <point x="488" y="1310" type="curve" smooth="yes"/>
      <point x="628" y="1354"/>
      <point x="849" y="1376"/>
      <point x="1152" y="1376" type="curve" smooth="yes"/>
      <point x="1530" y="1376"/>
      <point x="1786" y="1331"/>
      <point x="1920" y="1240" type="curve" smooth="yes"/>
      <point x="1967" y="1208"/>
      <point x="2006" y="1169"/>
      <point x="2034" y="1124" type="curve" smooth="yes"/>
      <point x="2062" y="1079"/>
      <point x="2088" y="865"/>
      <point x="2112" y="480" type="curve"/>
      <point x="2112" y="346"/>
      <point x="2092" y="255"/>
      <point x="2053" y="208" type="curve" smooth="yes"/>
      <point x="2009" y="155"/>
      <point x="1921" y="128"/>
      <point x="1791" y="128" type="curve" smooth="yes"/>
      <point x="1654" y="128"/>
      <point x="1567" y="186"/>
      <point x="1567" y="320" type="curve"/>
      <point x="1538" y="257"/>
      <point x="1484" y="217"/>
      <point x="1428" y="188" type="curve" smooth="yes"/>
      <point x="1349" y="147"/>
      <point x="1241" y="128"/>
      <point x="1120" y="128" type="curve" smooth="yes"/>
      <point x="865" y="128"/>
      <point x="639" y="141"/>
      <point x="556" y="307" type="curve" smooth="yes"/>
      <point x="527" y="366"/>
      <point x="512" y="455"/>
      <point x="512" y="576" type="curve" smooth="yes"/>
      <point x="512" y="815"/>
      <point x="559" y="929"/>
      <point x="734" y="984" type="curve" smooth="yes"/>
      <point x="819" y="1011"/>
      <point x="947" y="1024"/>
      <point x="1117" y="1024" type="curve" smooth="yes"/>
      <point x="1254" y="1024"/>
      <point x="1360" y="997"/>
      <point x="1435" y="944" type="curve" smooth="yes"/>
      <point x="1467" y="921"/>
      <point x="1490" y="894"/>
      <point x="1504" y="864" type="curve"/>
      <point x="1504" y="992" type="line"/>
      <point x="1696" y="992" type="line"/>
      <point x="1696" y="480" type="line" smooth="yes"/>
      <point x="1696" y="397"/>
      <point x="1700" y="347"/>
      <point x="1708" y="329" type="curve" smooth="yes"/>
      <point x="1725" y="293"/>
      <point x="1745" y="288"/>
    </contour>
  </outline>
</glyph>
<glyph name="A" format="1">
  <advance width="2176"/>
  <unicode hex="0041"/>
  <outline>
    <contour>
      <point x="1696" y="352" type="line"/>
      <point x="480" y="352" type="line"/>
      <point x="288" y="0" type="line"/>
      <point x="64" y="0" type="line"/>
      <point x="960" y="1536" type="line"/>
      <point x="1216" y="1536" type="line"/>
      <point x="2112" y="0" type="line"/>
      <point x="1888" y="0" type="line"/>
    </contour>
    <contour>
      <point x="1600" y="512" type="line"/>
      <point x="1088" y="1408" type="line"/>
      <point x="576" y="512" type="line"/>
    </contour>
  </outline>
</glyph>
<glyph name="B" format="1">
  <advance width="2112"/>
  <unicode hex="0042"/>
  <outline>
    <contour>
      <point x="1416" y="1536" type="line" smooth="yes"/>
      <point x="1764" y="1536"/>
      <point x="1920" y="1456"/>
      <point x="1920" y="1155" type="curve" smooth="yes"/>
      <point x="1920" y="973"/>
      <point x="1837" y="844"/>
      <point x="1664" y="832" type="curve"/>
      <point x="1891" y="809"/>
      <point x="1984" y="658"/>
      <point x="1984" y="448" type="curve" smooth="yes"/>
      <point x="1984" y="82"/>
      <point x="1836" y="0"/>
      <point x="1331" y="0" type="curve" smooth="yes"/>
      <point x="192" y="0" type="line"/>
      <point x="192" y="1536" type="line"/>
    </contour>
    <contour>
      <point x="1331" y="160" type="line" smooth="yes"/>
      <point x="1696" y="160"/>
      <point x="1792" y="174"/>
      <point x="1792" y="448" type="curve" smooth="yes"/>
      <point x="1792" y="730"/>
      <point x="1564" y="736"/>
      <point x="1279" y="736" type="curve" smooth="yes"/>
      <point x="384" y="736" type="line"/>
      <point x="384" y="160" type="line"/>
    </contour>
    <contour>
      <point x="1279" y="896" type="line" smooth="yes"/>
      <point x="1577" y="896"/>
      <point x="1728" y="882"/>
      <point x="1728" y="1155" type="curve" smooth="yes"/>
      <point x="1728" y="1357"/>
      <point x="1654" y="1376"/>
      <point x="1416" y="1376" type="curve" smooth="yes"/>
      <point x="384" y="1376" type="line"/>
      <point x="384" y="896" type="line"/>
    </contour>
  </outline>
</glyph>
<glyph name="C" format="1">
  <advance width="2145"/>
  <unicode hex="0043"/>
  <outline>
    <contour>
      <point x="1171" y="1568" type="line"/>
      <point x="1171" y="1402" type="line"/>
      <point x="871" y="1402" type="line"/>
      <point x="394" y="1402"/>
      <point x="320" y="1374"/>
      <point x="320" y="788" type="curve"/>
      <point x="128" y="748" type="line"/>
      <point x="128" y="788" type="line"/>
      <point x="128" y="1467"/>
      <point x="271" y="1568"/>
      <point x="871" y="1568" type="curve"/>
    </contour>
    <contour>
      <point x="271" y="-32"/>
      <point x="128" y="89"/>
      <point x="128" y="748" type="curve"/>
      <point x="320" y="788" type="line"/>
      <point x="320" y="748" type="line"/>
      <point x="320" y="182"/>
      <point x="394" y="134"/>
      <point x="871" y="134" type="curve"/>
      <point x="1171" y="134" type="line"/>
      <point x="1171" y="-32" type="line"/>
      <point x="871" y="-32" type="line"/>
    </contour>
    <contour>
      <point x="2014" y="519" type="line"/>
      <point x="2014" y="29"/>
      <point x="1822" y="-32"/>
      <point x="1274" y="-32" type="curve"/>
      <point x="974" y="-32" type="line"/>
      <point x="974" y="134" type="line"/>
      <point x="1274" y="134" type="line"/>
      <point x="1702" y="134"/>
      <point x="1822" y="133"/>
      <point x="1822" y="519" type="curve"/>
    </contour>
    <contour>
      <point x="1822" y="1393"/>
      <point x="1702" y="1402"/>
      <point x="1274" y="1402" type="curve"/>
      <point x="974" y="1402" type="line"/>
      <point x="974" y="1568" type="line"/>
      <point x="1274" y="1568" type="line"/>
      <point x="1822" y="1568"/>
      <point x="2014" y="1497"/>
      <point x="2014" y="1007" type="curve"/>
      <point x="1822" y="1007" type="line"/>
    </contour>
  </outline>
</glyph>
<glyph name="D" format="1">
  <advance width="2207"/>
  <unicode hex="0044"/>
  <outline>
    <contour>
      <point x="1233" y="0" type="line"/>
      <point x="196" y="0" type="line"/>
      <point x="196" y="1536" type="line"/>
      <point x="1233" y="1536" type="line"/>
      <point x="1233" y="1370" type="line"/>
      <point x="388" y="1370" type="line"/>
      <point x="388" y="166" type="line"/>
      <point x="1233" y="166" type="line"/>
    </contour>
    <contour>
      <point x="1936" y="1536"/>
      <point x="2079" y="1435"/>
      <point x="2079" y="788" type="curve"/>
      <point x="2079" y="748" type="line"/>
      <point x="1887" y="788" type="line"/>
      <point x="1887" y="1342"/>
      <point x="1813" y="1370"/>
      <point x="1336" y="1370" type="curve"/>
      <point x="1042" y="1370" type="line"/>
      <point x="1042" y="1536" type="line"/>
      <point x="1336" y="1536" type="line"/>
    </contour>
    <contour>
      <point x="1042" y="0" type="line"/>
      <point x="1042" y="166" type="line"/>
      <point x="1336" y="166" type="line"/>
      <point x="1813" y="166"/>
      <point x="1887" y="214"/>
      <point x="1887" y="748" type="curve"/>
      <point x="1887" y="788" type="line"/>
      <point x="2079" y="748" type="line"/>
      <point x="2079" y="121"/>
      <point x="1936" y="0"/>
      <point x="1336" y="0" type="curve"/>
    </contour>
  </outline>
</glyph>
<glyph name="E" format="1">
  <advance width="1792"/>
  <unicode hex="0045"/>
  <outline>
    <contour>
      <point x="192" y="0" type="line"/>
      <point x="192" y="1536" type="line"/>
      <point x="1700" y="1536" type="line"/>
      <point x="1700" y="1376" type="line"/>
      <point x="384" y="1376" type="line"/>
      <point x="384" y="864" type="line"/>
      <point x="1645" y="864" type="line"/>
      <point x="1645" y="704" type="line"/>
      <point x="384" y="704" type="line"/>
      <point x="384" y="160" type="line"/>
      <point x="1728" y="160" type="line"/>
      <point x="1728" y="0" type="line"/>
    </contour>
  </outline>
</glyph>
<glyph name="F" format="1">
  <advance width="1728"/>
  <unicode hex="0046"/>
  <outline>
    <contour>
      <point x="192" y="0" type="line"/>
      <point x="192" y="1536" type="line"/>
      <point x="1640" y="1536" type="line"/>
      <point x="1640" y="1376" type="line"/>
      <point x="384" y="1376" type="line"/>
      <point x="384" y="864" type="line"/>
      <point x="1583" y="864" type="line"/>
      <point x="1583" y="704" type="line"/>
      <point x="384" y="704" type="line"/>
      <point x="384" y="0" type="line"/>
    </contour>
  </outline>
</glyph>
<glyph name="G" format="1">
  <advance width="2177"/>
  <unicode hex="0047"/>
  <outline>
    <contour>
      <point x="1822" y="648" type="line"/>
      <point x="1087" y="648" type="line"/>
      <point x="1087" y="808" type="line"/>
      <point x="2014" y="808" type="line"/>
    </contour>
    <contour>
      <point x="1154" y="1568" type="line"/>
      <point x="1154" y="1402" type="line"/>
      <point x="871" y="1402" type="line"/>
      <point x="394" y="1402"/>
      <point x="320" y="1374"/>
      <point x="320" y="788" type="curve"/>
      <point x="128" y="748" type="line"/>
      <point x="128" y="788" type="line"/>
      <point x="128" y="1467"/>
      <point x="271" y="1568"/>
      <point x="871" y="1568" type="curve"/>
    </contour>
    <contour>
      <point x="271" y="-32"/>
      <point x="128" y="89"/>
      <point x="128" y="748" type="curve"/>
      <point x="320" y="788" type="line"/>
      <point x="320" y="748" type="line"/>
      <point x="320" y="182"/>
      <point x="394" y="134"/>
      <point x="871" y="134" type="curve"/>
      <point x="1171" y="134" type="line"/>
      <point x="1171" y="-32" type="line"/>
      <point x="871" y="-32" type="line"/>
    </contour>
    <contour>
      <point x="1822" y="648" type="line"/>
      <point x="2014" y="808" type="line"/>
      <point x="2014" y="589" type="line"/>
      <point x="2014" y="69"/>
      <point x="1862" y="-32"/>
      <point x="1314" y="-32" type="curve"/>
      <point x="974" y="-32" type="line"/>
      <point x="974" y="134" type="line"/>
      <point x="1314" y="134" type="line"/>
      <point x="1755" y="134"/>
      <point x="1822" y="173"/>
      <point x="1822" y="589" type="curve"/>
    </contour>
    <contour>
      <point x="1805" y="1395"/>
      <point x="1725" y="1402"/>
      <point x="1247" y="1402" type="curve"/>
      <point x="974" y="1402" type="line"/>
      <point x="974" y="1568" type="line"/>
      <point x="1247" y="1568" type="line"/>
      <point x="1875" y="1568"/>
      <point x="1997" y="1499"/>
      <point x="1997" y="1077" type="curve"/>
      <point x="1805" y="1077" type="line"/>
    </contour>
  </outline>
</glyph>
<glyph name="H" format="1">
  <advance width="2184"/>
  <unicode hex="0048"/>
  <outline>
    <contour>
      <point x="1796" y="1536" type="line"/>
      <point x="1988" y="1536" type="line"/>
      <point x="1988" y="0" type="line"/>
      <point x="1796" y="0" type="line"/>
      <point x="1796" y="704" type="line"/>
      <point x="388" y="704" type="line"/>
      <point x="388" y="0" type="line"/>
      <point x="196" y="0" type="line"/>
      <point x="196" y="1536" type="line"/>
      <point x="388" y="1536" type="line"/>
      <point x="388" y="864" type="line"/>
      <point x="1796" y="864" type="line"/>
    </contour>
  </outline>
</glyph>
<glyph name="J" format="1">
  <advance width="1715"/>
  <unicode hex="004A"/>
  <outline>
    <contour>
      <point x="1024" y="156" type="line" smooth="yes"/>
      <point x="1255" y="156"/>
      <point x="1344" y="223"/>
      <point x="1344" y="448" type="curve" smooth="yes"/>
      <point x="1344" y="1536" type="line"/>
      <point x="1536" y="1536" type="line"/>
      <point x="1536" y="448" type="line" smooth="yes"/>
      <point x="1536" y="286"/>
      <point x="1499" y="171"/>
      <point x="1424" y="104" type="curve" smooth="yes"/>
      <point x="1347" y="35"/>
      <point x="1214" y="0"/>
      <point x="1024" y="0" type="curve" smooth="yes"/>
      <point x="576" y="0" type="line" smooth="yes"/>
      <point x="321" y="0"/>
      <point x="179" y="56"/>
      <point x="144" y="270" type="curve" smooth="yes"/>
      <point x="133" y="335"/>
      <point x="128" y="416"/>
      <point x="128" y="512" type="curve" smooth="yes"/>
      <point x="128" y="576" type="line"/>
      <point x="320" y="576" type="line"/>
      <point x="320" y="512" type="line" smooth="yes"/>
      <point x="320" y="359"/>
      <point x="339" y="260"/>
      <point x="376" y="214" type="curve" smooth="yes"/>
      <point x="417" y="163"/>
      <point x="483" y="156"/>
      <point x="576" y="156" type="curve" smooth="yes"/>
    </contour>
  </outline>
</glyph>
<glyph name="K" format="1">
  <advance width="2016"/>
  <unicode hex="004B"/>
  <outline>
    <contour>
      <point x="1632" y="1536" type="line"/>
      <point x="1920" y="1536" type="line"/>
      <point x="761" y="735" type="line"/>
      <point x="761" y="834" type="line"/>
      <point x="1952" y="0" type="line"/>
      <point x="1664" y="0" type="line"/>
      <point x="569" y="753" type="line"/>
      <point x="726" y="704" type="line"/>
      <point x="298" y="704" type="line"/>
      <point x="384" y="790" type="line"/>
      <point x="384" y="0" type="line"/>
      <point x="192" y="0" type="line"/>
      <point x="192" y="1536" type="line"/>
      <point x="384" y="1536" type="line"/>
      <point x="384" y="778" type="line"/>
      <point x="298" y="864" type="line"/>
      <point x="726" y="864" type="line"/>
      <point x="568" y="816" type="line"/>
    </contour>
  </outline>
</glyph>
<glyph name="L" format="1">
  <advance width="1664"/>
  <unicode hex="004C"/>
  <outline>
    <contour>
      <point x="192" y="0" type="line"/>
      <point x="192" y="1536" type="line"/>
      <point x="384" y="1536" type="line"/>
      <point x="384" y="160" type="line"/>
      <point x="1600" y="160" type="line"/>
      <point x="1600" y="0" type="line"/>
    </contour>
  </outline>
</glyph>
<glyph name="M" format="1">
  <advance width="2808"/>
  <unicode hex="004D"/>
  <outline>
    <contour>
      <point x="388" y="1362" type="line"/>
      <point x="388" y="0" type="line"/>
      <point x="196" y="0" type="line"/>
      <point x="196" y="1536" type="line"/>
      <point x="482" y="1536" type="line"/>
      <point x="1411" y="283" type="line"/>
      <point x="2326" y="1536" type="line"/>
      <point x="2612" y="1536" type="line"/>
      <point x="2612" y="0" type="line"/>
      <point x="2420" y="0" type="line"/>
      <point x="2420" y="1362" type="line"/>
      <point x="1503" y="101" type="line"/>
      <point x="1329" y="101" type="line"/>
    </contour>
  </outline>
</glyph>
<glyph name="N" format="1">
  <advance width="2321"/>
  <unicode hex="004E"/>
  <outline>
    <contour>
      <point x="384" y="1310" type="line"/>
      <point x="384" y="0" type="line"/>
      <point x="192" y="0" type="line"/>
      <point x="192" y="1536" type="line"/>
      <point x="392" y="1536" type="line"/>
      <point x="1935" y="237" type="line"/>
      <point x="1937" y="237" type="line"/>
      <point x="1937" y="1536" type="line"/>
      <point x="2129" y="1536" type="line"/>
      <point x="2129" y="0" type="line"/>
      <point x="1929" y="0" type="line"/>
      <point x="386" y="1310" type="line"/>
    </contour>
  </outline>
</glyph>
<glyph name="O" format="1">
  <advance width="2145"/>
  <unicode hex="004F"/>
  <outline>
    <contour>
      <point x="1171" y="1568" type="line"/>
      <point x="1171" y="1402" type="line"/>
      <point x="871" y="1402" type="line"/>
      <point x="394" y="1402"/>
      <point x="320" y="1374"/>
      <point x="320" y="788" type="curve"/>
      <point x="128" y="748" type="line"/>
      <point x="128" y="788" type="line"/>
      <point x="128" y="1467"/>
      <point x="271" y="1568"/>
      <point x="871" y="1568" type="curve"/>
    </contour>
    <contour>
      <point x="271" y="-32"/>
      <point x="128" y="89"/>
      <point x="128" y="748" type="curve"/>
      <point x="320" y="788" type="line"/>
      <point x="320" y="748" type="line"/>
      <point x="320" y="182"/>
      <point x="394" y="134"/>
      <point x="871" y="134" type="curve"/>
      <point x="1171" y="134" type="line"/>
      <point x="1171" y="-32" type="line"/>
      <point x="871" y="-32" type="line"/>
    </contour>
    <contour>
      <point x="1874" y="1568"/>
      <point x="2017" y="1467"/>
      <point x="2017" y="788" type="curve"/>
      <point x="2017" y="748" type="line"/>
      <point x="1825" y="788" type="line"/>
      <point x="1825" y="1374"/>
      <point x="1751" y="1402"/>
      <point x="1274" y="1402" type="curve"/>
      <point x="974" y="1402" type="line"/>
      <point x="974" y="1568" type="line"/>
      <point x="1274" y="1568" type="line"/>
    </contour>
    <contour>
      <point x="974" y="-32" type="line"/>
      <point x="974" y="134" type="line"/>
      <point x="1274" y="134" type="line"/>
      <point x="1751" y="134"/>
      <point x="1825" y="182"/>
      <point x="1825" y="748" type="curve"/>
      <point x="1825" y="788" type="line"/>
      <point x="2017" y="748" type="line"/>
      <point x="2017" y="89"/>
      <point x="1874" y="-32"/>
      <point x="1274" y="-32" type="curve"/>
    </contour>
  </outline>
</glyph>
<glyph name="P" format="1">
  <advance width="1991"/>
  <unicode hex="0050"/>
  <outline>
    <contour>
      <point x="1107" y="592" type="line"/>
      <point x="196" y="592" type="line"/>
      <point x="196" y="1536" type="line"/>
      <point x="1107" y="1536" type="line"/>
      <point x="1107" y="1370" type="line"/>
      <point x="388" y="1370" type="line"/>
      <point x="388" y="758" type="line"/>
      <point x="1107" y="758" type="line"/>
    </contour>
    <contour>
      <point x="1824" y="1536"/>
      <point x="1916" y="1431"/>
      <point x="1916" y="1084" type="curve"/>
      <point x="1916" y="1044" type="line"/>
      <point x="1724" y="1084" type="line"/>
      <point x="1724" y="1338"/>
      <point x="1664" y="1370"/>
      <point x="1187" y="1370" type="curve"/>
      <point x="1026" y="1370" type="line"/>
      <point x="1026" y="1536" type="line"/>
      <point x="1224" y="1536" type="line"/>
    </contour>
    <contour>
      <point x="1026" y="592" type="line"/>
      <point x="1026" y="758" type="line"/>
      <point x="1187" y="758" type="line"/>
      <point x="1664" y="758"/>
      <point x="1724" y="806"/>
      <point x="1724" y="1044" type="curve"/>
      <point x="1724" y="1084" type="line"/>
      <point x="1916" y="1044" type="line"/>
      <point x="1916" y="713"/>
      <point x="1818" y="592"/>
      <point x="1218" y="592" type="curve"/>
    </contour>
    <contour>
      <point x="388" y="649" type="line"/>
      <point x="388" y="0" type="line"/>
      <point x="196" y="0" type="line"/>
      <point x="196" y="649" type="line"/>
    </contour>
  </outline>
</glyph>
<glyph name="Q" format="1">
  <advance width="2145"/>
  <unicode hex="0051"/>
  <outline>
    <contour>
      <point x="2145" y="-93" type="line"/>
      <point x="2048" y="-212" type="line"/>
      <point x="1107" y="525" type="line"/>
      <point x="1204" y="644" type="line"/>
    </contour>
    <component base="O"/>
  </outline>
</glyph>
<glyph name="S" format="1">
  <advance width="2142"/>
  <unicode hex="0053"/>
  <outline>
    <contour>
      <point x="796" y="881" type="line" smooth="yes"/>
      <point x="359" y="887"/>
      <point x="325" y="916"/>
      <point x="325" y="1132" type="curve"/>
      <point x="133" y="1132" type="line"/>
      <point x="133" y="813"/>
      <point x="210" y="718"/>
      <point x="760" y="710" type="curve" smooth="yes"/>
      <point x="1316" y="702" type="line" smooth="yes"/>
      <point x="1793" y="695"/>
      <point x="1827" y="681"/>
      <point x="1827" y="444" type="curve"/>
      <point x="2019" y="444" type="line"/>
      <point x="2019" y="774"/>
      <point x="1952" y="865"/>
      <point x="1392" y="873" type="curve" smooth="yes"/>
    </contour>
    <contour>
      <point x="1181" y="1568" type="line"/>
      <point x="1181" y="1402" type="line"/>
      <point x="866" y="1402" type="line"/>
      <point x="389" y="1402"/>
      <point x="325" y="1388"/>
      <point x="325" y="1132" type="curve"/>
      <point x="133" y="1132" type="line"/>
      <point x="133" y="1481"/>
      <point x="256" y="1568"/>
      <point x="856" y="1568" type="curve"/>
    </contour>
    <contour>
      <point x="976" y="-32" type="line"/>
      <point x="976" y="134" type="line"/>
      <point x="1311" y="134" type="line"/>
      <point x="1788" y="134"/>
      <point x="1827" y="178"/>
      <point x="1827" y="444" type="curve"/>
      <point x="2019" y="444" type="line"/>
      <point x="2019" y="85"/>
      <point x="1921" y="-32"/>
      <point x="1321" y="-32" type="curve"/>
    </contour>
    <contour>
      <point x="325" y="133"/>
      <point x="425" y="134"/>
      <point x="853" y="134" type="curve"/>
      <point x="1173" y="134" type="line"/>
      <point x="1173" y="-32" type="line"/>
      <point x="853" y="-32" type="line"/>
      <point x="305" y="-32"/>
      <point x="133" y="29"/>
      <point x="133" y="509" type="curve"/>
      <point x="325" y="509" type="line"/>
    </contour>
    <contour>
      <point x="1797" y="1433"/>
      <point x="1677" y="1402"/>
      <point x="1284" y="1402" type="curve"/>
      <point x="979" y="1402" type="line"/>
      <point x="979" y="1568" type="line"/>
      <point x="1284" y="1568" type="line"/>
      <point x="1827" y="1568"/>
      <point x="1989" y="1537"/>
      <point x="1989" y="1077" type="curve"/>
      <point x="1797" y="1077" type="line"/>
    </contour>
  </outline>
</glyph>
<glyph name="T" format="1">
  <advance width="1916"/>
  <unicode hex="0054"/>
  <outline>
    <contour>
      <point x="1822" y="1536" type="line"/>
      <point x="1822" y="1376" type="line"/>
      <point x="1054" y="1376" type="line"/>
      <point x="1054" y="0" type="line"/>
      <point x="862" y="0" type="line"/>
      <point x="862" y="1376" type="line"/>
      <point x="94" y="1376" type="line"/>
      <point x="94" y="1536" type="line"/>
    </contour>
  </outline>
</glyph>
<glyph name="U" format="1">
  <advance width="2120"/>
  <unicode hex="0055"/>
  <outline>
    <contour>
      <point x="328" y="1536" type="line"/>
      <point x="328" y="788" type="line"/>
      <point x="136" y="748" type="line"/>
      <point x="136" y="1536" type="line"/>
    </contour>
    <contour>
      <point x="279" y="-32"/>
      <point x="136" y="89"/>
      <point x="136" y="748" type="curve"/>
      <point x="328" y="788" type="line"/>
      <point x="328" y="748" type="line" smooth="yes"/>
      <point x="328" y="181"/>
      <point x="404" y="134"/>
      <point x="879" y="134" type="curve"/>
      <point x="1171" y="134" type="line"/>
      <point x="1171" y="-32" type="line"/>
      <point x="879" y="-32" type="line"/>
    </contour>
    <contour>
      <point x="1984" y="748" type="line"/>
      <point x="1792" y="788" type="line"/>
      <point x="1792" y="1536" type="line"/>
      <point x="1984" y="1536" type="line"/>
    </contour>
    <contour>
      <point x="949" y="-32" type="line"/>
      <point x="949" y="134" type="line"/>
      <point x="1241" y="134" type="line"/>
      <point x="1716" y="134"/>
      <point x="1792" y="181"/>
      <point x="1792" y="748" type="curve" smooth="yes"/>
      <point x="1792" y="788" type="line"/>
      <point x="1984" y="748" type="line"/>
      <point x="1984" y="89"/>
      <point x="1841" y="-32"/>
      <point x="1241" y="-32" type="curve"/>
    </contour>
  </outline>
</glyph>
<glyph name="V" format="1">
  <advance width="2048"/>
  <unicode hex="0056"/>
  <outline>
    <contour>
      <point x="1760" y="1536" type="line"/>
      <point x="1977" y="1536" type="line"/>
      <point x="1152" y="0" type="line"/>
      <point x="896" y="0" type="line"/>
      <point x="68" y="1536" type="line"/>
      <point x="288" y="1536" type="line"/>
      <point x="1064" y="60" type="line"/>
      <point x="984" y="60" type="line"/>
    </contour>
  </outline>
</glyph>
<glyph name="W" format="1">
  <advance width="3328"/>
  <unicode hex="0057"/>
  <outline>
    <contour>
      <point x="1584" y="1536" type="line"/>
      <point x="1808" y="1536" type="line"/>
      <point x="2468" y="83" type="line"/>
      <point x="2397" y="83" type="line"/>
      <point x="3030" y="1536" type="line"/>
      <point x="3251" y="1536" type="line"/>
      <point x="2560" y="0" type="line"/>
      <point x="2304" y="0" type="line"/>
      <point x="1660" y="1423" type="line"/>
      <point x="1732" y="1423" type="line"/>
      <point x="1088" y="0" type="line"/>
      <point x="832" y="0" type="line"/>
      <point x="77" y="1536" type="line"/>
      <point x="298" y="1536" type="line"/>
      <point x="998" y="84" type="line"/>
      <point x="924" y="83" type="line"/>
    </contour>
  </outline>
</glyph>
<glyph name="X" format="1">
  <advance width="2176"/>
  <unicode hex="0058"/>
  <outline>
    <contour>
      <point x="1209" y="810" type="line"/>
      <point x="2112" y="0" type="line"/>
      <point x="1840" y="0" type="line"/>
      <point x="1075" y="686" type="line"/>
      <point x="336" y="0" type="line"/>
      <point x="64" y="0" type="line"/>
      <point x="937" y="810" type="line"/>
      <point x="128" y="1536" type="line"/>
      <point x="400" y="1536" type="line"/>
      <point x="1070" y="934" type="line"/>
      <point x="1719" y="1536" type="line"/>
      <point x="1991" y="1536" type="line"/>
    </contour>
  </outline>
</glyph>
<glyph name="Y" format="1">
  <advance width="2176"/>
  <unicode hex="0059"/>
  <outline>
    <contour>
      <point x="128" y="1536" type="line"/>
      <point x="384" y="1536" type="line"/>
      <point x="1088" y="784" type="line"/>
      <point x="1792" y="1536" type="line"/>
      <point x="2048" y="1536" type="line"/>
      <point x="1184" y="640" type="line"/>
      <point x="1184" y="0" type="line"/>
      <point x="992" y="0" type="line"/>
      <point x="992" y="640" type="line"/>
    </contour>
  </outline>
</glyph>
<glyph name="Z" format="1">
  <advance width="2046"/>
  <unicode hex="005A"/>
  <outline>
    <contour>
      <point x="128" y="0" type="line"/>
      <point x="128" y="160" type="line"/>
      <point x="1614" y="1376" type="line"/>
      <point x="192" y="1376" type="line"/>
      <point x="192" y="1536" type="line"/>
      <point x="1888" y="1536" type="line"/>
      <point x="1888" y="1376" type="line"/>
      <point x="394" y="160" type="line"/>
      <point x="1920" y="160" type="line"/>
      <point x="1920" y="0" type="line"/>
    </contour>
  </outline>
</glyph>
<glyph name="bracketleft" format="1">
  <advance width="832"/>
  <unicode hex="005B"/>
  <outline>
    <contour>
      <point x="128" y="1536" type="line"/>
      <point x="704" y="1536" type="line"/>
      <point x="704" y="1376" type="line"/>
      <point x="320" y="1376" type="line"/>
      <point x="320" y="160" type="line"/>
      <point x="704" y="160" type="line"/>
      <point x="704" y="0" type="line"/>
      <point x="128" y="0" type="line"/>
    </contour>
  </outline>
</glyph>
<glyph name="backslash" format="1">
  <advance width="1023"/>
  <unicode hex="005C"/>
  <outline>
    <contour>
      <point x="960" y="0" type="line"/>
      <point x="768" y="0" type="line"/>
      <point x="64" y="1536" type="line"/>
      <point x="256" y="1536" type="line"/>
    </contour>
  </outline>
</glyph>
<glyph name="bracketright" format="1">
  <advance width="832"/>
  <unicode hex="005D"/>
  <outline>
    <contour>
      <point x="704" y="0" type="line"/>
      <point x="128" y="0" type="line"/>
      <point x="128" y="160" type="line"/>
      <point x="512" y="160" type="line"/>
      <point x="512" y="1376" type="line"/>
      <point x="128" y="1376" type="line"/>
      <point x="128" y="1536" type="line"/>
      <point x="704" y="1536" type="line"/>
    </contour>
  </outline>
</glyph>
<glyph name="asciicircum" format="1">
  <advance width="1088"/>
  <unicode hex="005E"/>
  <outline>
    <contour>
      <point x="544" y="1408" type="line"/>
      <point x="192" y="896" type="line"/>
      <point x="64" y="992" type="line"/>
      <point x="448" y="1536" type="line"/>
      <point x="640" y="1536" type="line"/>
      <point x="1024" y="992" type="line"/>
      <point x="896" y="896" type="line"/>
    </contour>
  </outline>
</glyph>
<glyph name="underscore" format="1">
  <advance width="1088"/>
  <unicode hex="005F"/>
  <outline>
    <contour>
      <point x="0" y="0" type="line"/>
      <point x="1088" y="0" type="line"/>
      <point x="1088" y="-160" type="line"/>
      <point x="0" y="-160" type="line"/>
    </contour>
  </outline>
</glyph>
<glyph name="grave" format="1">
  <advance width="960"/>
  <unicode hex="0060"/>
  <outline>
    <contour>
      <point x="128" y="1664" type="line"/>
      <point x="256" y="1856" type="line"/>
      <point x="832" y="1376" type="line"/>
      <point x="768" y="1280" type="line"/>
    </contour>
  </outline>
</glyph>
<glyph name="a" format="1">
  <advance width="1560"/>
  <unicode hex="0061"/>
  <outline>
    <contour>
      <point x="736" y="669" type="curve" smooth="yes"/>
      <point x="1299" y="669"/>
      <point x="1269" y="573"/>
      <point x="1301" y="460" type="curve"/>
      <point x="1244" y="448" type="line"/>
      <point x="1247" y="987"/>
      <point x="1242" y="1024"/>
      <point x="813" y="1024" type="curve" smooth="yes"/>
      <point x="386" y="1024"/>
      <point x="369" y="996"/>
      <point x="369" y="852" type="curve"/>
      <point x="177" y="852" type="line"/>
      <point x="177" y="1141"/>
      <point x="312" y="1184"/>
      <point x="813" y="1184" type="curve" smooth="yes"/>
      <point x="1352" y="1184"/>
      <point x="1436" y="1072"/>
      <point x="1436" y="554" type="curve" smooth="yes"/>
      <point x="1436" y="0" type="line"/>
      <point x="1244" y="0" type="line"/>
      <point x="1244" y="224" type="line"/>
      <point x="1311" y="211" type="line"/>
      <point x="1259" y="41"/>
      <point x="1190" y="-22"/>
      <point x="736" y="-22" type="curve" smooth="yes"/>
      <point x="321" y="-22"/>
      <point x="129" y="13"/>
      <point x="129" y="321" type="curve" smooth="yes"/>
      <point x="129" y="634"/>
      <point x="302" y="669"/>
    </contour>
    <contour>
      <point x="375" y="134"/>
      <point x="736" y="134" type="curve" smooth="yes"/>
      <point x="1193" y="134"/>
      <point x="1244" y="139"/>
      <point x="1244" y="330" type="curve" smooth="yes"/>
      <point x="1244" y="504"/>
      <point x="1193" y="513"/>
      <point x="736" y="513" type="curve" smooth="yes"/>
      <point x="375" y="513"/>
      <point x="321" y="500"/>
      <point x="321" y="321" type="curve" smooth="yes"/>
      <point x="321" y="147"/>
    </contour>
  </outline>
</glyph>
<glyph name="b" format="1">
  <advance width="1638"/>
  <unicode hex="0062"/>
  <outline>
    <contour>
      <point x="324" y="0" type="line"/>
      <point x="132" y="0" type="line"/>
      <point x="132" y="1536" type="line"/>
      <point x="324" y="1536" type="line"/>
    </contour>
    <contour>
      <point x="225" y="582" type="line"/>
      <point x="225" y="1115"/>
      <point x="421" y="1184"/>
      <point x="837" y="1184" type="curve"/>
      <point x="837" y="1024" type="line"/>
      <point x="403" y="1024"/>
      <point x="324" y="972"/>
      <point x="324" y="582" type="curve"/>
    </contour>
    <contour>
      <point x="324" y="186"/>
      <point x="403" y="138"/>
      <point x="837" y="138" type="curve"/>
      <point x="837" y="-22" type="line"/>
      <point x="421" y="-22"/>
      <point x="225" y="43"/>
      <point x="225" y="582" type="curve"/>
      <point x="324" y="582" type="line"/>
    </contour>
    <contour>
      <point x="1350" y="972"/>
      <point x="1313" y="1024"/>
      <point x="837" y="1024" type="curve"/>
      <point x="837" y="1184" type="line"/>
      <point x="1353" y="1184"/>
      <point x="1542" y="1115"/>
      <point x="1542" y="582" type="curve"/>
      <point x="1350" y="582" type="line"/>
    </contour>
    <contour>
      <point x="1542" y="582" type="line"/>
      <point x="1542" y="43"/>
      <point x="1353" y="-22"/>
      <point x="837" y="-22" type="curve"/>
      <point x="837" y="138" type="line"/>
      <point x="1313" y="138"/>
      <point x="1350" y="186"/>
      <point x="1350" y="582" type="curve"/>
    </contour>
  </outline>
</glyph>
<glyph name="c" format="1">
  <advance width="1571"/>
  <unicode hex="0063"/>
  <outline>
    <contour>
      <point x="96" y="582" type="line"/>
      <point x="96" y="1115"/>
      <point x="285" y="1184"/>
      <point x="801" y="1184" type="curve"/>
      <point x="801" y="1024" type="line"/>
      <point x="325" y="1024"/>
      <point x="288" y="972"/>
      <point x="288" y="582" type="curve"/>
    </contour>
    <contour>
      <point x="288" y="186"/>
      <point x="325" y="138"/>
      <point x="801" y="138" type="curve"/>
      <point x="801" y="-22" type="line"/>
      <point x="285" y="-22"/>
      <point x="96" y="43"/>
      <point x="96" y="582" type="curve"/>
      <point x="288" y="582" type="line"/>
    </contour>
    <contour>
      <point x="1291" y="789" type="line"/>
      <point x="1291" y="992"/>
      <point x="1197" y="1024"/>
      <point x="801" y="1024" type="curve"/>
      <point x="801" y="1184" type="line"/>
      <point x="1263" y="1184"/>
      <point x="1475" y="1134"/>
      <point x="1475" y="789" type="curve"/>
    </contour>
    <contour>
      <point x="1475" y="384" type="line"/>
      <point x="1475" y="26"/>
      <point x="1268" y="-22"/>
      <point x="801" y="-22" type="curve"/>
      <point x="801" y="138" type="line"/>
      <point x="1204" y="138"/>
      <point x="1291" y="169"/>
      <point x="1291" y="384" type="curve"/>
    </contour>
  </outline>
</glyph>
<glyph name="d" format="1">
  <advance width="1638"/>
  <unicode hex="0064"/>
  <outline>
    <contour>
      <point x="1506" y="1536" type="line"/>
      <point x="1506" y="0" type="line"/>
      <point x="1314" y="0" type="line"/>
      <point x="1314" y="1536" type="line"/>
    </contour>
    <contour>
      <point x="1314" y="972"/>
      <point x="1235" y="1024"/>
      <point x="801" y="1024" type="curve"/>
      <point x="801" y="1184" type="line"/>
      <point x="1217" y="1184"/>
      <point x="1413" y="1115"/>
      <point x="1413" y="582" type="curve"/>
      <point x="1314" y="582" type="line"/>
    </contour>
    <contour>
      <point x="1413" y="582" type="line"/>
      <point x="1413" y="43"/>
      <point x="1217" y="-22"/>
      <point x="801" y="-22" type="curve"/>
      <point x="801" y="138" type="line"/>
      <point x="1235" y="138"/>
      <point x="1314" y="186"/>
      <point x="1314" y="582" type="curve"/>
    </contour>
    <contour>
      <point x="96" y="582" type="line"/>
      <point x="96" y="1115"/>
      <point x="285" y="1184"/>
      <point x="801" y="1184" type="curve"/>
      <point x="801" y="1024" type="line"/>
      <point x="325" y="1024"/>
      <point x="288" y="972"/>
      <point x="288" y="582" type="curve"/>
    </contour>
    <contour>
      <point x="288" y="186"/>
      <point x="325" y="138"/>
      <point x="801" y="138" type="curve"/>
      <point x="801" y="-22" type="line"/>
      <point x="285" y="-22"/>
      <point x="96" y="43"/>
      <point x="96" y="582" type="curve"/>
      <point x="288" y="582" type="line"/>
    </contour>
  </outline>
</glyph>
<glyph name="e" format="1">
  <advance width="1567"/>
  <unicode hex="0065"/>
  <outline>
    <contour>
      <point x="96" y="582" type="line"/>
      <point x="96" y="1115"/>
      <point x="277" y="1184"/>
      <point x="793" y="1184" type="curve"/>
      <point x="793" y="1024" type="line"/>
      <point x="317" y="1024"/>
      <point x="288" y="972"/>
      <point x="288" y="582" type="curve"/>
    </contour>
    <contour>
      <point x="288" y="186"/>
      <point x="322" y="138"/>
      <point x="798" y="138" type="curve"/>
      <point x="798" y="-22" type="line"/>
      <point x="282" y="-22"/>
      <point x="96" y="43"/>
      <point x="96" y="582" type="curve"/>
      <point x="288" y="582" type="line"/>
    </contour>
    <contour>
      <point x="1447" y="597" type="line"/>
      <point x="1263" y="597" type="line"/>
      <point x="1263" y="770" type="line"/>
      <point x="1263" y="973"/>
      <point x="1203" y="1024"/>
      <point x="793" y="1024" type="curve"/>
      <point x="793" y="1184" type="line"/>
      <point x="1235" y="1184"/>
      <point x="1447" y="1115"/>
      <point x="1447" y="770" type="curve"/>
    </contour>
    <contour>
      <point x="1447" y="342" type="line"/>
      <point x="1447" y="-2"/>
      <point x="1248" y="-22"/>
      <point x="798" y="-22" type="curve"/>
      <point x="798" y="138" type="line"/>
      <point x="1204" y="138"/>
      <point x="1268" y="157"/>
      <point x="1268" y="342" type="curve"/>
    </contour>
    <contour>
      <point x="1447" y="674" type="line"/>
      <point x="1447" y="523" type="line"/>
      <point x="198" y="523" type="line"/>
      <point x="198" y="674" type="line"/>
    </contour>
  </outline>
</glyph>
<glyph name="f" format="1">
  <advance width="1056"/>
  <unicode hex="0066"/>
  <outline>
    <contour>
      <point x="512" y="1006" type="line"/>
      <point x="512" y="0" type="line"/>
      <point x="320" y="0" type="line"/>
      <point x="320" y="1006" type="line"/>
      <point x="128" y="1006" type="line"/>
      <point x="128" y="1152" type="line"/>
      <point x="320" y="1152" type="line"/>
      <point x="320" y="1202" type="line" smooth="yes"/>
      <point x="320" y="1530"/>
      <point x="474" y="1608"/>
      <point x="833" y="1608" type="curve" smooth="yes"/>
      <point x="1056" y="1608" type="line"/>
      <point x="1056" y="1452" type="line"/>
      <point x="832" y="1452" type="line" smooth="yes"/>
      <point x="546" y="1452"/>
      <point x="512" y="1415"/>
      <point x="512" y="1202" type="curve" smooth="yes"/>
      <point x="512" y="1152" type="line"/>
      <point x="1056" y="1152" type="line"/>
      <point x="1056" y="1006" type="line"/>
    </contour>
  </outline>
</glyph>
<glyph name="g" format="1">
  <advance width="1612"/>
  <unicode hex="0067"/>
  <outline>
    <contour>
      <point x="1288" y="272" type="line"/>
      <point x="1480" y="272" type="line"/>
      <point x="1480" y="162" type="line" smooth="yes"/>
      <point x="1480" y="-381"/>
      <point x="1254" y="-439"/>
      <point x="835" y="-439" type="curve" smooth="yes"/>
      <point x="427" y="-439"/>
      <point x="153" y="-423"/>
      <point x="153" y="-137" type="curve"/>
      <point x="345" y="-137" type="line"/>
      <point x="345" y="-278"/>
      <point x="508" y="-279"/>
      <point x="835" y="-279" type="curve" smooth="yes"/>
      <point x="1157" y="-279"/>
      <point x="1288" y="-282"/>
      <point x="1288" y="130" type="curve"/>
    </contour>
    <contour>
      <point x="1480" y="1152" type="line"/>
      <point x="1480" y="122" type="line"/>
      <point x="1288" y="122" type="line"/>
      <point x="1288" y="1152" type="line"/>
    </contour>
    <contour>
      <point x="1288" y="964"/>
      <point x="1226" y="1014"/>
      <point x="792" y="1014" type="curve"/>
      <point x="792" y="1174" type="line"/>
      <point x="1208" y="1174"/>
      <point x="1387" y="1107"/>
      <point x="1387" y="584" type="curve"/>
      <point x="1288" y="584" type="line"/>
    </contour>
    <contour>
      <point x="1387" y="584" type="line"/>
      <point x="1387" y="93"/>
      <point x="1208" y="9"/>
      <point x="792" y="9" type="curve"/>
      <point x="792" y="169" type="line"/>
      <point x="1226" y="169"/>
      <point x="1288" y="236"/>
      <point x="1288" y="584" type="curve"/>
    </contour>
    <contour>
      <point x="100" y="584" type="line"/>
      <point x="100" y="1107"/>
      <point x="293" y="1174"/>
      <point x="792" y="1174" type="curve"/>
      <point x="792" y="1014" type="line"/>
      <point x="333" y="1014"/>
      <point x="292" y="964"/>
      <point x="292" y="584" type="curve"/>
    </contour>
    <contour>
      <point x="292" y="236"/>
      <point x="332" y="169"/>
      <point x="792" y="169" type="curve"/>
      <point x="792" y="9" type="line"/>
      <point x="292" y="9"/>
      <point x="100" y="93"/>
      <point x="100" y="584" type="curve"/>
      <point x="292" y="584" type="line"/>
    </contour>
  </outline>
</glyph>
<glyph name="i" format="1">
  <advance width="582"/>
  <unicode hex="0069"/>
  <outline>
    <contour>
      <point x="198" y="1152" type="line"/>
      <point x="390" y="1152" type="line"/>
      <point x="390" y="0" type="line"/>
      <point x="198" y="0" type="line"/>
    </contour>
    <contour>
      <point x="390" y="1344" type="line"/>
      <point x="198" y="1344" type="line"/>
      <point x="198" y="1536" type="line"/>
      <point x="390" y="1536" type="line"/>
    </contour>
  </outline>
</glyph>
<glyph name="j" format="1">
  <advance width="672"/>
  <unicode hex="006A"/>
  <outline>
    <contour>
      <point x="-37" y="-384" type="line"/>
      <point x="-37" y="-224" type="line"/>
      <point x="108" y="-224" type="line"/>
      <point x="237" y="-224"/>
      <point x="288" y="-193"/>
      <point x="288" y="-24" type="curve" smooth="yes"/>
      <point x="288" y="1152" type="line"/>
      <point x="480" y="1152" type="line"/>
      <point x="480" y="-24" type="line" smooth="yes"/>
      <point x="480" y="-266"/>
      <point x="382" y="-384"/>
      <point x="108" y="-384" type="curve"/>
    </contour>
    <contour>
      <point x="480" y="1344" type="line"/>
      <point x="288" y="1344" type="line"/>
      <point x="288" y="1536" type="line"/>
      <point x="480" y="1536" type="line"/>
    </contour>
  </outline>
</glyph>
<glyph name="k" format="1">
  <advance width="1414"/>
  <unicode hex="006B"/>
  <outline>
    <contour>
      <point x="134" y="1536" type="line"/>
      <point x="326" y="1536" type="line"/>
      <point x="326" y="562" type="line"/>
      <point x="253" y="601" type="line"/>
      <point x="1091" y="1152" type="line"/>
      <point x="1382" y="1152" type="line"/>
      <point x="494" y="561" type="line"/>
      <point x="496" y="664" type="line"/>
      <point x="1414" y="0" type="line"/>
      <point x="1128" y="0" type="line"/>
      <point x="257" y="642" type="line"/>
      <point x="326" y="676" type="line"/>
      <point x="326" y="0" type="line"/>
      <point x="134" y="0" type="line"/>
    </contour>
  </outline>
</glyph>
<glyph name="m" format="1">
  <advance width="2474"/>
  <unicode hex="006D"/>
  <outline>
    <contour>
      <point x="1145" y="0" type="line"/>
      <point x="1145" y="640" type="line" smooth="yes"/>
      <point x="1145" y="955"/>
      <point x="1056" y="1024"/>
      <point x="796" y="1024" type="curve" smooth="yes"/>
      <point x="456" y="1024"/>
      <point x="324" y="930"/>
      <point x="324" y="704" type="curve" smooth="yes"/>
      <point x="324" y="0" type="line"/>
      <point x="132" y="0" type="line"/>
      <point x="132" y="1152" type="line"/>
      <point x="324" y="1152" type="line"/>
      <point x="324" y="923" type="line"/>
      <point x="300" y="974" type="line"/>
      <point x="389" y="1113"/>
      <point x="501" y="1184"/>
      <point x="820" y="1184" type="curve" smooth="yes"/>
      <point x="1183" y="1184"/>
      <point x="1338" y="1054"/>
      <point x="1338" y="640" type="curve" smooth="yes"/>
      <point x="1337" y="0" type="line"/>
    </contour>
    <contour>
      <point x="2157" y="0" type="line"/>
      <point x="2157" y="640" type="line" smooth="yes"/>
      <point x="2157" y="955"/>
      <point x="2068" y="1024"/>
      <point x="1808" y="1024" type="curve" smooth="yes"/>
      <point x="1468" y="1024"/>
      <point x="1336" y="930"/>
      <point x="1336" y="704" type="curve"/>
      <point x="1252" y="909" type="line"/>
      <point x="1348" y="1103"/>
      <point x="1491" y="1184"/>
      <point x="1832" y="1184" type="curve" smooth="yes"/>
      <point x="2195" y="1184"/>
      <point x="2350" y="1054"/>
      <point x="2350" y="640" type="curve" smooth="yes"/>
      <point x="2349" y="0" type="line"/>
    </contour>
  </outline>
</glyph>
<glyph name="n" format="1">
  <advance width="1601"/>
  <unicode hex="006E"/>
  <outline>
    <contour>
      <point x="1284" y="0" type="line"/>
      <point x="1284" y="663" type="line" smooth="yes"/>
      <point x="1284" y="978"/>
      <point x="1195" y="1024"/>
      <point x="846" y="1024" type="curve" smooth="yes"/>
      <point x="446" y="1024"/>
      <point x="324" y="930"/>
      <point x="324" y="704" type="curve" smooth="yes"/>
      <point x="324" y="0" type="line"/>
      <point x="132" y="0" type="line"/>
      <point x="132" y="1152" type="line"/>
      <point x="324" y="1152" type="line"/>
      <point x="324" y="923" type="line"/>
      <point x="300" y="974" type="line"/>
      <point x="389" y="1113"/>
      <point x="501" y="1184"/>
      <point x="880" y="1184" type="curve" smooth="yes"/>
      <point x="1332" y="1184"/>
      <point x="1478" y="1077"/>
      <point x="1477" y="663" type="curve" smooth="yes"/>
      <point x="1476" y="0" type="line"/>
    </contour>
  </outline>
</glyph>
<glyph name="o" format="1">
  <advance width="1602"/>
  <unicode hex="006F"/>
  <outline>
    <contour>
      <point x="96" y="582" type="line"/>
      <point x="96" y="1105"/>
      <point x="285" y="1174"/>
      <point x="801" y="1174" type="curve"/>
      <point x="801" y="1014" type="line"/>
      <point x="325" y="1014"/>
      <point x="288" y="962"/>
      <point x="288" y="582" type="curve"/>
    </contour>
    <contour>
      <point x="288" y="186"/>
      <point x="325" y="138"/>
      <point x="801" y="138" type="curve"/>
      <point x="801" y="-22" type="line"/>
      <point x="285" y="-22"/>
      <point x="96" y="43"/>
      <point x="96" y="582" type="curve"/>
      <point x="288" y="582" type="line"/>
    </contour>
    <contour>
      <point x="1314" y="962"/>
      <point x="1277" y="1014"/>
      <point x="801" y="1014" type="curve"/>
      <point x="801" y="1174" type="line"/>
      <point x="1317" y="1174"/>
      <point x="1506" y="1105"/>
      <point x="1506" y="582" type="curve"/>
      <point x="1314" y="582" type="line"/>
    </contour>
    <contour>
      <point x="1506" y="582" type="line"/>
      <point x="1506" y="43"/>
      <point x="1317" y="-22"/>
      <point x="801" y="-22" type="curve"/>
      <point x="801" y="138" type="line"/>
      <point x="1277" y="138"/>
      <point x="1314" y="186"/>
      <point x="1314" y="582" type="curve"/>
    </contour>
  </outline>
</glyph>
<glyph name="p" format="1">
  <advance width="1638"/>
  <unicode hex="0070"/>
  <outline>
    <contour>
      <point x="324" y="-384" type="line"/>
      <point x="132" y="-384" type="line"/>
      <point x="132" y="1152" type="line"/>
      <point x="324" y="1152" type="line"/>
    </contour>
    <contour>
      <point x="225" y="582" type="line"/>
      <point x="225" y="1115"/>
      <point x="421" y="1184"/>
      <point x="837" y="1184" type="curve"/>
      <point x="837" y="1024" type="line"/>
      <point x="403" y="1024"/>
      <point x="324" y="972"/>
      <point x="324" y="582" type="curve"/>
    </contour>
    <contour>
      <point x="324" y="186"/>
      <point x="403" y="138"/>
      <point x="837" y="138" type="curve"/>
      <point x="837" y="-22" type="line"/>
      <point x="421" y="-22"/>
      <point x="225" y="43"/>
      <point x="225" y="582" type="curve"/>
      <point x="324" y="582" type="line"/>
    </contour>
    <contour>
      <point x="1350" y="972"/>
      <point x="1313" y="1024"/>
      <point x="837" y="1024" type="curve"/>
      <point x="837" y="1184" type="line"/>
      <point x="1353" y="1184"/>
      <point x="1542" y="1115"/>
      <point x="1542" y="582" type="curve"/>
      <point x="1350" y="582" type="line"/>
    </contour>
    <contour>
      <point x="1542" y="582" type="line"/>
      <point x="1542" y="43"/>
      <point x="1353" y="-22"/>
      <point x="837" y="-22" type="curve"/>
      <point x="837" y="138" type="line"/>
      <point x="1313" y="138"/>
      <point x="1350" y="186"/>
      <point x="1350" y="582" type="curve"/>
    </contour>
  </outline>
</glyph>
<glyph name="r" format="1">
  <advance width="986"/>
  <unicode hex="0072"/>
  <outline>
    <contour>
      <point x="869" y="1169" type="curve"/>
      <point x="869" y="1008" type="line"/>
      <point x="342" y="1008"/>
      <point x="340" y="946"/>
      <point x="340" y="704" type="curve" smooth="yes"/>
      <point x="340" y="0" type="line"/>
      <point x="148" y="0" type="line"/>
      <point x="148" y="1152" type="line"/>
      <point x="340" y="1152" type="line"/>
      <point x="340" y="923" type="line"/>
      <point x="316" y="954" type="line"/>
      <point x="418" y="1122"/>
      <point x="441" y="1168"/>
    </contour>
  </outline>
</glyph>
<glyph name="s" format="1">
  <advance width="1589"/>
  <unicode hex="0073"/>
  <outline>
    <contour>
      <point x="668" y="683" type="line" smooth="yes"/>
      <point x="334" y="687"/>
      <point x="312" y="697"/>
      <point x="312" y="851" type="curve"/>
      <point x="120" y="854" type="line"/>
      <point x="120" y="594"/>
      <point x="197" y="529"/>
      <point x="571" y="525" type="curve" smooth="yes"/>
      <point x="999" y="520" type="line" smooth="yes"/>
      <point x="1266" y="517"/>
      <point x="1286" y="491"/>
      <point x="1286" y="336" type="curve"/>
      <point x="1478" y="336" type="line"/>
      <point x="1478" y="614"/>
      <point x="1403" y="675"/>
      <point x="1048" y="679" type="curve" smooth="yes"/>
    </contour>
    <contour>
      <point x="1271" y="829" type="line"/>
      <point x="1271" y="992"/>
      <point x="1263" y="1025"/>
      <point x="820" y="1025" type="curve"/>
      <point x="810" y="1185" type="line"/>
      <point x="1374" y="1185"/>
      <point x="1455" y="1134"/>
      <point x="1455" y="829" type="curve"/>
    </contour>
    <contour>
      <point x="304" y="167"/>
      <point x="320" y="138"/>
      <point x="784" y="138" type="curve"/>
      <point x="779" y="-22" type="line"/>
      <point x="221" y="-22"/>
      <point x="120" y="36"/>
      <point x="120" y="364" type="curve"/>
      <point x="304" y="364" type="line"/>
    </contour>
    <contour>
      <point x="1478" y="336" type="line"/>
      <point x="1478" y="3"/>
      <point x="1297" y="-22"/>
      <point x="779" y="-22" type="curve"/>
      <point x="784" y="138" type="line"/>
      <point x="1264" y="138"/>
      <point x="1286" y="166"/>
      <point x="1286" y="336" type="curve"/>
    </contour>
    <contour>
      <point x="120" y="854" type="line"/>
      <point x="120" y="1187"/>
      <point x="309" y="1185"/>
      <point x="810" y="1185" type="curve"/>
      <point x="820" y="1025" type="line"/>
      <point x="349" y="1025"/>
      <point x="312" y="1015"/>
      <point x="312" y="851" type="curve"/>
    </contour>
  </outline>
</glyph>
<glyph name="t" format="1">
  <advance width="1297"/>
  <unicode hex="0074"/>
  <outline>
    <contour>
      <point x="1145" y="502" type="line"/>
      <point x="1145" y="59"/>
      <point x="1057" y="0"/>
      <point x="661" y="0" type="curve" smooth="yes"/>
      <point x="309" y="0"/>
      <point x="178" y="88"/>
      <point x="178" y="416" type="curve"/>
      <point x="178" y="1467" type="line"/>
      <point x="370" y="1467" type="line"/>
      <point x="370" y="1152" type="line"/>
      <point x="1079" y="1152" type="line"/>
      <point x="1079" y="994" type="line"/>
      <point x="370" y="994" type="line"/>
      <point x="370" y="416" type="line" smooth="yes"/>
      <point x="370" y="191"/>
      <point x="410" y="160"/>
      <point x="661" y="160" type="curve" smooth="yes"/>
      <point x="957" y="160"/>
      <point x="975" y="164"/>
      <point x="975" y="502" type="curve"/>
    </contour>
  </outline>
</glyph>
<glyph name="u" format="1">
  <advance width="1601"/>
  <unicode hex="0075"/>
  <outline>
    <contour>
      <point x="1277" y="1152" type="line"/>
      <point x="1277" y="458" type="line" smooth="yes"/>
      <point x="1277" y="232"/>
      <point x="1165" y="138"/>
      <point x="765" y="138" type="curve" smooth="yes"/>
      <point x="416" y="138"/>
      <point x="317" y="207"/>
      <point x="317" y="512" type="curve" smooth="yes"/>
      <point x="317" y="1152" type="line"/>
      <point x="125" y="1152" type="line"/>
      <point x="124" y="512" type="line" smooth="yes"/>
      <point x="123" y="108"/>
      <point x="279" y="-22"/>
      <point x="731" y="-22" type="curve" smooth="yes"/>
      <point x="1077" y="-22"/>
      <point x="1192" y="37"/>
      <point x="1277" y="153" type="curve"/>
      <point x="1277" y="0" type="line"/>
      <point x="1469" y="0" type="line"/>
      <point x="1469" y="1152" type="line"/>
    </contour>
  </outline>
</glyph>
<glyph name="v" format="1">
  <advance width="1588"/>
  <unicode hex="0076"/>
  <outline>
    <contour>
      <point x="666" y="0" type="line"/>
      <point x="64" y="1152" type="line"/>
      <point x="290" y="1152" type="line"/>
      <point x="794" y="144" type="line"/>
      <point x="796" y="144" type="line"/>
      <point x="1310" y="1152" type="line"/>
      <point x="1524" y="1152" type="line"/>
      <point x="922" y="0" type="line"/>
    </contour>
  </outline>
</glyph>
<glyph name="w" format="1">
  <advance width="2240"/>
  <unicode hex="0077"/>
  <outline>
    <contour>
      <point x="2170" y="1152" type="line"/>
      <point x="1728" y="0" type="line"/>
      <point x="1472" y="0" type="line"/>
      <point x="1121" y="933" type="line"/>
      <point x="1119" y="933" type="line"/>
      <point x="768" y="0" type="line"/>
      <point x="512" y="0" type="line"/>
      <point x="70" y="1152" type="line"/>
      <point x="288" y="1152" type="line"/>
      <point x="639" y="155" type="line"/>
      <point x="641" y="155" type="line"/>
      <point x="1024" y="1152" type="line"/>
      <point x="1216" y="1152" type="line"/>
      <point x="1595" y="155" type="line"/>
      <point x="1597" y="155" type="line"/>
      <point x="1952" y="1152" type="line"/>
    </contour>
  </outline>
</glyph>
<glyph name="x" format="1">
  <advance width="1628"/>
  <unicode hex="0078"/>
  <outline>
    <contour>
      <point x="1276" y="0" type="line"/>
      <point x="814" y="482" type="line"/>
      <point x="352" y="0" type="line"/>
      <point x="96" y="0" type="line"/>
      <point x="686" y="586" type="line"/>
      <point x="124" y="1152" type="line"/>
      <point x="380" y="1152" type="line"/>
      <point x="819" y="707" type="line"/>
      <point x="1248" y="1152" type="line"/>
      <point x="1504" y="1152" type="line"/>
      <point x="942" y="587" type="line"/>
      <point x="1532" y="0" type="line"/>
    </contour>
  </outline>
</glyph>
<glyph name="y" format="1">
  <advance width="1568"/>
  <unicode hex="0079"/>
  <outline>
    <contour>
      <point x="686" y="0" type="line"/>
      <point x="46" y="1152" type="line"/>
      <point x="266" y="1152" type="line"/>
      <point x="814" y="143" type="line"/>
      <point x="1275" y="1152" type="line"/>
      <point x="1500" y="1152" type="line"/>
      <point x="916" y="-64" type="line" smooth="yes"/>
      <point x="812" y="-280"/>
      <point x="731" y="-384"/>
      <point x="308" y="-384" type="curve"/>
      <point x="308" y="-224" type="line"/>
      <point x="582" y="-224"/>
      <point x="642" y="-219"/>
      <point x="750" y="0" type="curve"/>
    </contour>
  </outline>
</glyph>
<glyph name="z" format="1">
  <advance width="1472"/>
  <unicode hex="007A"/>
  <outline>
    <contour>
      <point x="192" y="1152" type="line"/>
      <point x="1344" y="1152" type="line"/>
      <point x="1344" y="992" type="line"/>
      <point x="382" y="143" type="line"/>
      <point x="1344" y="143" type="line"/>
      <point x="1344" y="0" type="line"/>
      <point x="128" y="0" type="line"/>
      <point x="128" y="160" type="line"/>
      <point x="1104" y="1011" type="line"/>
      <point x="192" y="1011" type="line"/>
    </contour>
  </outline>
</glyph>
<glyph name="braceleft" format="1">
  <advance width="960"/>
  <unicode hex="007B"/>
  <outline>
    <contour>
      <point x="128" y="680" type="line"/>
      <point x="128" y="760" type="line"/>
      <point x="308" y="760"/>
      <point x="320" y="759"/>
      <point x="320" y="855" type="curve" smooth="yes"/>
      <point x="322" y="1287" type="line" smooth="yes"/>
      <point x="323" y="1605"/>
      <point x="436" y="1642"/>
      <point x="832" y="1642" type="curve"/>
      <point x="832" y="1482" type="line"/>
      <point x="527" y="1482"/>
      <point x="513" y="1481"/>
      <point x="512" y="1267" type="curve" smooth="yes"/>
      <point x="510" y="852" type="line" smooth="yes"/>
      <point x="510" y="757"/>
      <point x="493" y="680"/>
      <point x="384" y="680" type="curve" smooth="yes"/>
    </contour>
    <contour>
      <point x="493" y="680"/>
      <point x="510" y="603"/>
      <point x="510" y="508" type="curve" smooth="yes"/>
      <point x="512" y="93" type="line" smooth="yes"/>
      <point x="513" y="-121"/>
      <point x="527" y="-122"/>
      <point x="832" y="-122" type="curve"/>
      <point x="832" y="-282" type="line"/>
      <point x="436" y="-282"/>
      <point x="323" y="-245"/>
      <point x="322" y="73" type="curve" smooth="yes"/>
      <point x="320" y="505" type="line" smooth="yes"/>
      <point x="320" y="601"/>
      <point x="308" y="600"/>
      <point x="128" y="600" type="curve"/>
      <point x="128" y="680" type="line"/>
      <point x="384" y="680" type="line" smooth="yes"/>
    </contour>
  </outline>
</glyph>
<glyph name="braceright" format="1">
  <advance width="960"/>
  <unicode hex="007D"/>
  <outline>
    <contour>
      <point x="467" y="680"/>
      <point x="450" y="757"/>
      <point x="450" y="852" type="curve" smooth="yes"/>
      <point x="448" y="1267" type="line" smooth="yes"/>
      <point x="447" y="1481"/>
      <point x="433" y="1482"/>
      <point x="128" y="1482" type="curve"/>
      <point x="128" y="1642" type="line"/>
      <point x="524" y="1642"/>
      <point x="637" y="1605"/>
      <point x="638" y="1287" type="curve" smooth="yes"/>
      <point x="640" y="855" type="line" smooth="yes"/>
      <point x="640" y="759"/>
      <point x="652" y="760"/>
      <point x="832" y="760" type="curve"/>
      <point x="832" y="680" type="line"/>
      <point x="576" y="680" type="line" smooth="yes"/>
    </contour>
    <contour>
      <point x="832" y="680" type="line"/>
      <point x="832" y="600" type="line"/>
      <point x="652" y="600"/>
      <point x="640" y="601"/>
      <point x="640" y="505" type="curve" smooth="yes"/>
      <point x="638" y="73" type="line" smooth="yes"/>
      <point x="637" y="-245"/>
      <point x="524" y="-282"/>
      <point x="128" y="-282" type="curve"/>
      <point x="128" y="-122" type="line"/>
      <point x="433" y="-122"/>
      <point x="447" y="-121"/>
      <point x="448" y="93" type="curve" smooth="yes"/>
      <point x="450" y="508" type="line" smooth="yes"/>
      <point x="450" y="603"/>
      <point x="467" y="680"/>
      <point x="576" y="680" type="curve" smooth="yes"/>
    </contour>
  </outline>
</glyph>
<glyph name="asciitilde" format="1">
  <advance width="1152"/>
  <unicode hex="007E"/>
  <outline>
    <contour>
      <point x="320" y="832" type="curve"/>
      <point x="128" y="832" type="line"/>
      <point x="128" y="997"/>
      <point x="237" y="1088"/>
      <point x="384" y="1088" type="curve" smooth="yes"/>
      <point x="454" y="1088"/>
      <point x="527" y="1072"/>
      <point x="603" y="1040" type="curve" smooth="yes"/>
      <point x="647" y="1021"/>
      <point x="701" y="992"/>
      <point x="754" y="992" type="curve" smooth="yes"/>
      <point x="818" y="992"/>
      <point x="832" y="1009"/>
      <point x="832" y="1088" type="curve"/>
      <point x="1024" y="1088" type="line"/>
      <point x="1024" y="1000"/>
      <point x="993" y="932"/>
      <point x="932" y="886" type="curve" smooth="yes"/>
      <point x="884" y="850"/>
      <point x="829" y="832"/>
      <point x="768" y="832" type="curve" smooth="yes"/>
      <point x="698" y="832"/>
      <point x="625" y="848"/>
      <point x="549" y="880" type="curve" smooth="yes"/>
      <point x="505" y="899"/>
      <point x="451" y="928"/>
      <point x="398" y="928" type="curve" smooth="yes"/>
      <point x="330" y="928"/>
      <point x="320" y="910"/>
    </contour>
  </outline>
</glyph>
<glyph name="sterling" format="1">
  <advance width="1663"/>
  <unicode hex="00A3"/>
  <outline>
    <contour>
      <point x="64" y="800" type="line"/>
      <point x="256" y="800" type="line"/>
      <point x="256" y="958" type="line" smooth="yes"/>
      <point x="256" y="1272"/>
      <point x="304" y="1439"/>
      <point x="522" y="1517" type="curve" smooth="yes"/>
      <point x="619" y="1552"/>
      <point x="765" y="1569"/>
      <point x="960" y="1569" type="curve" smooth="yes"/>
      <point x="1181" y="1569"/>
      <point x="1334" y="1538"/>
      <point x="1419" y="1474" type="curve" smooth="yes"/>
      <point x="1497" y="1416"/>
      <point x="1536" y="1315"/>
      <point x="1536" y="1173" type="curve"/>
      <point x="1344" y="1173" type="line"/>
      <point x="1344" y="1274"/>
      <point x="1338" y="1307"/>
      <point x="1294" y="1346" type="curve" smooth="yes"/>
      <point x="1278" y="1360"/>
      <point x="1256" y="1372"/>
      <point x="1228" y="1381" type="curve" smooth="yes"/>
      <point x="1171" y="1400"/>
      <point x="1091" y="1409"/>
      <point x="987" y="1409" type="curve" smooth="yes"/>
      <point x="883" y="1409"/>
      <point x="802" y="1406"/>
      <point x="744" y="1400" type="curve" smooth="yes"/>
      <point x="599" y="1385"/>
      <point x="501" y="1351"/>
      <point x="467" y="1231" type="curve" smooth="yes"/>
      <point x="454" y="1186"/>
      <point x="448" y="1095"/>
      <point x="448" y="958" type="curve" smooth="yes"/>
      <point x="448" y="800" type="line"/>
      <point x="1280" y="800" type="line"/>
      <point x="1280" y="640" type="line"/>
      <point x="448" y="640" type="line"/>
      <point x="448" y="160" type="line"/>
      <point x="1472" y="160" type="line"/>
      <point x="1472" y="0" type="line"/>
      <point x="256" y="0" type="line"/>
      <point x="256" y="640" type="line"/>
      <point x="64" y="640" type="line"/>
    </contour>
  </outline>
</glyph>
<glyph name="currency" format="1">
  <advance width="1280"/>
  <unicode hex="00A4"/>
  <outline>
    <contour>
      <point x="934" y="848" type="curve"/>
      <point x="1084" y="977" type="line"/>
      <point x="1168" y="880" type="line"/>
      <point x="1023" y="756" type="line"/>
      <point x="1066" y="691"/>
      <point x="1088" y="611"/>
      <point x="1088" y="514" type="curve" smooth="yes"/>
      <point x="1088" y="417"/>
      <point x="1066" y="335"/>
      <point x="1023" y="268" type="curve"/>
      <point x="1168" y="144" type="line"/>
      <point x="1084" y="47" type="line"/>
      <point x="933" y="175" type="line"/>
      <point x="858" y="122"/>
      <point x="761" y="96"/>
      <point x="639" y="96" type="curve" smooth="yes"/>
      <point x="517" y="96"/>
      <point x="420" y="123"/>
      <point x="346" y="176" type="curve"/>
      <point x="196" y="47" type="line"/>
      <point x="112" y="144" type="line"/>
      <point x="256" y="268" type="line"/>
      <point x="213" y="334"/>
      <point x="192" y="415"/>
      <point x="192" y="512" type="curve" smooth="yes"/>
      <point x="192" y="609"/>
      <point x="213" y="690"/>
      <point x="256" y="756" type="curve"/>
      <point x="112" y="880" type="line"/>
      <point x="196" y="977" type="line"/>
      <point x="346" y="848" type="line"/>
      <point x="423" y="901"/>
      <point x="521" y="928"/>
      <point x="640" y="928" type="curve" smooth="yes"/>
      <point x="759" y="928"/>
      <point x="857" y="901"/>
    </contour>
    <contour>
      <point x="896" y="512" type="curve" smooth="yes"/>
      <point x="896" y="682"/>
      <point x="805" y="768"/>
      <point x="640" y="768" type="curve" smooth="yes"/>
      <point x="470" y="768"/>
      <point x="384" y="684"/>
      <point x="384" y="512" type="curve" smooth="yes"/>
      <point x="384" y="341"/>
      <point x="469" y="256"/>
      <point x="640" y="256" type="curve" smooth="yes"/>
      <point x="810" y="256"/>
      <point x="896" y="341"/>
    </contour>
  </outline>
</glyph>
<glyph name="yen" format="1">
  <advance width="2048"/>
  <unicode hex="00A5"/>
  <outline>
    <contour>
      <point x="416" y="416" type="line"/>
      <point x="928" y="416" type="line"/>
      <point x="928" y="640" type="line"/>
      <point x="416" y="640" type="line"/>
      <point x="416" y="800" type="line"/>
      <point x="773" y="800" type="line"/>
      <point x="64" y="1536" type="line"/>
      <point x="320" y="1536" type="line"/>
      <point x="1024" y="768" type="line"/>
      <point x="1728" y="1536" type="line"/>
      <point x="1984" y="1536" type="line"/>
      <point x="1274" y="800" type="line"/>
      <point x="1632" y="800" type="line"/>
      <point x="1632" y="640" type="line"/>
      <point x="1120" y="640" type="line"/>
      <point x="1120" y="416" type="line"/>
      <point x="1632" y="416" type="line"/>
      <point x="1632" y="256" type="line"/>
      <point x="1120" y="256" type="line"/>
      <point x="1120" y="0" type="line"/>
      <point x="928" y="0" type="line"/>
      <point x="928" y="256" type="line"/>
      <point x="416" y="256" type="line"/>
    </contour>
  </outline>
</glyph>
<glyph name="brokenbar" format="1">
  <advance width="448"/>
  <unicode hex="00A6"/>
  <outline>
    <contour>
      <point x="128" y="896" type="line"/>
      <point x="128" y="1600" type="line"/>
      <point x="320" y="1600" type="line"/>
      <point x="320" y="896" type="line"/>
    </contour>
    <contour>
      <point x="128" y="-128" type="line"/>
      <point x="128" y="576" type="line"/>
      <point x="320" y="576" type="line"/>
      <point x="320" y="-128" type="line"/>
    </contour>
  </outline>
</glyph>
<glyph name="section" format="1">
  <advance width="1504"/>
  <unicode hex="00A7"/>
  <outline>
    <contour>
      <point x="129" y="1116" type="curve" smooth="yes"/>
      <point x="129" y="1345"/>
      <point x="236" y="1402"/>
      <point x="432" y="1446" type="curve" smooth="yes"/>
      <point x="509" y="1463"/>
      <point x="643" y="1472"/>
      <point x="833" y="1472" type="curve" smooth="yes"/>
      <point x="1034" y="1472"/>
      <point x="1175" y="1445"/>
      <point x="1255" y="1392" type="curve" smooth="yes"/>
      <point x="1334" y="1340"/>
      <point x="1373" y="1249"/>
      <point x="1373" y="1120" type="curve"/>
      <point x="1181" y="1120" type="line"/>
      <point x="1181" y="1251"/>
      <point x="1119" y="1291"/>
      <point x="1002" y="1304" type="curve" smooth="yes"/>
      <point x="957" y="1309"/>
      <point x="879" y="1312"/>
      <point x="767" y="1312" type="curve" smooth="yes"/>
      <point x="655" y="1312"/>
      <point x="561" y="1306"/>
      <point x="487" y="1292" type="curve" smooth="yes"/>
      <point x="381" y="1273"/>
      <point x="321" y="1240"/>
      <point x="321" y="1120" type="curve" smooth="yes"/>
      <point x="321" y="1049"/>
      <point x="334" y="1017"/>
      <point x="392" y="994" type="curve" smooth="yes"/>
      <point x="450" y="971"/>
      <point x="586" y="960"/>
      <point x="800" y="960" type="curve" smooth="yes"/>
      <point x="1183" y="960"/>
      <point x="1374" y="892"/>
      <point x="1374" y="757" type="curve" smooth="yes"/>
      <point x="1374" y="702"/>
      <point x="1345" y="633"/>
      <point x="1286" y="551" type="curve"/>
      <point x="1352" y="504"/>
      <point x="1376" y="435"/>
      <point x="1376" y="324" type="curve" smooth="yes"/>
      <point x="1376" y="95"/>
      <point x="1269" y="38"/>
      <point x="1073" y="-6" type="curve" smooth="yes"/>
      <point x="996" y="-23"/>
      <point x="862" y="-32"/>
      <point x="672" y="-32" type="curve" smooth="yes"/>
      <point x="471" y="-32"/>
      <point x="330" y="-5"/>
      <point x="250" y="48" type="curve" smooth="yes"/>
      <point x="171" y="100"/>
      <point x="132" y="191"/>
      <point x="132" y="320" type="curve"/>
      <point x="324" y="320" type="line"/>
      <point x="324" y="189"/>
      <point x="386" y="149"/>
      <point x="503" y="136" type="curve" smooth="yes"/>
      <point x="548" y="131"/>
      <point x="626" y="128"/>
      <point x="738" y="128" type="curve" smooth="yes"/>
      <point x="850" y="128"/>
      <point x="944" y="134"/>
      <point x="1018" y="148" type="curve" smooth="yes"/>
      <point x="1056" y="155"/>
      <point x="1086" y="164"/>
      <point x="1108" y="175" type="curve" smooth="yes"/>
      <point x="1171" y="206"/>
      <point x="1184" y="243"/>
      <point x="1184" y="337" type="curve" smooth="yes"/>
      <point x="1184" y="434"/>
      <point x="1117" y="453"/>
      <point x="1028" y="466" type="curve" smooth="yes"/>
      <point x="936" y="479"/>
      <point x="872" y="480"/>
      <point x="775" y="480" type="curve" smooth="yes"/>
      <point x="639" y="480" type="line" smooth="yes"/>
      <point x="521" y="480"/>
      <point x="418" y="489"/>
      <point x="329" y="507" type="curve" smooth="yes"/>
      <point x="286" y="516"/>
      <point x="252" y="527"/>
      <point x="226" y="540" type="curve" smooth="yes"/>
      <point x="167" y="569"/>
      <point x="128" y="604"/>
      <point x="128" y="699" type="curve" smooth="yes"/>
      <point x="128" y="750"/>
      <point x="159" y="813"/>
      <point x="220" y="887" type="curve"/>
      <point x="154" y="935"/>
      <point x="129" y="1004"/>
    </contour>
    <contour>
      <point x="1153" y="607" type="curve"/>
      <point x="1175" y="651"/>
      <point x="1186" y="686"/>
      <point x="1186" y="712" type="curve" smooth="yes"/>
      <point x="1186" y="728"/>
      <point x="1179" y="742"/>
      <point x="1166" y="754" type="curve" smooth="yes"/>
      <point x="1153" y="766"/>
      <point x="1125" y="777"/>
      <point x="1082" y="786" type="curve" smooth="yes"/>
      <point x="1039" y="795"/>
      <point x="945" y="800"/>
      <point x="801" y="800" type="curve" smooth="yes"/>
      <point x="595" y="800"/>
      <point x="445" y="811"/>
      <point x="352" y="832" type="curve"/>
      <point x="339" y="798"/>
      <point x="321" y="768"/>
      <point x="321" y="728" type="curve" smooth="yes"/>
      <point x="321" y="678"/>
      <point x="354" y="667"/>
      <point x="409" y="654" type="curve" smooth="yes"/>
      <point x="448" y="645"/>
      <point x="546" y="640"/>
      <point x="704" y="640" type="curve" smooth="yes"/>
      <point x="909" y="640"/>
      <point x="1059" y="629"/>
    </contour>
  </outline>
</glyph>
<glyph name="dieresis" format="1">
  <advance width="1088"/>
  <unicode hex="00A8"/>
  <outline>
    <contour>
      <point x="256" y="1536" type="line"/>
      <point x="256" y="1344" type="line"/>
      <point x="64" y="1344" type="line"/>
      <point x="64" y="1536" type="line"/>
    </contour>
    <contour>
      <point x="1024" y="1536" type="line"/>
      <point x="1024" y="1344" type="line"/>
      <point x="832" y="1344" type="line"/>
      <point x="832" y="1536" type="line"/>
    </contour>
  </outline>
</glyph>
<glyph name="copyright" format="1">
  <advance width="1920"/>
  <unicode hex="00A9"/>
  <outline>
    <contour>
      <point x="960" y="1664" type="curve" smooth="yes"/>
      <point x="1190" y="1664"/>
      <point x="1365" y="1636"/>
      <point x="1488" y="1578" type="curve" smooth="yes"/>
      <point x="1605" y="1523"/>
      <point x="1687" y="1435"/>
      <point x="1733" y="1313" type="curve" smooth="yes"/>
      <point x="1772" y="1210"/>
      <point x="1792" y="1060"/>
      <point x="1792" y="864" type="curve" smooth="yes"/>
      <point x="1792" y="773"/>
      <point x="1788" y="691"/>
      <point x="1780" y="616" type="curve" smooth="yes"/>
      <point x="1763" y="464"/>
      <point x="1716" y="345"/>
      <point x="1640" y="260" type="curve" smooth="yes"/>
      <point x="1523" y="129"/>
      <point x="1297" y="64"/>
      <point x="960" y="64" type="curve" smooth="yes"/>
      <point x="730" y="64"/>
      <point x="555" y="92"/>
      <point x="432" y="150" type="curve" smooth="yes"/>
      <point x="315" y="205"/>
      <point x="233" y="293"/>
      <point x="187" y="415" type="curve" smooth="yes"/>
      <point x="148" y="518"/>
      <point x="128" y="668"/>
      <point x="128" y="864" type="curve" smooth="yes"/>
      <point x="128" y="955"/>
      <point x="132" y="1037"/>
      <point x="140" y="1112" type="curve" smooth="yes"/>
      <point x="157" y="1264"/>
      <point x="204" y="1383"/>
      <point x="280" y="1468" type="curve" smooth="yes"/>
      <point x="397" y="1599"/>
      <point x="623" y="1664"/>
    </contour>
    <contour>
      <point x="960" y="224" type="curve" smooth="yes"/>
      <point x="1144" y="224"/>
      <point x="1275" y="237"/>
      <point x="1354" y="262" type="curve" smooth="yes"/>
      <point x="1447" y="292"/>
      <point x="1512" y="352"/>
      <point x="1548" y="442" type="curve" smooth="yes"/>
      <point x="1583" y="529"/>
      <point x="1600" y="670"/>
      <point x="1600" y="864" type="curve" smooth="yes"/>
      <point x="1600" y="1058"/>
      <point x="1583" y="1199"/>
      <point x="1548" y="1286" type="curve" smooth="yes"/>
      <point x="1506" y="1391"/>
      <point x="1448" y="1436"/>
      <point x="1330" y="1474" type="curve" smooth="yes"/>
      <point x="1267" y="1494"/>
      <point x="1144" y="1504"/>
      <point x="960" y="1504" type="curve" smooth="yes"/>
      <point x="776" y="1504"/>
      <point x="645" y="1491"/>
      <point x="566" y="1466" type="curve" smooth="yes"/>
      <point x="473" y="1436"/>
      <point x="408" y="1376"/>
      <point x="372" y="1286" type="curve" smooth="yes"/>
      <point x="337" y="1199"/>
      <point x="320" y="1058"/>
      <point x="320" y="864" type="curve" smooth="yes"/>
      <point x="320" y="670"/>
      <point x="337" y="529"/>
      <point x="372" y="442" type="curve" smooth="yes"/>
      <point x="414" y="337"/>
      <point x="472" y="292"/>
      <point x="590" y="254" type="curve" smooth="yes"/>
      <point x="653" y="234"/>
      <point x="776" y="224"/>
    </contour>
    <contour>
      <point x="448" y="893" type="curve" smooth="yes"/>
      <point x="448" y="987"/>
      <point x="455" y="1064"/>
      <point x="469" y="1126" type="curve" smooth="yes"/>
      <point x="517" y="1337"/>
      <point x="693" y="1375"/>
      <point x="959" y="1375" type="curve" smooth="yes"/>
      <point x="1155" y="1375"/>
      <point x="1291" y="1348"/>
      <point x="1368" y="1292" type="curve" smooth="yes"/>
      <point x="1438" y="1241"/>
      <point x="1472" y="1153"/>
      <point x="1472" y="1027" type="curve"/>
      <point x="1312" y="1027" type="line"/>
      <point x="1312" y="1146"/>
      <point x="1290" y="1189"/>
      <point x="1204" y="1216" type="curve" smooth="yes"/>
      <point x="1128" y="1240"/>
      <point x="1068" y="1241"/>
      <point x="959" y="1241" type="curve" smooth="yes"/>
      <point x="916" y="1241" type="line" smooth="yes"/>
      <point x="830" y="1241"/>
      <point x="762" y="1230"/>
      <point x="714" y="1210" type="curve" smooth="yes"/>
      <point x="661" y="1188"/>
      <point x="637" y="1156"/>
      <point x="622" y="1097" type="curve" smooth="yes"/>
      <point x="614" y="1067"/>
      <point x="610" y="999"/>
      <point x="610" y="893" type="curve" smooth="yes"/>
      <point x="610" y="659"/>
      <point x="621" y="573"/>
      <point x="812" y="551" type="curve" smooth="yes"/>
      <point x="852" y="546"/>
      <point x="915" y="544"/>
      <point x="999" y="544" type="curve" smooth="yes"/>
      <point x="1083" y="544"/>
      <point x="1151" y="553"/>
      <point x="1204" y="570" type="curve" smooth="yes"/>
      <point x="1290" y="598"/>
      <point x="1312" y="636"/>
      <point x="1312" y="759" type="curve"/>
      <point x="1472" y="759" type="line"/>
      <point x="1472" y="633"/>
      <point x="1438" y="545"/>
      <point x="1368" y="494" type="curve" smooth="yes"/>
      <point x="1274" y="425"/>
      <point x="1133" y="410"/>
      <point x="956" y="410" type="curve" smooth="yes"/>
      <point x="853" y="410"/>
      <point x="768" y="417"/>
      <point x="702" y="432" type="curve" smooth="yes"/>
      <point x="493" y="479"/>
      <point x="448" y="633"/>
    </contour>
  </outline>
</glyph>
<glyph name="guillemotleft" format="1">
  <advance width="1344"/>
  <unicode hex="00AB"/>
  <outline>
    <contour>
      <point x="768" y="256" type="line"/>
      <point x="672" y="128" type="line"/>
      <point x="128" y="512" type="line"/>
      <point x="128" y="704" type="line"/>
      <point x="672" y="1088" type="line"/>
      <point x="768" y="960" type="line"/>
      <point x="256" y="608" type="line"/>
    </contour>
    <contour>
      <point x="1216" y="256" type="line"/>
      <point x="1120" y="128" type="line"/>
      <point x="576" y="512" type="line"/>
      <point x="576" y="704" type="line"/>
      <point x="1120" y="1088" type="line"/>
      <point x="1216" y="960" type="line"/>
      <point x="704" y="608" type="line"/>
    </contour>
  </outline>
</glyph>
<glyph name="logicalnot" format="1">
  <advance width="1216"/>
  <unicode hex="00AC"/>
  <outline>
    <contour>
      <point x="1088" y="640" type="line"/>
      <point x="896" y="640" type="line"/>
      <point x="896" y="928" type="line"/>
      <point x="128" y="928" type="line"/>
      <point x="128" y="1088" type="line"/>
      <point x="1088" y="1088" type="line"/>
    </contour>
  </outline>
</glyph>
<glyph name="softhyphen" format="1">
  <advance width="1024"/>
  <unicode hex="00AD"/>
  <outline>
    <contour>
      <point x="128" y="672" type="line"/>
      <point x="896" y="672" type="line"/>
      <point x="896" y="512" type="line"/>
      <point x="128" y="512" type="line"/>
    </contour>
  </outline>
</glyph>
<glyph name="registered" format="1">
  <advance width="1920"/>
  <unicode hex="00AE"/>
  <outline>
    <contour>
      <point x="1405" y="536" type="curve" smooth="yes"/>
      <point x="1405" y="384" type="line"/>
      <point x="1244" y="384" type="line"/>
      <point x="1244" y="536" type="line" smooth="yes"/>
      <point x="1244" y="707"/>
      <point x="1220" y="756"/>
      <point x="1087" y="786" type="curve" smooth="yes"/>
      <point x="1045" y="796"/>
      <point x="959" y="800"/>
      <point x="828" y="800" type="curve" smooth="yes"/>
      <point x="733" y="800" type="line"/>
      <point x="733" y="384" type="line"/>
      <point x="573" y="384" type="line"/>
      <point x="573" y="1376" type="line"/>
      <point x="860" y="1376" type="line" smooth="yes"/>
      <point x="1072" y="1376"/>
      <point x="1218" y="1351"/>
      <point x="1299" y="1302" type="curve" smooth="yes"/>
      <point x="1374" y="1256"/>
      <point x="1404" y="1193"/>
      <point x="1404" y="1078" type="curve" smooth="yes"/>
      <point x="1404" y="935"/>
      <point x="1303" y="869"/>
      <point x="1160" y="860" type="curve"/>
      <point x="1351" y="836"/>
      <point x="1405" y="754"/>
    </contour>
    <contour>
      <point x="733" y="1248" type="line"/>
      <point x="733" y="928" type="line"/>
      <point x="860" y="928" type="line" smooth="yes"/>
      <point x="1016" y="928"/>
      <point x="1120" y="939"/>
      <point x="1172" y="962" type="curve" smooth="yes"/>
      <point x="1223" y="984"/>
      <point x="1244" y="1019"/>
      <point x="1244" y="1087" type="curve" smooth="yes"/>
      <point x="1244" y="1155"/>
      <point x="1223" y="1189"/>
      <point x="1172" y="1212" type="curve" smooth="yes"/>
      <point x="1119" y="1236"/>
      <point x="1015" y="1248"/>
      <point x="860" y="1248" type="curve" smooth="yes"/>
    </contour>
    <contour>
      <point x="960" y="1664" type="curve" smooth="yes"/>
      <point x="1190" y="1664"/>
      <point x="1365" y="1636"/>
      <point x="1488" y="1578" type="curve" smooth="yes"/>
      <point x="1605" y="1523"/>
      <point x="1687" y="1435"/>
      <point x="1733" y="1313" type="curve" smooth="yes"/>
      <point x="1772" y="1210"/>
      <point x="1792" y="1060"/>
      <point x="1792" y="864" type="curve" smooth="yes"/>
      <point x="1792" y="773"/>
      <point x="1788" y="691"/>
      <point x="1780" y="616" type="curve" smooth="yes"/>
      <point x="1763" y="464"/>
      <point x="1716" y="345"/>
      <point x="1640" y="260" type="curve" smooth="yes"/>
      <point x="1523" y="129"/>
      <point x="1297" y="64"/>
      <point x="960" y="64" type="curve" smooth="yes"/>
      <point x="730" y="64"/>
      <point x="555" y="92"/>
      <point x="432" y="150" type="curve" smooth="yes"/>
      <point x="315" y="205"/>
      <point x="233" y="293"/>
      <point x="187" y="415" type="curve" smooth="yes"/>
      <point x="148" y="518"/>
      <point x="128" y="668"/>
      <point x="128" y="864" type="curve" smooth="yes"/>
      <point x="128" y="955"/>
      <point x="132" y="1037"/>
      <point x="140" y="1112" type="curve" smooth="yes"/>
      <point x="157" y="1264"/>
      <point x="204" y="1383"/>
      <point x="280" y="1468" type="curve" smooth="yes"/>
      <point x="397" y="1599"/>
      <point x="623" y="1664"/>
    </contour>
    <contour>
      <point x="960" y="224" type="curve" smooth="yes"/>
      <point x="1144" y="224"/>
      <point x="1275" y="237"/>
      <point x="1354" y="262" type="curve" smooth="yes"/>
      <point x="1447" y="292"/>
      <point x="1512" y="352"/>
      <point x="1548" y="442" type="curve" smooth="yes"/>
      <point x="1583" y="529"/>
      <point x="1600" y="670"/>
      <point x="1600" y="864" type="curve" smooth="yes"/>
      <point x="1600" y="1058"/>
      <point x="1583" y="1199"/>
      <point x="1548" y="1286" type="curve" smooth="yes"/>
      <point x="1506" y="1391"/>
      <point x="1448" y="1436"/>
      <point x="1330" y="1474" type="curve" smooth="yes"/>
      <point x="1267" y="1494"/>
      <point x="1144" y="1504"/>
      <point x="960" y="1504" type="curve" smooth="yes"/>
      <point x="776" y="1504"/>
      <point x="645" y="1491"/>
      <point x="566" y="1466" type="curve" smooth="yes"/>
      <point x="473" y="1436"/>
      <point x="408" y="1376"/>
      <point x="372" y="1286" type="curve" smooth="yes"/>
      <point x="337" y="1199"/>
      <point x="320" y="1058"/>
      <point x="320" y="864" type="curve" smooth="yes"/>
      <point x="320" y="670"/>
      <point x="337" y="529"/>
      <point x="372" y="442" type="curve" smooth="yes"/>
      <point x="414" y="337"/>
      <point x="472" y="292"/>
      <point x="590" y="254" type="curve" smooth="yes"/>
      <point x="653" y="234"/>
      <point x="776" y="224"/>
    </contour>
  </outline>
</glyph>
<glyph name="macron" format="1">
  <advance width="1024"/>
  <unicode hex="00AF"/>
  <outline>
    <contour>
      <point x="128" y="1344" type="line"/>
      <point x="128" y="1504" type="line"/>
      <point x="896" y="1504" type="line"/>
      <point x="896" y="1344" type="line"/>
    </contour>
  </outline>
</glyph>
<glyph name="twosuperior" format="1">
  <advance width="1344"/>
  <unicode hex="00B2"/>
  <outline>
    <contour>
      <point x="128" y="448" type="line"/>
      <point x="128" y="672" type="line" smooth="yes"/>
      <point x="128" y="753"/>
      <point x="144" y="812"/>
      <point x="178" y="849" type="curve" smooth="yes"/>
      <point x="223" y="899"/>
      <point x="313" y="936"/>
      <point x="448" y="962" type="curve" smooth="yes"/>
      <point x="834" y="1035" type="line" smooth="yes"/>
      <point x="971" y="1062"/>
      <point x="1024" y="1090"/>
      <point x="1024" y="1242" type="curve" smooth="yes"/>
      <point x="1024" y="1369"/>
      <point x="964" y="1398"/>
      <point x="842" y="1404" type="curve" smooth="yes"/>
      <point x="797" y="1406"/>
      <point x="727" y="1408"/>
      <point x="632" y="1408" type="curve" smooth="yes"/>
      <point x="537" y="1408"/>
      <point x="467" y="1404"/>
      <point x="420" y="1396" type="curve" smooth="yes"/>
      <point x="332" y="1382"/>
      <point x="320" y="1361"/>
      <point x="320" y="1248" type="curve"/>
      <point x="128" y="1248" type="line"/>
      <point x="128" y="1350"/>
      <point x="149" y="1425"/>
      <point x="190" y="1472" type="curve" smooth="yes"/>
      <point x="267" y="1560"/>
      <point x="408" y="1569"/>
      <point x="565" y="1569" type="curve" smooth="yes"/>
      <point x="608" y="1569"/>
      <point x="652" y="1568"/>
      <point x="697" y="1568" type="curve" smooth="yes"/>
      <point x="838" y="1568"/>
      <point x="989" y="1566"/>
      <point x="1082" y="1522" type="curve" smooth="yes"/>
      <point x="1186" y="1473"/>
      <point x="1216" y="1386"/>
      <point x="1216" y="1220" type="curve" smooth="yes"/>
      <point x="1216" y="1127"/>
      <point x="1194" y="1055"/>
      <point x="1150" y="1004" type="curve" smooth="yes"/>
      <point x="1102" y="947"/>
      <point x="1018" y="907"/>
      <point x="898" y="884" type="curve" smooth="yes"/>
      <point x="640" y="833" type="line" smooth="yes"/>
      <point x="520" y="809"/>
      <point x="446" y="792"/>
      <point x="416" y="782" type="curve" smooth="yes"/>
      <point x="332" y="755"/>
      <point x="320" y="733"/>
      <point x="320" y="608" type="curve"/>
      <point x="1186" y="608" type="line"/>
      <point x="1186" y="448" type="line"/>
    </contour>
  </outline>
</glyph>
<glyph name="threesuperior" format="1">
  <advance width="1471"/>
  <unicode hex="00B3"/>
  <outline>
    <contour>
      <point x="971" y="1377" type="curve" smooth="yes"/>
      <point x="909" y="1377"/>
      <point x="834" y="1376"/>
      <point x="705" y="1376" type="curve" smooth="yes"/>
      <point x="586" y="1376"/>
      <point x="503" y="1374"/>
      <point x="455" y="1370" type="curve" smooth="yes"/>
      <point x="422" y="1367"/>
      <point x="396" y="1362"/>
      <point x="378" y="1355" type="curve" smooth="yes"/>
      <point x="326" y="1336"/>
      <point x="320" y="1309"/>
      <point x="320" y="1218" type="curve"/>
      <point x="128" y="1218" type="line"/>
      <point x="128" y="1330"/>
      <point x="153" y="1409"/>
      <point x="202" y="1456" type="curve" smooth="yes"/>
      <point x="274" y="1525"/>
      <point x="403" y="1537"/>
      <point x="544" y="1537" type="curve" smooth="yes"/>
      <point x="628" y="1537"/>
      <point x="702" y="1536"/>
      <point x="839" y="1536" type="curve" smooth="yes"/>
      <point x="955" y="1536"/>
      <point x="1040" y="1533"/>
      <point x="1093" y="1526" type="curve" smooth="yes"/>
      <point x="1136" y="1521"/>
      <point x="1173" y="1512"/>
      <point x="1204" y="1499" type="curve" smooth="yes"/>
      <point x="1312" y="1455"/>
      <point x="1343" y="1362"/>
      <point x="1343" y="1204" type="curve" smooth="yes"/>
      <point x="1343" y="1070"/>
      <point x="1291" y="1010"/>
      <point x="1183" y="976" type="curve"/>
      <point x="1314" y="923"/>
      <point x="1343" y="882"/>
      <point x="1343" y="706" type="curve" smooth="yes"/>
      <point x="1343" y="416"/>
      <point x="1083" y="416"/>
      <point x="791" y="416" type="curve" smooth="yes"/>
      <point x="701" y="416"/>
      <point x="631" y="415"/>
      <point x="565" y="415" type="curve" smooth="yes"/>
      <point x="380" y="415"/>
      <point x="259" y="441"/>
      <point x="202" y="490" type="curve" smooth="yes"/>
      <point x="153" y="532"/>
      <point x="128" y="603"/>
      <point x="128" y="703" type="curve"/>
      <point x="320" y="703" type="line"/>
      <point x="320" y="595"/>
      <point x="358" y="589"/>
      <point x="455" y="582" type="curve" smooth="yes"/>
      <point x="525" y="577"/>
      <point x="593" y="576"/>
      <point x="671" y="576" type="curve" smooth="yes"/>
      <point x="770" y="576" type="line" smooth="yes"/>
      <point x="845" y="576"/>
      <point x="908" y="577"/>
      <point x="957" y="578" type="curve" smooth="yes"/>
      <point x="1006" y="579"/>
      <point x="1046" y="584"/>
      <point x="1074" y="594" type="curve" smooth="yes"/>
      <point x="1136" y="615"/>
      <point x="1150" y="657"/>
      <point x="1150" y="746" type="curve" smooth="yes"/>
      <point x="1150" y="794"/>
      <point x="1138" y="831"/>
      <point x="1115" y="857" type="curve" smooth="yes"/>
      <point x="1082" y="895"/>
      <point x="1028" y="896"/>
      <point x="959" y="896" type="curve" smooth="yes"/>
      <point x="768" y="896" type="line"/>
      <point x="768" y="1056" type="line"/>
      <point x="959" y="1056" type="line" smooth="yes"/>
      <point x="1100" y="1056"/>
      <point x="1150" y="1091"/>
      <point x="1150" y="1226" type="curve" smooth="yes"/>
      <point x="1150" y="1349"/>
      <point x="1095" y="1377"/>
    </contour>
  </outline>
</glyph>
<glyph name="acute" format="1">
  <advance width="960"/>
  <unicode hex="00B4"/>
  <outline>
    <contour>
      <point x="832" y="1664" type="line"/>
      <point x="192" y="1280" type="line"/>
      <point x="128" y="1376" type="line"/>
      <point x="704" y="1856" type="line"/>
    </contour>
  </outline>
</glyph>
<glyph name="paragraph" format="1">
  <advance width="1984"/>
  <unicode hex="00B6"/>
  <outline>
    <contour>
      <point x="1088" y="1376" type="line"/>
      <point x="1088" y="0" type="line"/>
      <point x="896" y="0" type="line"/>
      <point x="896" y="608" type="line"/>
      <point x="833" y="608" type="line" smooth="yes"/>
      <point x="627" y="608"/>
      <point x="471" y="626"/>
      <point x="365" y="663" type="curve" smooth="yes"/>
      <point x="313" y="681"/>
      <point x="271" y="703"/>
      <point x="240" y="730" type="curve" smooth="yes"/>
      <point x="151" y="807"/>
      <point x="128" y="922"/>
      <point x="128" y="1086" type="curve" smooth="yes"/>
      <point x="128" y="1245"/>
      <point x="148" y="1352"/>
      <point x="240" y="1424" type="curve" smooth="yes"/>
      <point x="335" y="1499"/>
      <point x="533" y="1536"/>
      <point x="833" y="1536" type="curve" smooth="yes"/>
      <point x="1856" y="1536" type="line"/>
      <point x="1856" y="1376" type="line"/>
      <point x="1664" y="1376" type="line"/>
      <point x="1664" y="0" type="line"/>
      <point x="1472" y="0" type="line"/>
      <point x="1472" y="1376" type="line"/>
    </contour>
  </outline>
</glyph>
<glyph name="periodcentered" format="1">
  <advance width="448"/>
  <unicode hex="00B7"/>
  <outline>
    <contour>
      <point x="320" y="896" type="line"/>
      <point x="320" y="704" type="line"/>
      <point x="128" y="704" type="line"/>
      <point x="128" y="896" type="line"/>
    </contour>
  </outline>
</glyph>
<glyph name="cedilla" format="1">
  <advance width="640"/>
  <unicode hex="00B8"/>
  <outline>
    <contour>
      <point x="256" y="-128" type="line"/>
      <point x="427" y="-128"/>
      <point x="512" y="-181"/>
      <point x="512" y="-288" type="curve" smooth="yes"/>
      <point x="512" y="-493"/>
      <point x="356" y="-544"/>
      <point x="128" y="-544" type="curve"/>
      <point x="128" y="-384" type="line"/>
      <point x="203" y="-384"/>
      <point x="249" y="-381"/>
      <point x="268" y="-374" type="curve" smooth="yes"/>
      <point x="303" y="-361"/>
      <point x="320" y="-332"/>
      <point x="320" y="-288" type="curve" smooth="yes"/>
      <point x="320" y="-267"/>
      <point x="313" y="-253"/>
      <point x="299" y="-246" type="curve" smooth="yes"/>
      <point x="270" y="-232"/>
      <point x="213" y="-224"/>
      <point x="128" y="-224" type="curve"/>
      <point x="128" y="64" type="line"/>
      <point x="256" y="64" type="line"/>
    </contour>
  </outline>
</glyph>
<glyph name="onesuperior" format="1">
  <advance width="896"/>
  <unicode hex="00B9"/>
  <outline>
    <contour>
      <point x="64" y="1120" type="line"/>
      <point x="512" y="1536" type="line"/>
      <point x="768" y="1536" type="line"/>
      <point x="768" y="448" type="line"/>
      <point x="576" y="448" type="line"/>
      <point x="576" y="1376" type="line"/>
      <point x="160" y="992" type="line"/>
    </contour>
  </outline>
</glyph>
<glyph name="ordmasculine" format="1">
  <advance width="1664"/>
  <unicode hex="00BA"/>
  <outline>
    <contour>
      <point x="128" y="961" type="curve" smooth="yes"/>
      <point x="128" y="1287"/>
      <point x="236" y="1456"/>
      <point x="506" y="1510" type="curve" smooth="yes"/>
      <point x="595" y="1528"/>
      <point x="704" y="1537"/>
      <point x="832" y="1537" type="curve" smooth="yes"/>
      <point x="1170" y="1537"/>
      <point x="1414" y="1486"/>
      <point x="1498" y="1240" type="curve" smooth="yes"/>
      <point x="1523" y="1166"/>
      <point x="1536" y="1073"/>
      <point x="1536" y="961" type="curve" smooth="yes"/>
      <point x="1536" y="635"/>
      <point x="1428" y="466"/>
      <point x="1158" y="412" type="curve" smooth="yes"/>
      <point x="1069" y="394"/>
      <point x="960" y="385"/>
      <point x="832" y="385" type="curve" smooth="yes"/>
      <point x="494" y="385"/>
      <point x="250" y="436"/>
      <point x="166" y="682" type="curve" smooth="yes"/>
      <point x="141" y="756"/>
      <point x="128" y="849"/>
    </contour>
    <contour>
      <point x="832" y="1377" type="curve" smooth="yes"/>
      <point x="586" y="1377"/>
      <point x="403" y="1371"/>
      <point x="346" y="1188" type="curve" smooth="yes"/>
      <point x="329" y="1133"/>
      <point x="320" y="1066"/>
      <point x="320" y="989" type="curve" smooth="yes"/>
      <point x="320" y="820"/>
      <point x="320" y="694"/>
      <point x="408" y="621" type="curve" smooth="yes"/>
      <point x="431" y="602"/>
      <point x="462" y="586"/>
      <point x="500" y="575" type="curve" smooth="yes"/>
      <point x="567" y="555"/>
      <point x="663" y="545"/>
      <point x="788" y="545" type="curve" smooth="yes"/>
      <point x="913" y="545"/>
      <point x="1009" y="549"/>
      <point x="1074" y="556" type="curve" smooth="yes"/>
      <point x="1291" y="580"/>
      <point x="1344" y="713"/>
      <point x="1344" y="961" type="curve" smooth="yes"/>
      <point x="1344" y="1210"/>
      <point x="1292" y="1342"/>
      <point x="1074" y="1366" type="curve" smooth="yes"/>
      <point x="1009" y="1373"/>
      <point x="928" y="1377"/>
    </contour>
  </outline>
</glyph>
<glyph name="guillemotright" format="1">
  <advance width="1344"/>
  <unicode hex="00BB"/>
  <outline>
    <contour>
      <point x="640" y="608" type="line"/>
      <point x="128" y="960" type="line"/>
      <point x="224" y="1088" type="line"/>
      <point x="768" y="704" type="line"/>
      <point x="768" y="512" type="line"/>
      <point x="224" y="128" type="line"/>
      <point x="128" y="256" type="line"/>
    </contour>
    <contour>
      <point x="1088" y="608" type="line"/>
      <point x="576" y="960" type="line"/>
      <point x="672" y="1088" type="line"/>
      <point x="1216" y="704" type="line"/>
      <point x="1216" y="512" type="line"/>
      <point x="672" y="128" type="line"/>
      <point x="576" y="256" type="line"/>
    </contour>
  </outline>
</glyph>
<glyph name="AE" format="1">
  <advance width="3072"/>
  <unicode hex="00C6"/>
  <outline>
    <contour>
      <point x="1472" y="0" type="line"/>
      <point x="1472" y="352" type="line"/>
      <point x="582" y="352" type="line"/>
      <point x="256" y="0" type="line"/>
      <point x="0" y="0" type="line"/>
      <point x="1408" y="1536" type="line"/>
      <point x="2944" y="1536" type="line"/>
      <point x="2944" y="1376" type="line"/>
      <point x="1664" y="1376" type="line"/>
      <point x="1664" y="864" type="line"/>
      <point x="2880" y="864" type="line"/>
      <point x="2880" y="704" type="line"/>
      <point x="1664" y="704" type="line"/>
      <point x="1664" y="160" type="line"/>
      <point x="2944" y="160" type="line"/>
      <point x="2944" y="0" type="line"/>
    </contour>
    <contour>
      <point x="1472" y="512" type="line"/>
      <point x="1472" y="1376" type="line"/>
      <point x="704" y="512" type="line"/>
    </contour>
  </outline>
</glyph>
<glyph name="Ccedilla" format="1">
  <advance width="2111"/>
  <unicode hex="00C7"/>
  <outline>
    <contour>
      <point x="1087" y="-128" type="line"/>
      <point x="1258" y="-128"/>
      <point x="1343" y="-181"/>
      <point x="1343" y="-288" type="curve" smooth="yes"/>
      <point x="1343" y="-493"/>
      <point x="1187" y="-544"/>
      <point x="959" y="-544" type="curve"/>
      <point x="959" y="-384" type="line"/>
      <point x="1034" y="-384"/>
      <point x="1080" y="-381"/>
      <point x="1099" y="-374" type="curve" smooth="yes"/>
      <point x="1134" y="-361"/>
      <point x="1151" y="-332"/>
      <point x="1151" y="-288" type="curve" smooth="yes"/>
      <point x="1151" y="-267"/>
      <point x="1144" y="-253"/>
      <point x="1130" y="-246" type="curve" smooth="yes"/>
      <point x="1101" y="-232"/>
      <point x="1044" y="-224"/>
      <point x="959" y="-224" type="curve"/>
      <point x="959" y="-32" type="line"/>
      <point x="831" y="-32" type="line" smooth="yes"/>
      <point x="604" y="-32"/>
      <point x="439" y="-4"/>
      <point x="336" y="54" type="curve" smooth="yes"/>
      <point x="191" y="135"/>
      <point x="137" y="296"/>
      <point x="131" y="520" type="curve" smooth="yes"/>
      <point x="129" y="595"/>
      <point x="128" y="677"/>
      <point x="128" y="768" type="curve" smooth="yes"/>
      <point x="128" y="843" type="line" smooth="yes"/>
      <point x="128" y="1053"/>
      <point x="133" y="1243"/>
      <point x="216" y="1372" type="curve" smooth="yes"/>
      <point x="244" y="1416"/>
      <point x="284" y="1453"/>
      <point x="336" y="1482" type="curve" smooth="yes"/>
      <point x="439" y="1540"/>
      <point x="604" y="1568"/>
      <point x="831" y="1568" type="curve" smooth="yes"/>
      <point x="1280" y="1568" type="line" smooth="yes"/>
      <point x="1558" y="1568"/>
      <point x="1747" y="1527"/>
      <point x="1847" y="1444" type="curve" smooth="yes"/>
      <point x="1948" y="1361"/>
      <point x="1983" y="1236"/>
      <point x="1983" y="1056" type="curve"/>
      <point x="1791" y="1056" type="line"/>
      <point x="1791" y="1204"/>
      <point x="1767" y="1299"/>
      <point x="1679" y="1352" type="curve" smooth="yes"/>
      <point x="1587" y="1407"/>
      <point x="1455" y="1408"/>
      <point x="1298" y="1408" type="curve" smooth="yes"/>
      <point x="1280" y="1408" type="line" smooth="yes"/>
      <point x="831" y="1408" type="line" smooth="yes"/>
      <point x="654" y="1408"/>
      <point x="534" y="1395"/>
      <point x="471" y="1370" type="curve" smooth="yes"/>
      <point x="393" y="1338"/>
      <point x="356" y="1283"/>
      <point x="338" y="1190" type="curve" smooth="yes"/>
      <point x="326" y="1129"/>
      <point x="320" y="988"/>
      <point x="320" y="768" type="curve" smooth="yes"/>
      <point x="320" y="551"/>
      <point x="325" y="415"/>
      <point x="336" y="359" type="curve" smooth="yes"/>
      <point x="356" y="255"/>
      <point x="387" y="200"/>
      <point x="471" y="166" type="curve" smooth="yes"/>
      <point x="534" y="141"/>
      <point x="654" y="128"/>
      <point x="831" y="128" type="curve" smooth="yes"/>
      <point x="1280" y="128" type="line" smooth="yes"/>
      <point x="1434" y="128"/>
      <point x="1538" y="135"/>
      <point x="1590" y="150" type="curve" smooth="yes"/>
      <point x="1680" y="175"/>
      <point x="1726" y="200"/>
      <point x="1758" y="270" type="curve" smooth="yes"/>
      <point x="1780" y="319"/>
      <point x="1791" y="400"/>
      <point x="1791" y="512" type="curve"/>
      <point x="1983" y="512" type="line"/>
      <point x="1983" y="237"/>
      <point x="1915" y="96"/>
      <point x="1718" y="24" type="curve" smooth="yes"/>
      <point x="1617" y="-13"/>
      <point x="1471" y="-32"/>
      <point x="1280" y="-32" type="curve" smooth="yes"/>
      <point x="1087" y="-32" type="line"/>
    </contour>
  </outline>
</glyph>
<glyph name="Eth" format="1">
  <advance width="2112"/>
  <unicode hex="00D0"/>
  <outline>
    <contour>
      <point x="0" y="704" type="line"/>
      <point x="0" y="864" type="line"/>
      <point x="128" y="864" type="line"/>
      <point x="128" y="1536" type="line"/>
      <point x="1279" y="1536" type="line" smooth="yes"/>
      <point x="1506" y="1536"/>
      <point x="1671" y="1508"/>
      <point x="1774" y="1453" type="curve" smooth="yes"/>
      <point x="1826" y="1425"/>
      <point x="1868" y="1390"/>
      <point x="1896" y="1348" type="curve" smooth="yes"/>
      <point x="1981" y="1222"/>
      <point x="1984" y="1031"/>
      <point x="1984" y="820" type="curve" smooth="yes"/>
      <point x="1984" y="768" type="line" smooth="yes"/>
      <point x="1984" y="681"/>
      <point x="1982" y="602"/>
      <point x="1980" y="530" type="curve" smooth="yes"/>
      <point x="1973" y="313"/>
      <point x="1920" y="161"/>
      <point x="1774" y="83" type="curve" smooth="yes"/>
      <point x="1671" y="28"/>
      <point x="1506" y="0"/>
      <point x="1279" y="0" type="curve" smooth="yes"/>
      <point x="128" y="0" type="line"/>
      <point x="128" y="704" type="line"/>
    </contour>
    <contour>
      <point x="320" y="160" type="line"/>
      <point x="1279" y="160" type="line" smooth="yes"/>
      <point x="1456" y="160"/>
      <point x="1576" y="172"/>
      <point x="1639" y="196" type="curve" smooth="yes"/>
      <point x="1722" y="227"/>
      <point x="1754" y="279"/>
      <point x="1775" y="378" type="curve" smooth="yes"/>
      <point x="1786" y="431"/>
      <point x="1792" y="561"/>
      <point x="1792" y="768" type="curve" smooth="yes"/>
      <point x="1792" y="975"/>
      <point x="1785" y="1109"/>
      <point x="1772" y="1170" type="curve" smooth="yes"/>
      <point x="1751" y="1270"/>
      <point x="1714" y="1313"/>
      <point x="1620" y="1348" type="curve" smooth="yes"/>
      <point x="1570" y="1367"/>
      <point x="1456" y="1376"/>
      <point x="1279" y="1376" type="curve" smooth="yes"/>
      <point x="320" y="1376" type="line"/>
      <point x="320" y="864" type="line"/>
      <point x="768" y="864" type="line"/>
      <point x="768" y="704" type="line"/>
      <point x="320" y="704" type="line"/>
    </contour>
  </outline>
</glyph>
<glyph name="multiply" format="1">
  <advance width="1344"/>
  <unicode hex="00D7"/>
  <outline>
    <contour>
      <point x="1125" y="1181" type="line"/>
      <point x="808" y="864" type="line"/>
      <point x="1125" y="547" type="line"/>
      <point x="989" y="411" type="line"/>
      <point x="672" y="728" type="line"/>
      <point x="355" y="411" type="line"/>
      <point x="219" y="547" type="line"/>
      <point x="536" y="864" type="line"/>
      <point x="219" y="1181" type="line"/>
      <point x="355" y="1317" type="line"/>
      <point x="672" y="1000" type="line"/>
      <point x="989" y="1317" type="line"/>
    </contour>
  </outline>
</glyph>
<glyph name="Oslash" format="1">
  <advance width="2145"/>
  <unicode hex="00D8"/>
  <outline>
    <contour>
      <point x="1518" y="1792" type="line"/>
      <point x="1644" y="1740" type="line"/>
      <point x="664" y="-254" type="line"/>
      <point x="538" y="-202" type="line"/>
    </contour>
    <component base="O"/>
  </outline>
</glyph>
<glyph name="Thorn" format="1">
  <advance width="1920"/>
  <unicode hex="00DE"/>
  <outline>
    <contour>
      <point x="128" y="0" type="line"/>
      <point x="128" y="1536" type="line"/>
      <point x="320" y="1536" type="line"/>
      <point x="320" y="1344" type="line"/>
      <point x="1282" y="1344" type="line" smooth="yes"/>
      <point x="1466" y="1344"/>
      <point x="1601" y="1327"/>
      <point x="1686" y="1294" type="curve" smooth="yes"/>
      <point x="1729" y="1277"/>
      <point x="1761" y="1257"/>
      <point x="1784" y="1232" type="curve" smooth="yes"/>
      <point x="1854" y="1157"/>
      <point x="1856" y="1040"/>
      <point x="1856" y="894" type="curve" smooth="yes"/>
      <point x="1856" y="843"/>
      <point x="1854" y="796"/>
      <point x="1852" y="752" type="curve" smooth="yes"/>
      <point x="1847" y="659"/>
      <point x="1820" y="587"/>
      <point x="1768" y="538" type="curve" smooth="yes"/>
      <point x="1682" y="456"/>
      <point x="1476" y="416"/>
      <point x="1151" y="416" type="curve" smooth="yes"/>
      <point x="320" y="416" type="line"/>
      <point x="320" y="0" type="line"/>
    </contour>
    <contour>
      <point x="320" y="1184" type="line"/>
      <point x="320" y="576" type="line"/>
      <point x="1151" y="576" type="line" smooth="yes"/>
      <point x="1325" y="576"/>
      <point x="1445" y="583"/>
      <point x="1511" y="597" type="curve" smooth="yes"/>
      <point x="1610" y="618"/>
      <point x="1656" y="664"/>
      <point x="1662" y="776" type="curve" smooth="yes"/>
      <point x="1664" y="810"/>
      <point x="1664" y="862"/>
      <point x="1664" y="935" type="curve" smooth="yes"/>
      <point x="1664" y="1106"/>
      <point x="1636" y="1144"/>
      <point x="1495" y="1170" type="curve" smooth="yes"/>
      <point x="1446" y="1179"/>
      <point x="1331" y="1184"/>
      <point x="1151" y="1184" type="curve" smooth="yes"/>
    </contour>
  </outline>
</glyph>
<glyph name="germandbls" format="1">
  <advance width="2048"/>
  <unicode hex="00DF"/>
  <outline>
    <contour>
      <point x="769" y="1536" type="curve" smooth="yes"/>
      <point x="1280" y="1536" type="line" smooth="yes"/>
      <point x="1465" y="1536"/>
      <point x="1599" y="1506"/>
      <point x="1680" y="1444" type="curve" smooth="yes"/>
      <point x="1751" y="1390"/>
      <point x="1792" y="1302"/>
      <point x="1792" y="1186" type="curve" smooth="yes"/>
      <point x="1792" y="1135"/>
      <point x="1790" y="1094"/>
      <point x="1784" y="1061" type="curve" smooth="yes"/>
      <point x="1759" y="917"/>
      <point x="1697" y="841"/>
      <point x="1600" y="832" type="curve"/>
      <point x="1660" y="829"/>
      <point x="1713" y="814"/>
      <point x="1760" y="788" type="curve" smooth="yes"/>
      <point x="1863" y="730"/>
      <point x="1920" y="632"/>
      <point x="1920" y="471" type="curve" smooth="yes"/>
      <point x="1920" y="314"/>
      <point x="1898" y="195"/>
      <point x="1816" y="119" type="curve" smooth="yes"/>
      <point x="1731" y="40"/>
      <point x="1552" y="0"/>
      <point x="1279" y="0" type="curve" smooth="yes"/>
      <point x="512" y="0" type="line"/>
      <point x="512" y="160" type="line"/>
      <point x="1215" y="160" type="line" smooth="yes"/>
      <point x="1376" y="160"/>
      <point x="1487" y="166"/>
      <point x="1548" y="178" type="curve" smooth="yes"/>
      <point x="1586" y="186"/>
      <point x="1617" y="198"/>
      <point x="1640" y="212" type="curve" smooth="yes"/>
      <point x="1724" y="264"/>
      <point x="1728" y="358"/>
      <point x="1728" y="501" type="curve" smooth="yes"/>
      <point x="1728" y="565"/>
      <point x="1716" y="613"/>
      <point x="1694" y="646" type="curve" smooth="yes"/>
      <point x="1660" y="696"/>
      <point x="1612" y="707"/>
      <point x="1528" y="722" type="curve" smooth="yes"/>
      <point x="1477" y="731"/>
      <point x="1372" y="736"/>
      <point x="1215" y="736" type="curve" smooth="yes"/>
      <point x="512" y="736" type="line"/>
      <point x="512" y="896" type="line"/>
      <point x="1215" y="896" type="line"/>
      <point x="1223" y="896" type="line" smooth="yes"/>
      <point x="1354" y="896"/>
      <point x="1462" y="897"/>
      <point x="1530" y="946" type="curve" smooth="yes"/>
      <point x="1587" y="987"/>
      <point x="1600" y="1063"/>
      <point x="1600" y="1162" type="curve" smooth="yes"/>
      <point x="1600" y="1273"/>
      <point x="1568" y="1311"/>
      <point x="1487" y="1347" type="curve" smooth="yes"/>
      <point x="1444" y="1366"/>
      <point x="1354" y="1376"/>
      <point x="1216" y="1376" type="curve" smooth="yes"/>
      <point x="833" y="1376" type="line" smooth="yes"/>
      <point x="672" y="1376"/>
      <point x="561" y="1370"/>
      <point x="500" y="1358" type="curve" smooth="yes"/>
      <point x="420" y="1342"/>
      <point x="381" y="1318"/>
      <point x="346" y="1255" type="curve" smooth="yes"/>
      <point x="328" y="1223"/>
      <point x="320" y="1157"/>
      <point x="320" y="1058" type="curve" smooth="yes"/>
      <point x="320" y="-128" type="line"/>
      <point x="128" y="-128" type="line"/>
      <point x="128" y="1058" type="line" smooth="yes"/>
      <point x="128" y="1220"/>
      <point x="148" y="1339"/>
      <point x="232" y="1417" type="curve" smooth="yes"/>
      <point x="317" y="1496"/>
      <point x="496" y="1536"/>
    </contour>
  </outline>
</glyph>
<glyph name="ae" format="1">
  <advance width="2752"/>
  <unicode hex="00E6"/>
  <outline>
    <contour>
      <point x="1382" y="896" type="curve"/>
      <point x="1465" y="1071"/>
      <point x="1657" y="1120"/>
      <point x="1925" y="1120" type="curve" smooth="yes"/>
      <point x="2056" y="1120"/>
      <point x="2155" y="1114"/>
      <point x="2222" y="1102" type="curve" smooth="yes"/>
      <point x="2500" y="1051"/>
      <point x="2624" y="907"/>
      <point x="2624" y="576" type="curve"/>
      <point x="2608" y="512" type="line"/>
      <point x="1472" y="512" type="line"/>
      <point x="1472" y="486" type="line"/>
      <point x="1474" y="337"/>
      <point x="1500" y="237"/>
      <point x="1590" y="184" type="curve" smooth="yes"/>
      <point x="1683" y="129"/>
      <point x="1821" y="128"/>
      <point x="1980" y="128" type="curve" smooth="yes"/>
      <point x="2071" y="128"/>
      <point x="2144" y="131"/>
      <point x="2202" y="136" type="curve" smooth="yes"/>
      <point x="2340" y="148"/>
      <point x="2432" y="177"/>
      <point x="2432" y="320" type="curve"/>
      <point x="2624" y="320" type="line"/>
      <point x="2624" y="191"/>
      <point x="2577" y="100"/>
      <point x="2484" y="48" type="curve" smooth="yes"/>
      <point x="2389" y="-5"/>
      <point x="2232" y="-32"/>
      <point x="2016" y="-32" type="curve" smooth="yes"/>
      <point x="1732" y="-32"/>
      <point x="1500" y="-7"/>
      <point x="1382" y="145" type="curve"/>
      <point x="1314" y="56"/>
      <point x="1182" y="-1"/>
      <point x="984" y="-26" type="curve" smooth="yes"/>
      <point x="931" y="-33"/>
      <point x="856" y="-36"/>
      <point x="762" y="-36" type="curve" smooth="yes"/>
      <point x="459" y="-36"/>
      <point x="128" y="8"/>
      <point x="128" y="293" type="curve" smooth="yes"/>
      <point x="128" y="453"/>
      <point x="187" y="558"/>
      <point x="304" y="606" type="curve" smooth="yes"/>
      <point x="375" y="635"/>
      <point x="454" y="651"/>
      <point x="542" y="654" type="curve" smooth="yes"/>
      <point x="630" y="657"/>
      <point x="703" y="659"/>
      <point x="763" y="659" type="curve" smooth="yes"/>
      <point x="958" y="659"/>
      <point x="1211" y="634"/>
      <point x="1280" y="544" type="curve"/>
      <point x="1280" y="764"/>
      <point x="1254" y="893"/>
      <point x="1100" y="938" type="curve" smooth="yes"/>
      <point x="1049" y="953"/>
      <point x="970" y="960"/>
      <point x="863" y="960" type="curve" smooth="yes"/>
      <point x="756" y="960"/>
      <point x="673" y="957"/>
      <point x="615" y="952" type="curve" smooth="yes"/>
      <point x="477" y="940"/>
      <point x="384" y="911"/>
      <point x="384" y="768" type="curve"/>
      <point x="192" y="768" type="line"/>
      <point x="192" y="897"/>
      <point x="238" y="988"/>
      <point x="332" y="1040" type="curve" smooth="yes"/>
      <point x="428" y="1093"/>
      <point x="596" y="1120"/>
      <point x="834" y="1120" type="curve" smooth="yes"/>
      <point x="987" y="1120"/>
      <point x="1093" y="1109"/>
      <point x="1153" y="1088" type="curve" smooth="yes"/>
      <point x="1269" y="1046"/>
      <point x="1329" y="997"/>
    </contour>
    <contour>
      <point x="564" y="136" type="curve" smooth="yes"/>
      <point x="632" y="131"/>
      <point x="716" y="128"/>
      <point x="814" y="128" type="curve" smooth="yes"/>
      <point x="975" y="128"/>
      <point x="1087" y="131"/>
      <point x="1184" y="176" type="curve" smooth="yes"/>
      <point x="1248" y="206"/>
      <point x="1280" y="254"/>
      <point x="1280" y="320" type="curve" smooth="yes"/>
      <point x="1280" y="385"/>
      <point x="1244" y="430"/>
      <point x="1170" y="456" type="curve" smooth="yes"/>
      <point x="1094" y="483"/>
      <point x="961" y="496"/>
      <point x="770" y="496" type="curve" smooth="yes"/>
      <point x="574" y="496"/>
      <point x="455" y="488"/>
      <point x="414" y="473" type="curve" smooth="yes"/>
      <point x="340" y="445"/>
      <point x="320" y="413"/>
      <point x="320" y="320" type="curve" smooth="yes"/>
      <point x="320" y="232"/>
      <point x="342" y="190"/>
      <point x="409" y="164" type="curve" smooth="yes"/>
      <point x="445" y="150"/>
      <point x="496" y="141"/>
    </contour>
    <contour>
      <point x="1972" y="960" type="curve" smooth="yes"/>
      <point x="1756" y="960"/>
      <point x="1559" y="960"/>
      <point x="1498" y="812" type="curve" smooth="yes"/>
      <point x="1481" y="770"/>
      <point x="1472" y="712"/>
      <point x="1472" y="640" type="curve"/>
      <point x="2432" y="640" type="line"/>
      <point x="2432" y="764"/>
      <point x="2397" y="850"/>
      <point x="2328" y="896" type="curve" smooth="yes"/>
      <point x="2264" y="939"/>
      <point x="2145" y="960"/>
    </contour>
  </outline>
</glyph>
<glyph name="ccedilla" format="1">
  <advance width="1601"/>
  <unicode hex="00E7"/>
  <outline>
    <contour>
      <point x="1088" y="-288" type="curve" smooth="yes"/>
      <point x="1088" y="-411"/>
      <point x="1038" y="-465"/>
      <point x="951" y="-508" type="curve" smooth="yes"/>
      <point x="904" y="-532"/>
      <point x="821" y="-544"/>
      <point x="704" y="-544" type="curve"/>
      <point x="704" y="-384" type="line"/>
      <point x="779" y="-384"/>
      <point x="827" y="-380"/>
      <point x="848" y="-372" type="curve" smooth="yes"/>
      <point x="876" y="-361"/>
      <point x="896" y="-336"/>
      <point x="896" y="-300" type="curve" smooth="yes"/>
      <point x="896" y="-284"/>
      <point x="895" y="-272"/>
      <point x="893" y="-264" type="curve" smooth="yes"/>
      <point x="886" y="-237"/>
      <point x="823" y="-224"/>
      <point x="704" y="-224" type="curve"/>
      <point x="704" y="-29" type="line"/>
      <point x="443" y="-17"/>
      <point x="264" y="25"/>
      <point x="182" y="196" type="curve" smooth="yes"/>
      <point x="146" y="272"/>
      <point x="128" y="388"/>
      <point x="128" y="544" type="curve" smooth="yes"/>
      <point x="128" y="700"/>
      <point x="146" y="816"/>
      <point x="182" y="892" type="curve" smooth="yes"/>
      <point x="222" y="977"/>
      <point x="293" y="1036"/>
      <point x="394" y="1070" type="curve" smooth="yes"/>
      <point x="492" y="1103"/>
      <point x="638" y="1120"/>
      <point x="833" y="1120" type="curve" smooth="yes"/>
      <point x="1080" y="1120"/>
      <point x="1251" y="1087"/>
      <point x="1345" y="1020" type="curve" smooth="yes"/>
      <point x="1437" y="955"/>
      <point x="1473" y="856"/>
      <point x="1473" y="704" type="curve"/>
      <point x="1281" y="704" type="line"/>
      <point x="1281" y="870"/>
      <point x="1250" y="898"/>
      <point x="1121" y="937" type="curve" smooth="yes"/>
      <point x="1070" y="952"/>
      <point x="974" y="960"/>
      <point x="833" y="960" type="curve" smooth="yes"/>
      <point x="664" y="960"/>
      <point x="544" y="948"/>
      <point x="473" y="924" type="curve" smooth="yes"/>
      <point x="399" y="899"/>
      <point x="361" y="861"/>
      <point x="338" y="786" type="curve" smooth="yes"/>
      <point x="327" y="750"/>
      <point x="321" y="669"/>
      <point x="321" y="544" type="curve" smooth="yes"/>
      <point x="321" y="419"/>
      <point x="327" y="336"/>
      <point x="340" y="294" type="curve" smooth="yes"/>
      <point x="374" y="181"/>
      <point x="477" y="150"/>
      <point x="618" y="136" type="curve" smooth="yes"/>
      <point x="676" y="130"/>
      <point x="762" y="128"/>
      <point x="875" y="128" type="curve" smooth="yes"/>
      <point x="988" y="128"/>
      <point x="1079" y="138"/>
      <point x="1148" y="159" type="curve" smooth="yes"/>
      <point x="1181" y="169"/>
      <point x="1207" y="181"/>
      <point x="1225" y="196" type="curve" smooth="yes"/>
      <point x="1275" y="237"/>
      <point x="1281" y="274"/>
      <point x="1281" y="384" type="curve"/>
      <point x="1473" y="384" type="line"/>
      <point x="1473" y="232"/>
      <point x="1437" y="133"/>
      <point x="1345" y="68" type="curve" smooth="yes"/>
      <point x="1251" y="1"/>
      <point x="1080" y="-32"/>
      <point x="833" y="-32" type="curve" smooth="yes"/>
      <point x="832" y="-32" type="line"/>
      <point x="832" y="-128" type="line"/>
      <point x="1003" y="-128"/>
      <point x="1088" y="-181"/>
    </contour>
  </outline>
</glyph>
<glyph name="eth" format="1">
  <advance width="1984"/>
  <unicode hex="00F0"/>
  <outline>
    <contour>
      <point x="1856" y="768" type="curve" smooth="yes"/>
      <point x="1856" y="677"/>
      <point x="1854" y="595"/>
      <point x="1852" y="520" type="curve" smooth="yes"/>
      <point x="1845" y="297"/>
      <point x="1793" y="134"/>
      <point x="1648" y="54" type="curve" smooth="yes"/>
      <point x="1544" y="-4"/>
      <point x="1378" y="-32"/>
      <point x="1152" y="-32" type="curve" smooth="yes"/>
      <point x="831" y="-32" type="line" smooth="yes"/>
      <point x="556" y="-32"/>
      <point x="367" y="8"/>
      <point x="264" y="88" type="curve" smooth="yes"/>
      <point x="165" y="165"/>
      <point x="128" y="278"/>
      <point x="128" y="448" type="curve" smooth="yes"/>
      <point x="128" y="528"/>
      <point x="138" y="598"/>
      <point x="157" y="658" type="curve" smooth="yes"/>
      <point x="227" y="876"/>
      <point x="495" y="928"/>
      <point x="794" y="928" type="curve" smooth="yes"/>
      <point x="913" y="928"/>
      <point x="1010" y="928"/>
      <point x="1083" y="926" type="curve" smooth="yes"/>
      <point x="1380" y="919"/>
      <point x="1574" y="888"/>
      <point x="1664" y="832" type="curve"/>
      <point x="1664" y="957"/>
      <point x="1653" y="1059"/>
      <point x="1631" y="1136" type="curve"/>
      <point x="1324" y="1026" type="line"/>
      <point x="1281" y="1146" type="line"/>
      <point x="1579" y="1253" type="line"/>
      <point x="1526" y="1331"/>
      <point x="1463" y="1363"/>
      <point x="1351" y="1388" type="curve" smooth="yes"/>
      <point x="1292" y="1401"/>
      <point x="1183" y="1408"/>
      <point x="1024" y="1408" type="curve" smooth="yes"/>
      <point x="820" y="1408"/>
      <point x="668" y="1395"/>
      <point x="566" y="1369" type="curve" smooth="yes"/>
      <point x="516" y="1356"/>
      <point x="477" y="1341"/>
      <point x="448" y="1324" type="curve" smooth="yes"/>
      <point x="380" y="1283"/>
      <point x="352" y="1238"/>
      <point x="352" y="1120" type="curve"/>
      <point x="193" y="1120" type="line"/>
      <point x="193" y="1224"/>
      <point x="213" y="1306"/>
      <point x="252" y="1364" type="curve" smooth="yes"/>
      <point x="375" y="1547"/>
      <point x="693" y="1568"/>
      <point x="1006" y="1568" type="curve" smooth="yes"/>
      <point x="1112" y="1568"/>
      <point x="1203" y="1563"/>
      <point x="1278" y="1553" type="curve" smooth="yes"/>
      <point x="1497" y="1524"/>
      <point x="1650" y="1443"/>
      <point x="1739" y="1311" type="curve"/>
      <point x="2004" y="1406" type="line"/>
      <point x="2047" y="1286" type="line"/>
      <point x="1796" y="1196" type="line"/>
      <point x="1836" y="1090"/>
      <point x="1856" y="947"/>
    </contour>
    <contour>
      <point x="500" y="742" type="curve" smooth="yes"/>
      <point x="422" y="723"/>
      <point x="381" y="696"/>
      <point x="346" y="632" type="curve" smooth="yes"/>
      <point x="328" y="600"/>
      <point x="320" y="538"/>
      <point x="320" y="448" type="curve" smooth="yes"/>
      <point x="320" y="244"/>
      <point x="364" y="188"/>
      <point x="524" y="148" type="curve" smooth="yes"/>
      <point x="578" y="135"/>
      <point x="680" y="128"/>
      <point x="831" y="128" type="curve" smooth="yes"/>
      <point x="1152" y="128" type="line" smooth="yes"/>
      <point x="1328" y="128"/>
      <point x="1474" y="132"/>
      <point x="1566" y="200" type="curve" smooth="yes"/>
      <point x="1648" y="261"/>
      <point x="1664" y="364"/>
      <point x="1664" y="514" type="curve" smooth="yes"/>
      <point x="1664" y="595"/>
      <point x="1647" y="651"/>
      <point x="1613" y="682" type="curve" smooth="yes"/>
      <point x="1561" y="730"/>
      <point x="1478" y="744"/>
      <point x="1376" y="754" type="curve" smooth="yes"/>
      <point x="1233" y="768"/>
      <point x="1045" y="768"/>
      <point x="876" y="768" type="curve" smooth="yes"/>
      <point x="868" y="768" type="line" smooth="yes"/>
      <point x="821" y="768" type="line" smooth="yes"/>
      <point x="686" y="768"/>
      <point x="601" y="767"/>
    </contour>
  </outline>
</glyph>
<glyph name="divide" format="1">
  <advance width="1280"/>
  <unicode hex="00F7"/>
  <outline>
    <contour>
      <point x="128" y="512" type="line"/>
      <point x="128" y="672" type="line"/>
      <point x="1152" y="672" type="line"/>
      <point x="1152" y="512" type="line"/>
    </contour>
    <contour>
      <point x="768" y="960" type="line"/>
      <point x="768" y="768" type="line"/>
      <point x="576" y="768" type="line"/>
      <point x="576" y="960" type="line"/>
    </contour>
    <contour>
      <point x="768" y="384" type="line"/>
      <point x="768" y="192" type="line"/>
      <point x="576" y="192" type="line"/>
      <point x="576" y="384" type="line"/>
    </contour>
  </outline>
</glyph>
<glyph name="oslash" format="1">
  <advance width="1602"/>
  <unicode hex="00F8"/>
  <outline>
    <contour>
      <point x="1116" y="1392" type="line"/>
      <point x="1233" y="1349" type="line"/>
      <point x="515" y="-233" type="line"/>
      <point x="398" y="-190" type="line"/>
    </contour>
    <component base="o"/>
  </outline>
</glyph>
<glyph name="thorn" format="1">
  <advance width="1600"/>
  <unicode hex="00FE"/>
  <outline>
    <contour>
      <point x="886" y="1120" type="curve" smooth="yes"/>
      <point x="978" y="1120"/>
      <point x="1069" y="1111"/>
      <point x="1158" y="1093" type="curve" smooth="yes"/>
      <point x="1428" y="1039"/>
      <point x="1536" y="870"/>
      <point x="1536" y="544" type="curve" smooth="yes"/>
      <point x="1536" y="329"/>
      <point x="1493" y="180"/>
      <point x="1376" y="88" type="curve" smooth="yes"/>
      <point x="1269" y="4"/>
      <point x="1074" y="-32"/>
      <point x="886" y="-32" type="curve" smooth="yes"/>
      <point x="794" y="-32"/>
      <point x="726" y="-30"/>
      <point x="682" y="-25" type="curve" smooth="yes"/>
      <point x="486" y="-4"/>
      <point x="365" y="47"/>
      <point x="320" y="128" type="curve"/>
      <point x="320" y="-384" type="line"/>
      <point x="128" y="-384" type="line"/>
      <point x="128" y="1536" type="line"/>
      <point x="320" y="1536" type="line"/>
      <point x="320" y="961" type="line"/>
      <point x="395" y="1093"/>
      <point x="643" y="1120"/>
    </contour>
    <contour>
      <point x="661" y="956" type="curve" smooth="yes"/>
      <point x="510" y="948"/>
      <point x="412" y="904"/>
      <point x="368" y="824" type="curve" smooth="yes"/>
      <point x="336" y="766"/>
      <point x="320" y="673"/>
      <point x="320" y="547" type="curve" smooth="yes"/>
      <point x="320" y="420"/>
      <point x="336" y="326"/>
      <point x="368" y="266" type="curve" smooth="yes"/>
      <point x="437" y="137"/>
      <point x="590" y="128"/>
      <point x="786" y="128" type="curve" smooth="yes"/>
      <point x="900" y="128" type="line" smooth="yes"/>
      <point x="1009" y="128"/>
      <point x="1097" y="138"/>
      <point x="1164" y="158" type="curve" smooth="yes"/>
      <point x="1246" y="183"/>
      <point x="1285" y="216"/>
      <point x="1318" y="295" type="curve" smooth="yes"/>
      <point x="1335" y="336"/>
      <point x="1344" y="419"/>
      <point x="1344" y="544" type="curve" smooth="yes"/>
      <point x="1344" y="669"/>
      <point x="1334" y="756"/>
      <point x="1312" y="808" type="curve" smooth="yes"/>
      <point x="1250" y="955"/>
      <point x="1053" y="960"/>
      <point x="840" y="960" type="curve" smooth="yes"/>
      <point x="771" y="960"/>
      <point x="711" y="959"/>
    </contour>
  </outline>
</glyph>
<glyph name="dcroat" format="1">
  <advance width="1664"/>
  <unicode hex="0111"/>
  <outline>
    <contour>
      <point x="778" y="1120" type="curve" smooth="yes"/>
      <point x="1021" y="1120"/>
      <point x="1270" y="1093"/>
      <point x="1344" y="960" type="curve"/>
      <point x="1344" y="1249" type="line"/>
      <point x="896" y="1249" type="line"/>
      <point x="896" y="1409" type="line"/>
      <point x="1344" y="1409" type="line"/>
      <point x="1344" y="1536" type="line"/>
      <point x="1536" y="1536" type="line"/>
      <point x="1536" y="1409" type="line"/>
      <point x="1664" y="1409" type="line"/>
      <point x="1664" y="1249" type="line"/>
      <point x="1536" y="1249" type="line"/>
      <point x="1536" y="0" type="line"/>
      <point x="1344" y="0" type="line"/>
      <point x="1344" y="127" type="line"/>
      <point x="1285" y="21"/>
      <point x="1114" y="-32"/>
      <point x="832" y="-32" type="curve" smooth="yes"/>
      <point x="494" y="-32"/>
      <point x="250" y="19"/>
      <point x="166" y="265" type="curve" smooth="yes"/>
      <point x="141" y="339"/>
      <point x="128" y="432"/>
      <point x="128" y="544" type="curve" smooth="yes"/>
      <point x="128" y="870"/>
      <point x="236" y="1039"/>
      <point x="506" y="1093" type="curve" smooth="yes"/>
      <point x="595" y="1111"/>
      <point x="686" y="1120"/>
    </contour>
    <contour>
      <point x="408" y="204" type="curve" smooth="yes"/>
      <point x="497" y="132"/>
      <point x="658" y="128"/>
      <point x="824" y="128" type="curve" smooth="yes"/>
      <point x="826" y="128" type="line" smooth="yes"/>
      <point x="1039" y="128"/>
      <point x="1221" y="128"/>
      <point x="1296" y="264" type="curve" smooth="yes"/>
      <point x="1328" y="322"/>
      <point x="1344" y="415"/>
      <point x="1344" y="541" type="curve" smooth="yes"/>
      <point x="1344" y="770"/>
      <point x="1306" y="895"/>
      <point x="1135" y="938" type="curve" smooth="yes"/>
      <point x="1076" y="953"/>
      <point x="992" y="960"/>
      <point x="883" y="960" type="curve" smooth="yes"/>
      <point x="774" y="960"/>
      <point x="692" y="958"/>
      <point x="638" y="954" type="curve" smooth="yes"/>
      <point x="499" y="943"/>
      <point x="395" y="911"/>
      <point x="352" y="808" type="curve" smooth="yes"/>
      <point x="330" y="756"/>
      <point x="320" y="669"/>
      <point x="320" y="544" type="curve" smooth="yes"/>
      <point x="320" y="419"/>
      <point x="329" y="336"/>
      <point x="346" y="295" type="curve" smooth="yes"/>
      <point x="363" y="254"/>
      <point x="384" y="223"/>
    </contour>
  </outline>
</glyph>
<glyph name="Hbar" format="1">
  <advance width="2176"/>
  <unicode hex="0126"/>
  <outline>
    <contour>
      <point x="1792" y="1536" type="line"/>
      <point x="1984" y="1536" type="line"/>
      <point x="1984" y="0" type="line"/>
      <point x="1792" y="0" type="line"/>
      <point x="1792" y="704" type="line"/>
      <point x="384" y="704" type="line"/>
      <point x="384" y="0" type="line"/>
      <point x="192" y="0" type="line"/>
      <point x="192" y="1536" type="line"/>
      <point x="384" y="1536" type="line"/>
      <point x="384" y="864" type="line"/>
      <point x="1792" y="864" type="line"/>
    </contour>
  </outline>
</glyph>
<glyph name="hbar" format="1">
  <advance width="1601"/>
  <unicode hex="0127"/>
  <outline>
    <contour>
      <point x="320" y="970" type="line"/>
      <point x="381" y="1113"/>
      <point x="573" y="1184"/>
      <point x="896" y="1184" type="curve" smooth="yes"/>
      <point x="1138" y="1184"/>
      <point x="1298" y="1138"/>
      <point x="1377" y="1047" type="curve" smooth="yes"/>
      <point x="1454" y="958"/>
      <point x="1473" y="820"/>
      <point x="1473" y="650" type="curve" smooth="yes"/>
      <point x="1472" y="0" type="line"/>
      <point x="1280" y="0" type="line"/>
      <point x="1280" y="650" type="line" smooth="yes"/>
      <point x="1280" y="782"/>
      <point x="1267" y="879"/>
      <point x="1200" y="941" type="curve" smooth="yes"/>
      <point x="1140" y="996"/>
      <point x="1017" y="1024"/>
      <point x="832" y="1024" type="curve" smooth="yes"/>
      <point x="551" y="1024"/>
      <point x="388" y="963"/>
      <point x="342" y="841" type="curve" smooth="yes"/>
      <point x="328" y="803"/>
      <point x="320" y="761"/>
      <point x="320" y="714" type="curve" smooth="yes"/>
      <point x="320" y="0" type="line"/>
      <point x="128" y="0" type="line"/>
      <point x="128" y="1536" type="line"/>
      <point x="320" y="1536" type="line"/>
    </contour>
  </outline>
</glyph>
<glyph name="kgreenlandic" format="1">
  <advance width="1408"/>
  <unicode hex="0138"/>
  <outline>
    <contour>
      <point x="128" y="0" type="line"/>
      <point x="128" y="1536" type="line"/>
      <point x="320" y="1536" type="line"/>
      <point x="320" y="656" type="line"/>
      <point x="384" y="656" type="line"/>
      <point x="1088" y="1088" type="line"/>
      <point x="1376" y="1088" type="line"/>
      <point x="560" y="576" type="line"/>
      <point x="1408" y="0" type="line"/>
      <point x="1120" y="0" type="line"/>
      <point x="384" y="512" type="line"/>
      <point x="320" y="512" type="line"/>
      <point x="320" y="0" type="line"/>
    </contour>
  </outline>
</glyph>
<glyph name="Lslash" format="1">
  <advance width="1664"/>
  <unicode hex="0141"/>
  <outline>
    <contour>
      <point x="64" y="768" type="line"/>
      <point x="64" y="928" type="line"/>
      <point x="768" y="1088" type="line"/>
      <point x="768" y="928" type="line"/>
    </contour>
    <contour>
      <point x="1600" y="0" type="line"/>
      <point x="192" y="0" type="line"/>
      <point x="192" y="1536" type="line"/>
      <point x="384" y="1536" type="line"/>
      <point x="384" y="160" type="line"/>
      <point x="1600" y="160" type="line"/>
    </contour>
  </outline>
</glyph>
<glyph name="lslash" format="1">
  <advance width="512"/>
  <unicode hex="0142"/>
  <outline>
    <contour>
      <point x="0" y="768" type="line"/>
      <point x="0" y="928" type="line"/>
      <point x="576" y="1088" type="line"/>
      <point x="576" y="928" type="line"/>
    </contour>
    <contour>
      <point x="128" y="0" type="line"/>
      <point x="128" y="1536" type="line"/>
      <point x="320" y="1536" type="line"/>
      <point x="320" y="0" type="line"/>
    </contour>
  </outline>
</glyph>
<glyph name="OE" format="1">
  <advance width="3520"/>
  <unicode hex="0152"/>
  <outline>
    <contour>
      <point x="1409" y="1564" type="line" smooth="yes"/>
      <point x="1425" y="1564"/>
      <point x="1441" y="1565"/>
      <point x="1457" y="1565" type="curve" smooth="yes"/>
      <point x="1665" y="1565"/>
      <point x="1820" y="1534"/>
      <point x="1920" y="1472" type="curve"/>
      <point x="1920" y="1536" type="line"/>
      <point x="3456" y="1536" type="line"/>
      <point x="3456" y="1376" type="line"/>
      <point x="2112" y="1376" type="line"/>
      <point x="2112" y="864" type="line"/>
      <point x="3392" y="864" type="line"/>
      <point x="3392" y="704" type="line"/>
      <point x="2112" y="704" type="line"/>
      <point x="2112" y="160" type="line"/>
      <point x="3456" y="160" type="line"/>
      <point x="3456" y="0" type="line"/>
      <point x="1920" y="0" type="line"/>
      <point x="1920" y="64" type="line"/>
      <point x="1816" y="0"/>
      <point x="1646" y="-32"/>
      <point x="1409" y="-32" type="curve" smooth="yes"/>
      <point x="831" y="-32" type="line" smooth="yes"/>
      <point x="604" y="-32"/>
      <point x="439" y="-4"/>
      <point x="336" y="54" type="curve" smooth="yes"/>
      <point x="191" y="135"/>
      <point x="137" y="296"/>
      <point x="131" y="520" type="curve" smooth="yes"/>
      <point x="129" y="595"/>
      <point x="128" y="677"/>
      <point x="128" y="768" type="curve" smooth="yes"/>
      <point x="128" y="843" type="line" smooth="yes"/>
      <point x="128" y="1053"/>
      <point x="133" y="1243"/>
      <point x="216" y="1372" type="curve" smooth="yes"/>
      <point x="244" y="1416"/>
      <point x="284" y="1453"/>
      <point x="336" y="1482" type="curve" smooth="yes"/>
      <point x="435" y="1537"/>
      <point x="583" y="1565"/>
      <point x="780" y="1565" type="curve" smooth="yes"/>
      <point x="797" y="1565"/>
      <point x="814" y="1564"/>
      <point x="831" y="1564" type="curve" smooth="yes"/>
    </contour>
    <contour>
      <point x="1409" y="128" type="line" smooth="yes"/>
      <point x="1586" y="128"/>
      <point x="1705" y="141"/>
      <point x="1768" y="166" type="curve" smooth="yes"/>
      <point x="1846" y="198"/>
      <point x="1883" y="253"/>
      <point x="1901" y="346" type="curve" smooth="yes"/>
      <point x="1914" y="410"/>
      <point x="1920" y="551"/>
      <point x="1920" y="768" type="curve" smooth="yes"/>
      <point x="1920" y="985"/>
      <point x="1915" y="1121"/>
      <point x="1904" y="1177" type="curve" smooth="yes"/>
      <point x="1884" y="1280"/>
      <point x="1851" y="1336"/>
      <point x="1768" y="1370" type="curve" smooth="yes"/>
      <point x="1691" y="1401"/>
      <point x="1596" y="1404"/>
      <point x="1484" y="1404" type="curve" smooth="yes"/>
      <point x="1409" y="1404" type="line" smooth="yes"/>
      <point x="831" y="1404" type="line" smooth="yes"/>
      <point x="804" y="1405"/>
      <point x="778" y="1405"/>
      <point x="753" y="1405" type="curve" smooth="yes"/>
      <point x="505" y="1405"/>
      <point x="375" y="1380"/>
      <point x="338" y="1190" type="curve" smooth="yes"/>
      <point x="326" y="1129"/>
      <point x="320" y="988"/>
      <point x="320" y="768" type="curve" smooth="yes"/>
      <point x="320" y="551"/>
      <point x="325" y="415"/>
      <point x="336" y="359" type="curve" smooth="yes"/>
      <point x="356" y="255"/>
      <point x="387" y="200"/>
      <point x="471" y="166" type="curve" smooth="yes"/>
      <point x="534" y="141"/>
      <point x="654" y="128"/>
      <point x="831" y="128" type="curve" smooth="yes"/>
    </contour>
  </outline>
</glyph>
<glyph name="oe" format="1">
  <advance width="2816"/>
  <unicode hex="0153"/>
  <outline>
    <contour>
      <point x="1440" y="896" type="curve"/>
      <point x="1456" y="960"/>
      <point x="1522" y="1013"/>
      <point x="1639" y="1056" type="curve" smooth="yes"/>
      <point x="1756" y="1099"/>
      <point x="1892" y="1120"/>
      <point x="2048" y="1120" type="curve" smooth="yes"/>
      <point x="2221" y="1120"/>
      <point x="2358" y="1096"/>
      <point x="2458" y="1049" type="curve" smooth="yes"/>
      <point x="2624" y="970"/>
      <point x="2688" y="826"/>
      <point x="2688" y="576" type="curve"/>
      <point x="2672" y="512" type="line"/>
      <point x="1536" y="512" type="line"/>
      <point x="1536" y="275"/>
      <point x="1597" y="160"/>
      <point x="1806" y="138" type="curve" smooth="yes"/>
      <point x="1871" y="131"/>
      <point x="1972" y="128"/>
      <point x="2110" y="128" type="curve" smooth="yes"/>
      <point x="2248" y="128"/>
      <point x="2346" y="140"/>
      <point x="2404" y="164" type="curve" smooth="yes"/>
      <point x="2468" y="190"/>
      <point x="2496" y="234"/>
      <point x="2496" y="320" type="curve"/>
      <point x="2688" y="320" type="line"/>
      <point x="2688" y="100"/>
      <point x="2553" y="18"/>
      <point x="2350" y="-13" type="curve" smooth="yes"/>
      <point x="2269" y="-26"/>
      <point x="2177" y="-33"/>
      <point x="2083" y="-33" type="curve" smooth="yes"/>
      <point x="1810" y="-33"/>
      <point x="1522" y="28"/>
      <point x="1440" y="192" type="curve"/>
      <point x="1407" y="127"/>
      <point x="1336" y="73"/>
      <point x="1228" y="32" type="curve" smooth="yes"/>
      <point x="1103" y="-16"/>
      <point x="980" y="-32"/>
      <point x="794" y="-32" type="curve" smooth="yes"/>
      <point x="691" y="-32"/>
      <point x="595" y="-23"/>
      <point x="506" y="-5" type="curve" smooth="yes"/>
      <point x="236" y="49"/>
      <point x="128" y="218"/>
      <point x="128" y="544" type="curve" smooth="yes"/>
      <point x="128" y="656"/>
      <point x="141" y="749"/>
      <point x="166" y="823" type="curve" smooth="yes"/>
      <point x="253" y="1076"/>
      <point x="499" y="1120"/>
      <point x="851" y="1120" type="curve" smooth="yes"/>
      <point x="1063" y="1120"/>
      <point x="1400" y="1048"/>
    </contour>
    <contour>
      <point x="408" y="204" type="curve" smooth="yes"/>
      <point x="431" y="185"/>
      <point x="462" y="169"/>
      <point x="500" y="158" type="curve" smooth="yes"/>
      <point x="600" y="128"/>
      <point x="704" y="128"/>
      <point x="848" y="128" type="curve" smooth="yes"/>
      <point x="933" y="128"/>
      <point x="1009" y="132"/>
      <point x="1074" y="139" type="curve" smooth="yes"/>
      <point x="1292" y="163"/>
      <point x="1344" y="295"/>
      <point x="1344" y="544" type="curve" smooth="yes"/>
      <point x="1344" y="640"/>
      <point x="1335" y="716"/>
      <point x="1318" y="771" type="curve" smooth="yes"/>
      <point x="1260" y="955"/>
      <point x="1079" y="960"/>
      <point x="832" y="960" type="curve" smooth="yes"/>
      <point x="825" y="960" type="line" smooth="yes"/>
      <point x="661" y="960"/>
      <point x="523" y="960"/>
      <point x="432" y="896" type="curve" smooth="yes"/>
      <point x="348" y="837"/>
      <point x="320" y="718"/>
      <point x="320" y="572" type="curve" smooth="yes"/>
      <point x="320" y="403"/>
      <point x="320" y="277"/>
    </contour>
    <contour>
      <point x="1562" y="812" type="curve" smooth="yes"/>
      <point x="1545" y="770"/>
      <point x="1536" y="712"/>
      <point x="1536" y="640" type="curve"/>
      <point x="2496" y="640" type="line"/>
      <point x="2496" y="764"/>
      <point x="2461" y="850"/>
      <point x="2392" y="896" type="curve" smooth="yes"/>
      <point x="2307" y="953"/>
      <point x="2190" y="960"/>
      <point x="2036" y="960" type="curve" smooth="yes"/>
      <point x="1820" y="960"/>
      <point x="1623" y="960"/>
    </contour>
  </outline>
</glyph>
<glyph name="scedilla" format="1">
  <advance width="1600"/>
  <unicode hex="015F"/>
  <outline>
    <contour>
      <point x="832" y="-203" type="line"/>
      <point x="1003" y="-203"/>
      <point x="1088" y="-256"/>
      <point x="1088" y="-363" type="curve" smooth="yes"/>
      <point x="1088" y="-568"/>
      <point x="932" y="-619"/>
      <point x="704" y="-619" type="curve"/>
      <point x="704" y="-459" type="line"/>
      <point x="779" y="-459"/>
      <point x="825" y="-455"/>
      <point x="844" y="-448" type="curve" smooth="yes"/>
      <point x="879" y="-435"/>
      <point x="896" y="-407"/>
      <point x="896" y="-363" type="curve" smooth="yes"/>
      <point x="896" y="-342"/>
      <point x="889" y="-327"/>
      <point x="875" y="-320" type="curve" smooth="yes"/>
      <point x="846" y="-306"/>
      <point x="789" y="-299"/>
      <point x="704" y="-299" type="curve"/>
      <point x="704" y="-11" type="line"/>
      <point x="499" y="-7"/>
      <point x="354" y="19"/>
      <point x="268" y="64" type="curve" smooth="yes"/>
      <point x="175" y="113"/>
      <point x="128" y="198"/>
      <point x="128" y="320" type="curve"/>
      <point x="320" y="320" type="line"/>
      <point x="320" y="234"/>
      <point x="348" y="190"/>
      <point x="412" y="164" type="curve" smooth="yes"/>
      <point x="470" y="140"/>
      <point x="589" y="128"/>
      <point x="768" y="128" type="curve" smooth="yes"/>
      <point x="926" y="128"/>
      <point x="1033" y="134"/>
      <point x="1088" y="146" type="curve" smooth="yes"/>
      <point x="1204" y="170"/>
      <point x="1280" y="190"/>
      <point x="1280" y="315" type="curve" smooth="yes"/>
      <point x="1280" y="410"/>
      <point x="1273" y="448"/>
      <point x="1208" y="475" type="curve" smooth="yes"/>
      <point x="1187" y="484"/>
      <point x="1160" y="490"/>
      <point x="1124" y="496" type="curve" smooth="yes"/>
      <point x="1059" y="506"/>
      <point x="966" y="512"/>
      <point x="845" y="512" type="curve" smooth="yes"/>
      <point x="709" y="512" type="line" smooth="yes"/>
      <point x="586" y="512"/>
      <point x="494" y="514"/>
      <point x="384" y="532" type="curve" smooth="yes"/>
      <point x="200" y="563"/>
      <point x="128" y="637"/>
      <point x="128" y="860" type="curve" smooth="yes"/>
      <point x="128" y="979"/>
      <point x="181" y="1063"/>
      <point x="288" y="1112" type="curve" smooth="yes"/>
      <point x="393" y="1160"/>
      <point x="575" y="1184"/>
      <point x="832" y="1184" type="curve" smooth="yes"/>
      <point x="1077" y="1184"/>
      <point x="1247" y="1156"/>
      <point x="1342" y="1102" type="curve" smooth="yes"/>
      <point x="1430" y="1052"/>
      <point x="1472" y="978"/>
      <point x="1472" y="848" type="curve"/>
      <point x="1280" y="848" type="line"/>
      <point x="1280" y="928"/>
      <point x="1250" y="966"/>
      <point x="1188" y="990" type="curve" smooth="yes"/>
      <point x="1128" y="1013"/>
      <point x="1030" y="1024"/>
      <point x="893" y="1024" type="curve" smooth="yes"/>
      <point x="756" y="1024"/>
      <point x="655" y="1023"/>
      <point x="590" y="1020" type="curve" smooth="yes"/>
      <point x="449" y="1014"/>
      <point x="320" y="1003"/>
      <point x="320" y="866" type="curve" smooth="yes"/>
      <point x="320" y="774"/>
      <point x="326" y="719"/>
      <point x="392" y="695" type="curve" smooth="yes"/>
      <point x="413" y="688"/>
      <point x="440" y="682"/>
      <point x="476" y="678" type="curve" smooth="yes"/>
      <point x="518" y="674"/>
      <point x="606" y="672"/>
      <point x="738" y="672" type="curve" smooth="yes"/>
      <point x="870" y="672"/>
      <point x="970" y="670"/>
      <point x="1038" y="666" type="curve" smooth="yes"/>
      <point x="1200" y="657"/>
      <point x="1345" y="635"/>
      <point x="1418" y="544" type="curve" smooth="yes"/>
      <point x="1454" y="500"/>
      <point x="1472" y="434"/>
      <point x="1472" y="344" type="curve" smooth="yes"/>
      <point x="1472" y="253"/>
      <point x="1454" y="183"/>
      <point x="1418" y="136" type="curve" smooth="yes"/>
      <point x="1346" y="41"/>
      <point x="1150" y="-8"/>
      <point x="832" y="-11" type="curve"/>
    </contour>
  </outline>
</glyph>
<glyph name="florin" format="1">
  <advance width="1184"/>
  <unicode hex="0192"/>
  <outline>
    <contour>
      <point x="320" y="960" type="line"/>
      <point x="128" y="960" type="line"/>
      <point x="128" y="1088" type="line"/>
      <point x="320" y="1088" type="line"/>
      <point x="320" y="1152" type="line" smooth="yes"/>
      <point x="320" y="1311"/>
      <point x="357" y="1420"/>
      <point x="432" y="1480" type="curve" smooth="yes"/>
      <point x="505" y="1539"/>
      <point x="639" y="1568"/>
      <point x="833" y="1568" type="curve" smooth="yes"/>
      <point x="960" y="1568" type="line"/>
      <point x="960" y="1408" type="line"/>
      <point x="832" y="1408" type="line" smooth="yes"/>
      <point x="777" y="1408" type="line" smooth="yes"/>
      <point x="652" y="1408"/>
      <point x="559" y="1402"/>
      <point x="528" y="1300" type="curve" smooth="yes"/>
      <point x="517" y="1265"/>
      <point x="512" y="1216"/>
      <point x="512" y="1152" type="curve" smooth="yes"/>
      <point x="512" y="1088" type="line"/>
      <point x="960" y="1088" type="line"/>
      <point x="960" y="960" type="line"/>
      <point x="512" y="960" type="line"/>
      <point x="512" y="128" type="line" smooth="yes"/>
      <point x="512" y="-31"/>
      <point x="475" y="-140"/>
      <point x="400" y="-200" type="curve" smooth="yes"/>
      <point x="327" y="-259"/>
      <point x="193" y="-288"/>
      <point x="-1" y="-288" type="curve"/>
      <point x="0" y="-128" type="line"/>
      <point x="55" y="-128" type="line" smooth="yes"/>
      <point x="180" y="-128"/>
      <point x="273" y="-122"/>
      <point x="304" y="-20" type="curve" smooth="yes"/>
      <point x="315" y="15"/>
      <point x="320" y="64"/>
      <point x="320" y="128" type="curve" smooth="yes"/>
    </contour>
  </outline>
</glyph>
<glyph name="Ainvertedbreve" format="1">
  <advance width="2304"/>
  <unicode hex="0202"/>
  <outline>
    <contour>
      <point x="768" y="1690" type="line"/>
      <point x="768" y="1925"/>
      <point x="909" y="2010"/>
      <point x="1152" y="2010" type="curve" smooth="yes"/>
      <point x="1395" y="2010"/>
      <point x="1536" y="1926"/>
      <point x="1536" y="1690" type="curve"/>
      <point x="1376" y="1690" type="line"/>
      <point x="1376" y="1776"/>
      <point x="1355" y="1832"/>
      <point x="1312" y="1858" type="curve" smooth="yes"/>
      <point x="1285" y="1874"/>
      <point x="1232" y="1882"/>
      <point x="1152" y="1882" type="curve" smooth="yes"/>
      <point x="1072" y="1882"/>
      <point x="1020" y="1875"/>
      <point x="997" y="1861" type="curve" smooth="yes"/>
      <point x="951" y="1833"/>
      <point x="928" y="1776"/>
      <point x="928" y="1690" type="curve"/>
    </contour>
    <component base="A" xOffset="64"/>
  </outline>
</glyph>
<glyph name="ainvertedbreve" format="1">
  <advance width="1600"/>
  <unicode hex="0203"/>
  <outline>
    <contour>
      <point x="450" y="1242" type="line"/>
      <point x="450" y="1477"/>
      <point x="591" y="1562"/>
      <point x="834" y="1562" type="curve" smooth="yes"/>
      <point x="1077" y="1562"/>
      <point x="1218" y="1478"/>
      <point x="1218" y="1242" type="curve"/>
      <point x="1058" y="1242" type="line"/>
      <point x="1058" y="1328"/>
      <point x="1037" y="1384"/>
      <point x="994" y="1410" type="curve" smooth="yes"/>
      <point x="967" y="1426"/>
      <point x="914" y="1434"/>
      <point x="834" y="1434" type="curve" smooth="yes"/>
      <point x="754" y="1434"/>
      <point x="702" y="1427"/>
      <point x="679" y="1413" type="curve" smooth="yes"/>
      <point x="633" y="1385"/>
      <point x="610" y="1328"/>
      <point x="610" y="1242" type="curve"/>
    </contour>
    <component base="a" xOffset="5"/>
  </outline>
</glyph>
<glyph name="Einvertedbreve" format="1">
  <advance width="1792"/>
  <unicode hex="0206"/>
  <outline>
    <contour>
      <point x="512" y="1690" type="line"/>
      <point x="512" y="1925"/>
      <point x="653" y="2010"/>
      <point x="896" y="2010" type="curve" smooth="yes"/>
      <point x="1139" y="2010"/>
      <point x="1280" y="1926"/>
      <point x="1280" y="1690" type="curve"/>
      <point x="1120" y="1690" type="line"/>
      <point x="1120" y="1776"/>
      <point x="1099" y="1832"/>
      <point x="1056" y="1858" type="curve" smooth="yes"/>
      <point x="1029" y="1874"/>
      <point x="976" y="1882"/>
      <point x="896" y="1882" type="curve" smooth="yes"/>
      <point x="816" y="1882"/>
      <point x="764" y="1875"/>
      <point x="741" y="1861" type="curve" smooth="yes"/>
      <point x="695" y="1833"/>
      <point x="672" y="1776"/>
      <point x="672" y="1690" type="curve"/>
    </contour>
    <component base="E" xOffset="-63"/>
  </outline>
</glyph>
<glyph name="Iinvertedbreve" format="1">
  <advance width="448"/>
  <unicode hex="020A"/>
  <outline>
    <contour>
      <point x="-159" y="1690" type="line"/>
      <point x="-159" y="1925"/>
      <point x="-18" y="2010"/>
      <point x="225" y="2010" type="curve" smooth="yes"/>
      <point x="468" y="2010"/>
      <point x="609" y="1926"/>
      <point x="609" y="1690" type="curve"/>
      <point x="449" y="1690" type="line"/>
      <point x="449" y="1776"/>
      <point x="428" y="1832"/>
      <point x="385" y="1858" type="curve" smooth="yes"/>
      <point x="358" y="1874"/>
      <point x="305" y="1882"/>
      <point x="225" y="1882" type="curve" smooth="yes"/>
      <point x="145" y="1882"/>
      <point x="93" y="1875"/>
      <point x="70" y="1861" type="curve" smooth="yes"/>
      <point x="24" y="1833"/>
      <point x="1" y="1776"/>
      <point x="1" y="1690" type="curve"/>
    </contour>
    <component base="l" xOffset="-63"/>
  </outline>
</glyph>
<glyph name="iinvertedbreve" format="1">
  <advance width="448"/>
  <unicode hex="020B"/>
  <outline>
    <contour>
      <point x="-159" y="1242" type="line"/>
      <point x="-159" y="1477"/>
      <point x="-18" y="1562"/>
      <point x="225" y="1562" type="curve" smooth="yes"/>
      <point x="468" y="1562"/>
      <point x="609" y="1478"/>
      <point x="609" y="1242" type="curve"/>
      <point x="449" y="1242" type="line"/>
      <point x="449" y="1328"/>
      <point x="428" y="1384"/>
      <point x="385" y="1410" type="curve" smooth="yes"/>
      <point x="358" y="1426"/>
      <point x="305" y="1434"/>
      <point x="225" y="1434" type="curve" smooth="yes"/>
      <point x="145" y="1434"/>
      <point x="93" y="1427"/>
      <point x="70" y="1413" type="curve" smooth="yes"/>
      <point x="24" y="1385"/>
      <point x="1" y="1328"/>
      <point x="1" y="1242" type="curve"/>
    </contour>
    <component base="dotlessi"/>
  </outline>
</glyph>
<glyph name="Oinvertedbreve" format="1">
  <advance width="2241"/>
  <unicode hex="020E"/>
  <outline>
    <contour>
      <point x="737" y="1690" type="line"/>
      <point x="737" y="1925"/>
      <point x="878" y="2010"/>
      <point x="1121" y="2010" type="curve" smooth="yes"/>
      <point x="1364" y="2010"/>
      <point x="1505" y="1926"/>
      <point x="1505" y="1690" type="curve"/>
      <point x="1345" y="1690" type="line"/>
      <point x="1345" y="1776"/>
      <point x="1324" y="1832"/>
      <point x="1281" y="1858" type="curve" smooth="yes"/>
      <point x="1254" y="1874"/>
      <point x="1201" y="1882"/>
      <point x="1121" y="1882" type="curve" smooth="yes"/>
      <point x="1041" y="1882"/>
      <point x="989" y="1875"/>
      <point x="966" y="1861" type="curve" smooth="yes"/>
      <point x="920" y="1833"/>
      <point x="897" y="1776"/>
      <point x="897" y="1690" type="curve"/>
    </contour>
    <component base="O" xOffset="1"/>
  </outline>
</glyph>
<glyph name="oinvertedbreve" format="1">
  <advance width="1664"/>
  <unicode hex="020F"/>
  <outline>
    <contour>
      <point x="448" y="1242" type="line"/>
      <point x="448" y="1477"/>
      <point x="589" y="1562"/>
      <point x="832" y="1562" type="curve" smooth="yes"/>
      <point x="1075" y="1562"/>
      <point x="1216" y="1478"/>
      <point x="1216" y="1242" type="curve"/>
      <point x="1056" y="1242" type="line"/>
      <point x="1056" y="1328"/>
      <point x="1035" y="1384"/>
      <point x="992" y="1410" type="curve" smooth="yes"/>
      <point x="965" y="1426"/>
      <point x="912" y="1434"/>
      <point x="832" y="1434" type="curve" smooth="yes"/>
      <point x="752" y="1434"/>
      <point x="700" y="1427"/>
      <point x="677" y="1413" type="curve" smooth="yes"/>
      <point x="631" y="1385"/>
      <point x="608" y="1328"/>
      <point x="608" y="1242" type="curve"/>
    </contour>
    <component base="o" xOffset="32"/>
  </outline>
</glyph>
<glyph name="Rinvertedbreve" format="1">
  <advance width="2048"/>
  <unicode hex="0212"/>
  <outline>
    <contour>
      <point x="288" y="1690" type="line"/>
      <point x="288" y="1925"/>
      <point x="429" y="2010"/>
      <point x="672" y="2010" type="curve" smooth="yes"/>
      <point x="915" y="2010"/>
      <point x="1056" y="1926"/>
      <point x="1056" y="1690" type="curve"/>
      <point x="896" y="1690" type="line"/>
      <point x="896" y="1776"/>
      <point x="875" y="1832"/>
      <point x="832" y="1858" type="curve" smooth="yes"/>
      <point x="805" y="1874"/>
      <point x="752" y="1882"/>
      <point x="672" y="1882" type="curve" smooth="yes"/>
      <point x="592" y="1882"/>
      <point x="540" y="1875"/>
      <point x="517" y="1861" type="curve" smooth="yes"/>
      <point x="471" y="1833"/>
      <point x="448" y="1776"/>
      <point x="448" y="1690" type="curve"/>
    </contour>
    <component base="R" xOffset="-63"/>
  </outline>
</glyph>
<glyph name="rinvertedbreve" format="1">
  <advance width="1408"/>
  <unicode hex="0213"/>
  <outline>
    <contour>
      <point x="320" y="1242" type="line"/>
      <point x="320" y="1477"/>
      <point x="461" y="1562"/>
      <point x="704" y="1562" type="curve" smooth="yes"/>
      <point x="947" y="1562"/>
      <point x="1088" y="1478"/>
      <point x="1088" y="1242" type="curve"/>
      <point x="928" y="1242" type="line"/>
      <point x="928" y="1328"/>
      <point x="907" y="1384"/>
      <point x="864" y="1410" type="curve" smooth="yes"/>
      <point x="837" y="1426"/>
      <point x="784" y="1434"/>
      <point x="704" y="1434" type="curve" smooth="yes"/>
      <point x="624" y="1434"/>
      <point x="572" y="1427"/>
      <point x="549" y="1413" type="curve" smooth="yes"/>
      <point x="503" y="1385"/>
      <point x="480" y="1328"/>
      <point x="480" y="1242" type="curve"/>
    </contour>
    <component base="r"/>
  </outline>
</glyph>
<glyph name="Uinvertedbreve" format="1">
  <advance width="2113"/>
  <unicode hex="0216"/>
  <outline>
    <contour>
      <point x="673" y="1690" type="line"/>
      <point x="673" y="1925"/>
      <point x="814" y="2010"/>
      <point x="1057" y="2010" type="curve" smooth="yes"/>
      <point x="1300" y="2010"/>
      <point x="1441" y="1926"/>
      <point x="1441" y="1690" type="curve"/>
      <point x="1281" y="1690" type="line"/>
      <point x="1281" y="1776"/>
      <point x="1260" y="1832"/>
      <point x="1217" y="1858" type="curve" smooth="yes"/>
      <point x="1190" y="1874"/>
      <point x="1137" y="1882"/>
      <point x="1057" y="1882" type="curve" smooth="yes"/>
      <point x="977" y="1882"/>
      <point x="925" y="1875"/>
      <point x="902" y="1861" type="curve" smooth="yes"/>
      <point x="856" y="1833"/>
      <point x="833" y="1776"/>
      <point x="833" y="1690" type="curve"/>
    </contour>
    <component base="U"/>
  </outline>
</glyph>
<glyph name="uinvertedbreve" format="1">
  <advance width="1602"/>
  <unicode hex="0217"/>
  <outline>
    <contour>
      <point x="416" y="1242" type="line"/>
      <point x="416" y="1477"/>
      <point x="557" y="1562"/>
      <point x="800" y="1562" type="curve" smooth="yes"/>
      <point x="1043" y="1562"/>
      <point x="1184" y="1478"/>
      <point x="1184" y="1242" type="curve"/>
      <point x="1024" y="1242" type="line"/>
      <point x="1024" y="1328"/>
      <point x="1003" y="1384"/>
      <point x="960" y="1410" type="curve" smooth="yes"/>
      <point x="933" y="1426"/>
      <point x="880" y="1434"/>
      <point x="800" y="1434" type="curve" smooth="yes"/>
      <point x="720" y="1434"/>
      <point x="668" y="1427"/>
      <point x="645" y="1413" type="curve" smooth="yes"/>
      <point x="599" y="1385"/>
      <point x="576" y="1328"/>
      <point x="576" y="1242" type="curve"/>
    </contour>
    <component base="u"/>
  </outline>
</glyph>
<glyph name="dotlessj" format="1">
  <advance width="608"/>
  <unicode hex="0237"/>
  <outline>
    <contour>
      <point x="288" y="-64" type="curve" smooth="yes"/>
      <point x="288" y="1088" type="line"/>
      <point x="480" y="1088" type="line"/>
      <point x="480" y="-64" type="line" smooth="yes"/>
      <point x="480" y="-165"/>
      <point x="471" y="-243"/>
      <point x="424" y="-298" type="curve" smooth="yes"/>
      <point x="374" y="-356"/>
      <point x="275" y="-384"/>
      <point x="128" y="-384" type="curve"/>
      <point x="128" y="-224" type="line"/>
      <point x="257" y="-224"/>
      <point x="288" y="-193"/>
    </contour>
  </outline>
</glyph>
<glyph name="circumflex" format="1">
  <advance width="1088"/>
  <unicode hex="02C6"/>
  <outline>
    <contour>
      <point x="832" y="1280" type="line"/>
      <point x="544" y="1728" type="line"/>
      <point x="256" y="1280" type="line"/>
      <point x="128" y="1376" type="line"/>
      <point x="448" y="1856" type="line"/>
      <point x="640" y="1856" type="line"/>
      <point x="960" y="1376" type="line"/>
    </contour>
  </outline>
</glyph>
<glyph name="caron" format="1">
  <advance width="1088"/>
  <unicode hex="02C7"/>
  <outline>
    <contour>
      <point x="544" y="1408" type="line"/>
      <point x="832" y="1856" type="line"/>
      <point x="960" y="1760" type="line"/>
      <point x="640" y="1280" type="line"/>
      <point x="448" y="1280" type="line"/>
      <point x="128" y="1760" type="line"/>
      <point x="256" y="1856" type="line"/>
    </contour>
  </outline>
</glyph>
<glyph name="breve" format="1">
  <advance width="1280"/>
  <unicode hex="02D8"/>
  <outline>
    <contour>
      <point x="256" y="1600" type="curve"/>
      <point x="416" y="1600" type="line"/>
      <point x="416" y="1514"/>
      <point x="439" y="1457"/>
      <point x="485" y="1429" type="curve" smooth="yes"/>
      <point x="508" y="1415"/>
      <point x="560" y="1408"/>
      <point x="640" y="1408" type="curve" smooth="yes"/>
      <point x="720" y="1408"/>
      <point x="773" y="1416"/>
      <point x="800" y="1432" type="curve" smooth="yes"/>
      <point x="843" y="1458"/>
      <point x="864" y="1514"/>
      <point x="864" y="1600" type="curve"/>
      <point x="1024" y="1600" type="line"/>
      <point x="1024" y="1364"/>
      <point x="883" y="1280"/>
      <point x="640" y="1280" type="curve" smooth="yes"/>
      <point x="397" y="1280"/>
      <point x="256" y="1364"/>
    </contour>
  </outline>
</glyph>
<glyph name="dotaccent" format="1">
  <advance width="448"/>
  <unicode hex="02D9"/>
  <outline>
    <contour>
      <point x="320" y="1536" type="line"/>
      <point x="320" y="1344" type="line"/>
      <point x="128" y="1344" type="line"/>
      <point x="128" y="1536" type="line"/>
    </contour>
  </outline>
</glyph>
<glyph name="ogonek" format="1">
  <advance width="640"/>
  <unicode hex="02DB"/>
  <outline>
    <contour>
      <point x="320" y="-224" type="curve" smooth="yes"/>
      <point x="320" y="-330"/>
      <point x="398" y="-352"/>
      <point x="512" y="-352" type="curve"/>
      <point x="512" y="-512" type="line"/>
      <point x="339" y="-512"/>
      <point x="222" y="-467"/>
      <point x="161" y="-377" type="curve" smooth="yes"/>
      <point x="139" y="-344"/>
      <point x="128" y="-310"/>
      <point x="128" y="-274" type="curve" smooth="yes"/>
      <point x="128" y="-204"/>
      <point x="142" y="-167"/>
      <point x="168" y="-125" type="curve" smooth="yes"/>
      <point x="213" y="-53"/>
      <point x="285" y="10"/>
      <point x="384" y="64" type="curve"/>
      <point x="512" y="64" type="line"/>
      <point x="384" y="-21"/>
      <point x="320" y="-117"/>
    </contour>
  </outline>
</glyph>
